<svg width="118" height="118" viewBox="0 0 118 118" fill="none" xmlns="http://www.w3.org/2000/svg">
<circle cx="59" cy="59" r="58.5" stroke="url(#paint0_linear_2059_9)"/>
<path d="M74.6375 65.4509C73.532 64.2998 72.1986 63.6844 70.7854 63.6844C69.3835 63.6844 68.0387 64.2884 66.8876 65.4395L63.2861 69.0296C62.9898 68.87 62.6935 68.7219 62.4086 68.5737C61.9983 68.3685 61.6108 68.1748 61.2802 67.9696C57.9067 65.827 54.8409 63.0347 51.9005 59.4219C50.4759 57.6212 49.5185 56.1054 48.8233 54.5668C49.7579 53.712 50.624 52.823 51.4674 51.9682C51.7865 51.6491 52.1056 51.3186 52.4248 50.9995C54.8181 48.6061 54.8181 45.5061 52.4248 43.1128L49.3134 40.0014C48.9601 39.6481 48.5954 39.2834 48.2535 38.9187C47.5696 38.212 46.8516 37.4826 46.1108 36.7988C45.0053 35.7047 43.6833 35.1234 42.2928 35.1234C40.9024 35.1234 39.5575 35.7047 38.4178 36.7988C38.4064 36.8102 38.4064 36.8102 38.395 36.8216L34.52 40.7308C33.0612 42.1896 32.2292 43.9675 32.0469 46.0304C31.7734 49.3583 32.7535 52.4583 33.5057 54.487C35.352 59.4675 38.1101 64.0833 42.2244 69.0296C47.2163 74.9902 53.2226 79.6972 60.0836 83.0137C62.7049 84.256 66.2038 85.7262 70.1129 85.9769C70.3523 85.9883 70.603 85.9997 70.8309 85.9997C73.4637 85.9997 75.6747 85.0538 77.407 83.1733C77.4184 83.1505 77.4412 83.1391 77.4526 83.1163C78.0453 82.3983 78.7291 81.7486 79.4471 81.0534C79.9372 80.5861 80.4386 80.0961 80.9287 79.5832C82.057 78.4093 82.6497 77.0417 82.6497 75.6398C82.6497 74.2266 82.0456 72.8704 80.8945 71.7307L74.6375 65.4509ZM78.7177 77.452C78.7063 77.452 78.7063 77.4634 78.7177 77.452C78.2732 77.9306 77.8173 78.3637 77.3272 78.8424C76.5864 79.549 75.8342 80.2898 75.1276 81.1218C73.9765 82.3527 72.6203 82.9339 70.8423 82.9339C70.6714 82.9339 70.489 82.9339 70.3181 82.9225C66.9332 82.706 63.7876 81.3839 61.4284 80.2556C54.9777 77.1329 49.3134 72.6994 44.6064 67.0807C40.72 62.3965 38.1215 58.0656 36.4006 53.4157C35.3406 50.5778 34.9531 48.3668 35.1241 46.2811C35.2381 44.9477 35.7509 43.8422 36.6969 42.8962L40.5833 39.0098C41.1417 38.4856 41.7344 38.2006 42.3156 38.2006C43.0336 38.2006 43.6149 38.6337 43.9796 38.9984C43.991 39.0098 44.0024 39.0212 44.0138 39.0326C44.709 39.6823 45.37 40.3547 46.0652 41.0727C46.4185 41.4374 46.7832 41.8021 47.1479 42.1782L50.2593 45.2896C51.4674 46.4977 51.4674 47.6146 50.2593 48.8227C49.9288 49.1532 49.6097 49.4837 49.2792 49.8028C48.3218 50.7829 47.4101 51.6947 46.4185 52.5837C46.3957 52.6065 46.3729 52.6179 46.3616 52.6407C45.3814 53.6208 45.5638 54.5782 45.7689 55.2278C45.7803 55.262 45.7917 55.2962 45.8031 55.3304C46.6123 57.2906 47.752 59.137 49.4843 61.3366L49.4957 61.348C52.6413 65.223 55.9578 68.2432 59.6163 70.5568C60.0836 70.8531 60.5622 71.0924 61.0181 71.3204C61.4284 71.5255 61.8159 71.7193 62.1464 71.9244C62.192 71.9472 62.2376 71.9814 62.2832 72.0042C62.6707 72.1979 63.0354 72.2891 63.4115 72.2891C64.3574 72.2891 64.9501 71.6965 65.1438 71.5027L69.0416 67.6049C69.4291 67.2174 70.0446 66.7502 70.7626 66.7502C71.4692 66.7502 72.0504 67.1946 72.4037 67.5821C72.4151 67.5935 72.4151 67.5935 72.4265 67.6049L78.7063 73.8847C79.8802 75.0472 79.8802 76.2439 78.7177 77.452Z" fill="url(#paint1_linear_2059_9)"/>
<path d="M61.1434 44.8451C64.1294 45.3466 66.8419 46.7598 69.0074 48.9252C71.1728 51.0906 72.5746 53.8031 73.0875 56.7892C73.2129 57.5414 73.8625 58.0656 74.6033 58.0656C74.6945 58.0656 74.7742 58.0542 74.8654 58.0428C75.7088 57.9061 76.2673 57.1083 76.1305 56.2649C75.5151 52.652 73.8055 49.3583 71.1956 46.7484C68.5857 44.1385 65.2919 42.4289 61.6791 41.8135C60.8357 41.6767 60.0493 42.2352 59.9011 43.0671C59.753 43.8991 60.3 44.7083 61.1434 44.8451Z" fill="url(#paint2_linear_2059_9)"/>
<path d="M85.8986 55.8204C84.8842 49.8712 82.0805 44.4576 77.7725 40.1495C73.4644 35.8415 68.0508 33.0378 62.1016 32.0235C61.2696 31.8753 60.4832 32.4451 60.335 33.2771C60.1983 34.1205 60.7567 34.9069 61.6001 35.0551C66.9111 35.9554 71.7549 38.4742 75.607 42.315C79.4592 46.1672 81.9666 51.0109 82.8669 56.3219C82.9923 57.0741 83.6419 57.5984 84.3827 57.5984C84.4739 57.5984 84.5537 57.587 84.6449 57.5756C85.4769 57.4502 86.0467 56.6524 85.8986 55.8204Z" fill="url(#paint3_linear_2059_9)"/>
<defs>
<linearGradient id="paint0_linear_2059_9" x1="0" y1="0" x2="115.938" y2="118.047" gradientUnits="userSpaceOnUse">
<stop stop-color="#FF7E42"/>
<stop offset="1" stop-color="#F4B943"/>
</linearGradient>
<linearGradient id="paint1_linear_2059_9" x1="32" y1="35.1234" x2="79.4219" y2="85.7885" gradientUnits="userSpaceOnUse">
<stop stop-color="#FF7E42"/>
<stop offset="1" stop-color="#F4B943"/>
</linearGradient>
<linearGradient id="paint2_linear_2059_9" x1="59.877" y1="41.7929" x2="75.0401" y2="58.0669" gradientUnits="userSpaceOnUse">
<stop stop-color="#FF7E42"/>
<stop offset="1" stop-color="#F4B943"/>
</linearGradient>
<linearGradient id="paint3_linear_2059_9" x1="60.3145" y1="32" x2="84.1669" y2="57.6069" gradientUnits="userSpaceOnUse">
<stop stop-color="#FF7E42"/>
<stop offset="1" stop-color="#F4B943"/>
</linearGradient>
</defs>
</svg>
