<svg width="118" height="118" viewBox="0 0 118 118" fill="none" xmlns="http://www.w3.org/2000/svg">
<circle cx="59" cy="59" r="58.5" stroke="url(#paint0_linear_2059_5)"/>
<path d="M85.0255 40H32.9744C31.3384 40 30 41.3384 30 42.9743V75.6922C30 77.328 31.3384 78.6667 32.9744 78.6667H85.0256C86.6614 78.6667 88 77.3283 88 75.6922V42.9743C87.9999 41.3384 86.6615 40 85.0255 40ZM83.9093 42.2306L60.7109 59.6308C60.2938 59.9482 59.6536 60.1468 58.9998 60.1439C58.3462 60.1468 57.706 59.9482 57.2888 59.6308L34.0905 42.2306H83.9093ZM71.5175 60.7789L84.1585 76.3944C84.1712 76.41 84.1867 76.4219 84.2002 76.4361H33.7997C33.813 76.4212 33.8287 76.41 33.8414 76.3944L46.4824 60.7789C46.8697 60.3001 46.7963 59.5981 46.3165 59.2099C45.8377 58.8226 45.1357 58.896 44.7483 59.3749L32.2307 74.8379V43.6249L55.9511 61.4152C56.8427 62.0793 57.9275 62.3715 58.9997 62.3745C60.0704 62.3722 61.1561 62.0799 62.0483 61.4152L85.7687 43.6249V74.8377L73.2515 59.3749C72.8641 58.8961 72.1614 58.8224 71.6832 59.2099C71.2036 59.5972 71.13 60.3001 71.5175 60.7789Z" fill="url(#paint1_linear_2059_5)"/>
<defs>
<linearGradient id="paint0_linear_2059_5" x1="0" y1="0" x2="115.938" y2="118.047" gradientUnits="userSpaceOnUse">
<stop stop-color="#FF7E42"/>
<stop offset="1" stop-color="#F4B943"/>
</linearGradient>
<linearGradient id="paint1_linear_2059_5" x1="30" y1="40" x2="62.3807" y2="92.1251" gradientUnits="userSpaceOnUse">
<stop stop-color="#FF7E42"/>
<stop offset="1" stop-color="#F4B943"/>
</linearGradient>
</defs>
</svg>
