<svg width="130" height="65" viewBox="0 0 130 65" fill="none" xmlns="http://www.w3.org/2000/svg">
<rect y="22.551" width="19.898" height="19.898" fill="url(#paint0_linear_72_19)"/>
<rect x="34.4897" width="7.95918" height="7.95918" fill="url(#paint1_linear_72_19)"/>
<path d="M17.2451 25.2041L37.1431 5.30615" stroke="#F67F43"/>
<rect x="5.30615" y="6.63263" width="7.95918" height="7.95918" fill="url(#paint2_linear_72_19)"/>
<rect x="6.63281" y="57.0408" width="7.95918" height="7.95918" fill="url(#paint3_linear_72_19)"/>
<rect x="29.1841" y="22.551" width="19.898" height="19.898" fill="url(#paint4_linear_72_19)"/>
<rect x="35.8164" y="51.7347" width="7.95918" height="7.95918" fill="url(#paint5_linear_72_19)"/>
<path d="M75.4273 38.968H77.5393C82.062 38.968 84.3233 36.5253 84.3233 31.64V31.384C84.3233 28.9733 83.7686 27.1707 82.6593 25.976C81.5713 24.76 79.8433 24.152 77.4753 24.152H75.4273V38.968ZM70.2433 43V20.12H77.7313C81.6566 20.12 84.6326 21.112 86.6593 23.096C88.7073 25.08 89.7313 27.8213 89.7313 31.32V31.576C89.7313 35.096 88.7073 37.88 86.6593 39.928C84.6113 41.976 81.6246 43 77.6993 43H70.2433ZM93.174 43V26.264H97.782V43H93.174ZM97.334 23.288C96.822 23.7573 96.1927 23.992 95.446 23.992C94.6994 23.992 94.07 23.7573 93.558 23.288C93.0674 22.7973 92.822 22.1893 92.822 21.464C92.822 20.7387 93.0674 20.1413 93.558 19.672C94.07 19.1813 94.6994 18.936 95.446 18.936C96.1927 18.936 96.822 19.1813 97.334 19.672C97.846 20.1413 98.102 20.7387 98.102 21.464C98.102 22.1893 97.846 22.7973 97.334 23.288ZM109.47 49.176C104.435 49.176 101.662 47.2347 101.15 43.352H105.758C106.078 44.9733 107.315 45.784 109.47 45.784C112.286 45.784 113.694 44.4187 113.694 41.688V39.16C113.203 40.0347 112.478 40.7707 111.518 41.368C110.558 41.9653 109.491 42.264 108.318 42.264C106.227 42.264 104.489 41.5387 103.102 40.088C101.715 38.6373 101.022 36.696 101.022 34.264V34.04C101.022 31.672 101.726 29.72 103.134 28.184C104.542 26.648 106.291 25.88 108.382 25.88C110.835 25.88 112.606 26.84 113.694 28.76V26.264H118.302V41.688C118.281 44.1413 117.502 45.9973 115.966 47.256C114.43 48.536 112.265 49.176 109.47 49.176ZM109.694 38.776C110.931 38.776 111.923 38.3707 112.67 37.56C113.438 36.728 113.822 35.608 113.822 34.2V33.976C113.822 32.5467 113.459 31.4267 112.734 30.616C112.03 29.8053 111.049 29.4 109.79 29.4C108.51 29.4 107.518 29.816 106.814 30.648C106.11 31.48 105.758 32.6 105.758 34.008V34.264C105.758 35.6293 106.121 36.728 106.846 37.56C107.571 38.3707 108.521 38.776 109.694 38.776ZM122.518 43V26.264H127.126V43H122.518ZM126.678 23.288C126.166 23.7573 125.536 23.992 124.79 23.992C124.043 23.992 123.414 23.7573 122.902 23.288C122.411 22.7973 122.166 22.1893 122.166 21.464C122.166 20.7387 122.411 20.1413 122.902 19.672C123.414 19.1813 124.043 18.936 124.79 18.936C125.536 18.936 126.166 19.1813 126.678 19.672C127.19 20.1413 127.446 20.7387 127.446 21.464C127.446 22.1893 127.19 22.7973 126.678 23.288Z" fill="white"/>
<defs>
<linearGradient id="paint0_linear_72_19" x1="14.2969" y1="21.3791" x2="6.32813" y2="45.051" gradientUnits="userSpaceOnUse">
<stop stop-color="#F77C42"/>
<stop offset="1" stop-color="#F0CD89"/>
</linearGradient>
<linearGradient id="paint1_linear_72_19" x1="40.2085" y1="-0.46875" x2="37.021" y2="9" gradientUnits="userSpaceOnUse">
<stop stop-color="#F77C42"/>
<stop offset="1" stop-color="#F0CD89"/>
</linearGradient>
<linearGradient id="paint2_linear_72_19" x1="11.0249" y1="6.16388" x2="7.8374" y2="15.6326" gradientUnits="userSpaceOnUse">
<stop stop-color="#F77C42"/>
<stop offset="1" stop-color="#F0CD89"/>
</linearGradient>
<linearGradient id="paint3_linear_72_19" x1="12.3516" y1="56.5721" x2="9.16406" y2="66.0408" gradientUnits="userSpaceOnUse">
<stop stop-color="#F77C42"/>
<stop offset="1" stop-color="#F0CD89"/>
</linearGradient>
<linearGradient id="paint4_linear_72_19" x1="43.481" y1="21.3791" x2="35.5122" y2="45.051" gradientUnits="userSpaceOnUse">
<stop stop-color="#F77C42"/>
<stop offset="1" stop-color="#F0CD89"/>
</linearGradient>
<linearGradient id="paint5_linear_72_19" x1="41.5352" y1="51.266" x2="38.3477" y2="60.7347" gradientUnits="userSpaceOnUse">
<stop stop-color="#F77C42"/>
<stop offset="1" stop-color="#F0CD89"/>
</linearGradient>
</defs>
</svg>
