<svg width="141" height="65" viewBox="0 0 141 65" fill="none" xmlns="http://www.w3.org/2000/svg">
<rect y="22.5508" width="19.898" height="19.898" fill="url(#paint0_linear_69_100)"/>
<rect x="34.4898" width="7.95918" height="7.95918" fill="url(#paint1_linear_69_100)"/>
<path d="M17.2449 25.2036L37.1429 5.30566" stroke="#F67F43"/>
<rect x="5.30611" y="6.63281" width="7.95918" height="7.95918" fill="url(#paint2_linear_69_100)"/>
<rect x="6.63263" y="57.041" width="7.95918" height="7.95918" fill="url(#paint3_linear_69_100)"/>
<rect x="29.1837" y="22.5508" width="19.898" height="19.898" fill="url(#paint4_linear_69_100)"/>
<rect x="35.8163" y="51.7344" width="7.95918" height="7.95918" fill="url(#paint5_linear_69_100)"/>
<path d="M79.3834 40.464H81.7594C86.8474 40.464 89.3914 37.716 89.3914 32.22V31.932C89.3914 29.22 88.7674 27.192 87.5194 25.848C86.2954 24.48 84.3514 23.796 81.6874 23.796H79.3834V40.464ZM73.5514 45V19.26H81.9754C86.3914 19.26 89.7394 20.376 92.0194 22.608C94.3234 24.84 95.4754 27.924 95.4754 31.86V32.148C95.4754 36.108 94.3234 39.24 92.0194 41.544C89.7154 43.848 86.3554 45 81.9394 45H73.5514ZM99.3485 45V26.172H104.533V45H99.3485ZM104.029 22.824C103.453 23.352 102.745 23.616 101.905 23.616C101.065 23.616 100.357 23.352 99.7805 22.824C99.2285 22.272 98.9525 21.588 98.9525 20.772C98.9525 19.956 99.2285 19.284 99.7805 18.756C100.357 18.204 101.065 17.928 101.905 17.928C102.745 17.928 103.453 18.204 104.029 18.756C104.605 19.284 104.893 19.956 104.893 20.772C104.893 21.588 104.605 22.272 104.029 22.824ZM117.682 51.948C112.018 51.948 108.898 49.764 108.322 45.396H113.506C113.866 47.22 115.258 48.132 117.682 48.132C120.85 48.132 122.434 46.596 122.434 43.524V40.68C121.882 41.664 121.066 42.492 119.986 43.164C118.906 43.836 117.706 44.172 116.386 44.172C114.034 44.172 112.078 43.356 110.518 41.724C108.958 40.092 108.178 37.908 108.178 35.172V34.92C108.178 32.256 108.97 30.06 110.554 28.332C112.138 26.604 114.106 25.74 116.458 25.74C119.218 25.74 121.21 26.82 122.434 28.98V26.172H127.618V43.524C127.594 46.284 126.718 48.372 124.99 49.788C123.262 51.228 120.826 51.948 117.682 51.948ZM117.934 40.248C119.326 40.248 120.442 39.792 121.282 38.88C122.146 37.944 122.578 36.684 122.578 35.1V34.848C122.578 33.24 122.17 31.98 121.354 31.068C120.562 30.156 119.458 29.7 118.042 29.7C116.602 29.7 115.486 30.168 114.694 31.104C113.902 32.04 113.506 33.3 113.506 34.884V35.172C113.506 36.708 113.914 37.944 114.73 38.88C115.546 39.792 116.614 40.248 117.934 40.248ZM132.36 45V26.172H137.544V45H132.36ZM137.04 22.824C136.464 23.352 135.756 23.616 134.916 23.616C134.076 23.616 133.368 23.352 132.792 22.824C132.24 22.272 131.964 21.588 131.964 20.772C131.964 19.956 132.24 19.284 132.792 18.756C133.368 18.204 134.076 17.928 134.916 17.928C135.756 17.928 136.464 18.204 137.04 18.756C137.616 19.284 137.904 19.956 137.904 20.772C137.904 21.588 137.616 22.272 137.04 22.824Z" fill="#130804"/>
<defs>
<linearGradient id="paint0_linear_69_100" x1="14.2969" y1="21.3789" x2="6.32813" y2="45.0508" gradientUnits="userSpaceOnUse">
<stop stop-color="#F77C42"/>
<stop offset="1" stop-color="#F0CD89"/>
</linearGradient>
<linearGradient id="paint1_linear_69_100" x1="40.2085" y1="-0.46875" x2="37.021" y2="9" gradientUnits="userSpaceOnUse">
<stop stop-color="#F77C42"/>
<stop offset="1" stop-color="#F0CD89"/>
</linearGradient>
<linearGradient id="paint2_linear_69_100" x1="11.0249" y1="6.16406" x2="7.83736" y2="15.6328" gradientUnits="userSpaceOnUse">
<stop stop-color="#F77C42"/>
<stop offset="1" stop-color="#F0CD89"/>
</linearGradient>
<linearGradient id="paint3_linear_69_100" x1="12.3514" y1="56.5723" x2="9.16388" y2="66.041" gradientUnits="userSpaceOnUse">
<stop stop-color="#F77C42"/>
<stop offset="1" stop-color="#F0CD89"/>
</linearGradient>
<linearGradient id="paint4_linear_69_100" x1="43.4805" y1="21.3789" x2="35.5118" y2="45.0508" gradientUnits="userSpaceOnUse">
<stop stop-color="#F77C42"/>
<stop offset="1" stop-color="#F0CD89"/>
</linearGradient>
<linearGradient id="paint5_linear_69_100" x1="41.535" y1="51.2656" x2="38.3475" y2="60.7344" gradientUnits="userSpaceOnUse">
<stop stop-color="#F77C42"/>
<stop offset="1" stop-color="#F0CD89"/>
</linearGradient>
</defs>
</svg>
