<svg width="274" height="277" viewBox="0 0 274 277" fill="none" xmlns="http://www.w3.org/2000/svg">
<g opacity="0.95">
<path d="M35.8387 35.2625C35.9617 35.1507 36.0854 35.039 36.2091 34.9272C70.3129 4.21861 115.61 2.83446 148.61 35.8908C165.81 53.1196 196.349 49.8222 218.199 56.0546C293.536 77.541 280.511 179.759 243.297 229.17C209.715 273.759 136.951 283.833 88.0635 261.894C45.1052 242.616 14.8562 199.548 4.09117 154.516C3.01189 150 2.12373 145.438 1.44521 140.844C-4.21705 102.509 6.65909 61.7962 35.8387 35.2625Z" fill="#FF7E42"/>
<path opacity="0.9" d="M35.8387 35.2625C35.9617 35.1507 36.0854 35.039 36.2091 34.9272C70.3129 4.21861 115.61 2.83446 148.61 35.8908C165.81 53.1196 196.349 49.8222 218.199 56.0546C293.536 77.541 280.511 179.759 243.297 229.17C209.715 273.759 136.951 283.833 88.0635 261.894C45.1052 242.616 14.8562 199.548 4.09117 154.516C3.01189 150 2.12373 145.438 1.44521 140.844C-4.21705 102.509 6.65909 61.7962 35.8387 35.2625Z" fill="white"/>
<path d="M156.079 238.769C152.805 255.134 136.885 265.746 120.521 262.472C108.819 260.131 100.058 251.323 97.213 240.51" stroke="#263238" stroke-miterlimit="10" stroke-linecap="round" stroke-linejoin="round"/>
<path d="M155.669 225.116C156.538 228.396 156.864 231.862 156.561 235.389" stroke="#263238" stroke-miterlimit="10" stroke-linecap="round" stroke-linejoin="round"/>
<path d="M107.01 209.715C113.797 204.017 123.011 201.338 132.376 203.211C142.274 205.191 150.067 211.798 153.957 220.332" stroke="#263238" stroke-miterlimit="10" stroke-linecap="round" stroke-linejoin="round"/>
<path d="M98.6242 204.948L97.7837 202.695L105.751 208.756" stroke="#263238" stroke-miterlimit="10" stroke-linecap="round" stroke-linejoin="round"/>
<path d="M96.8181 226.914C97.734 222.337 99.6407 218.21 102.269 214.71L99.6135 207.597" stroke="#263238" stroke-miterlimit="10" stroke-linecap="round" stroke-linejoin="round"/>
<path d="M96.2507 234.12C96.2005 232.905 96.2229 231.676 96.3235 230.44" stroke="#263238" stroke-miterlimit="10" stroke-linecap="round" stroke-linejoin="round"/>
<path d="M127.881 217.786C136.223 218.762 142.194 226.317 141.217 234.66C140.24 243.003 132.685 248.973 124.342 247.996C116 247.019 110.029 239.464 111.006 231.122C111.767 224.63 116.51 219.575 122.507 218.112" stroke="#263238" stroke-miterlimit="10" stroke-linecap="round" stroke-linejoin="round"/>
<path d="M124.152 249.624C114.911 248.542 108.296 240.173 109.379 230.931" stroke="#263238" stroke-miterlimit="10" stroke-linecap="round" stroke-linejoin="round"/>
<path d="M142.237 237.781C140.428 243.77 135.43 248.219 129.404 249.418" stroke="#263238" stroke-miterlimit="10" stroke-linecap="round" stroke-linejoin="round"/>
<path d="M110.452 226.664C113.197 219.747 120.328 215.251 128.071 216.157C137.312 217.24 143.927 225.609 142.844 234.85" stroke="#263238" stroke-miterlimit="10" stroke-linecap="round" stroke-linejoin="round"/>
<path d="M135.893 226.303L136.074 226.084" stroke="#263238" stroke-width="2" stroke-miterlimit="10" stroke-linecap="round" stroke-linejoin="round"/>
<path d="M133.349 229.347L134.616 227.83" stroke="#263238" stroke-width="2" stroke-miterlimit="10" stroke-linecap="round" stroke-linejoin="round"/>
<path d="M117.011 232.333L123.94 240.61L132.239 230.675" stroke="#263238" stroke-width="2" stroke-miterlimit="10" stroke-linecap="round" stroke-linejoin="round"/>
<path d="M241.285 205.076H168.628C151.757 205.076 138.08 191.399 138.08 174.528V101.872C138.08 85.0014 151.757 71.3246 168.628 71.3246H241.285C258.156 71.3246 271.832 85.0014 271.832 101.872V174.528C271.832 191.399 258.156 205.076 241.285 205.076Z" fill="white" stroke="#263238" stroke-miterlimit="10" stroke-linecap="round" stroke-linejoin="round"/>
<path d="M179.051 130.214C177.024 126.866 167.286 126.921 166.405 128.408C166.405 128.408 171.229 144.003 176.606 142.387C181.982 140.77 179.051 130.214 179.051 130.214Z" fill="#FF7E42"/>
<mask id="mask0_31_1964" style="mask-type:luminance" maskUnits="userSpaceOnUse" x="166" y="127" width="14" height="16">
<path d="M179.051 130.214C177.024 126.866 167.286 126.921 166.405 128.408C166.405 128.408 171.229 144.003 176.606 142.387C181.982 140.77 179.051 130.214 179.051 130.214Z" fill="white"/>
</mask>
<g mask="url(#mask0_31_1964)">
<path opacity="0.3" d="M179.051 130.214C177.024 126.866 167.286 126.921 166.405 128.408C166.405 128.408 171.229 144.003 176.606 142.387C181.982 140.77 179.051 130.214 179.051 130.214Z" fill="black" fill-opacity="0.7"/>
</g>
<path d="M179.051 130.214C177.024 126.866 167.286 126.921 166.405 128.408C166.405 128.408 171.229 144.003 176.606 142.387C181.982 140.77 179.051 130.214 179.051 130.214Z" stroke="#263238" stroke-miterlimit="10" stroke-linecap="round" stroke-linejoin="round"/>
<path d="M167.434 138.149C167.434 138.149 166.403 139.325 166.403 141.092C166.403 142.546 169.178 171.599 177.743 181.713C179.537 183.836 181.588 185.123 183.923 185.151C191.172 185.229 194.682 179.479 199.296 166.139C199.87 164.478 200.466 162.695 201.085 160.789C205.571 147.02 211.082 118.301 211.082 118.301C211.082 118.301 201.303 120.569 195.502 126.32C192.966 128.833 190.325 135.965 188.636 141.203C187.806 143.777 187.205 145.889 186.953 146.78C186.875 147.075 186.831 147.237 186.831 147.237C186.608 146.374 186.24 145.493 185.806 144.635C185.801 144.624 185.801 144.618 185.795 144.613C185.778 144.59 185.767 144.568 185.761 144.546C184.011 141.186 181.164 138.222 181.164 138.222L179.053 130.214C179.053 130.214 178.306 131.674 174.929 132.192C171.547 132.711 166.404 128.409 166.404 128.409L167.434 138.149Z" fill="#FF7E42"/>
<mask id="mask1_31_1964" style="mask-type:luminance" maskUnits="userSpaceOnUse" x="166" y="118" width="46" height="68">
<path d="M167.434 138.149C167.434 138.149 166.403 139.325 166.403 141.092C166.403 142.546 169.178 171.599 177.743 181.713C179.537 183.836 181.588 185.123 183.923 185.151C191.172 185.229 194.682 179.479 199.296 166.139C199.87 164.478 200.466 162.695 201.085 160.789C205.571 147.02 211.082 118.301 211.082 118.301C211.082 118.301 201.303 120.569 195.502 126.32C192.966 128.833 190.325 135.965 188.636 141.203C187.806 143.777 187.205 145.889 186.953 146.78C186.875 147.075 186.831 147.237 186.831 147.237C186.608 146.374 186.24 145.493 185.806 144.635C185.801 144.624 185.801 144.618 185.795 144.613C185.778 144.59 185.767 144.568 185.761 144.546C184.011 141.186 181.164 138.222 181.164 138.222L179.053 130.214C179.053 130.214 178.306 131.674 174.929 132.192C171.547 132.711 166.404 128.409 166.404 128.409L167.434 138.149Z" fill="white"/>
</mask>
<g mask="url(#mask1_31_1964)">
<path opacity="0.3" d="M177.743 181.713C179.537 183.836 181.588 185.123 183.923 185.151C191.172 185.229 194.682 179.479 199.296 166.139L199.196 135.135C199.196 135.135 193.746 136.194 188.636 141.203C187.806 143.778 187.205 145.89 186.953 146.781C188.993 151.027 192.548 160.789 188.469 171.193C185.823 177.941 181.493 180.682 177.743 181.713Z" fill="white" fill-opacity="0.7"/>
</g>
<path d="M167.434 138.149C167.434 138.149 166.403 139.325 166.403 141.092C166.403 142.546 169.178 171.599 177.743 181.713C179.537 183.836 181.588 185.123 183.923 185.151C191.172 185.229 194.682 179.479 199.296 166.139C199.87 164.478 200.466 162.695 201.085 160.789C205.571 147.02 211.082 118.301 211.082 118.301C211.082 118.301 201.303 120.569 195.502 126.32C192.966 128.833 190.325 135.965 188.636 141.203C187.806 143.777 187.205 145.889 186.953 146.78C186.875 147.075 186.831 147.237 186.831 147.237C186.608 146.374 186.24 145.493 185.806 144.635C185.801 144.624 185.801 144.618 185.795 144.613C185.778 144.59 185.767 144.568 185.761 144.546C184.011 141.186 181.164 138.222 181.164 138.222L179.053 130.214C179.053 130.214 178.306 131.674 174.929 132.192C171.547 132.711 166.404 128.409 166.404 128.409L167.434 138.149Z" stroke="white" stroke-miterlimit="10" stroke-linecap="round" stroke-linejoin="round"/>
<path d="M190.489 156.702C191.009 159.424 191.029 162.376 189.771 164.908" stroke="#263238" stroke-miterlimit="10" stroke-linecap="round" stroke-linejoin="round"/>
<path d="M186.832 147.237C188.263 149.653 189.378 152.314 190.104 155.025" stroke="#263238" stroke-miterlimit="10" stroke-linecap="round" stroke-linejoin="round"/>
<path d="M191.452 150.666C191.452 150.666 190.432 147.861 187.676 147.236" stroke="#263238" stroke-miterlimit="10" stroke-linecap="round" stroke-linejoin="round"/>
<path d="M177.379 140.416C178.043 140.059 178.662 139.618 179.226 139.117" stroke="#263238" stroke-miterlimit="10" stroke-linecap="round" stroke-linejoin="round"/>
<path d="M167.433 138.149C169.592 140.458 172.958 141.967 176.096 140.962" stroke="#263238" stroke-miterlimit="10" stroke-linecap="round" stroke-linejoin="round"/>
<path d="M185.756 144.552C185.756 144.552 185.768 144.574 185.795 144.613C185.779 144.591 185.768 144.569 185.762 144.547C185.756 144.547 185.756 144.552 185.756 144.552Z" fill="#FF7E42" stroke="#263238" stroke-miterlimit="10" stroke-linecap="round" stroke-linejoin="round"/>
<path d="M249.626 203.78C249.626 203.78 250.86 194.047 251.612 190.868C254.997 176.559 266.922 143.406 264.999 133.596C263.023 123.514 250.936 114.692 231.427 113.722C213.334 112.819 198.418 119.233 194.852 126.689C191.447 133.805 191.586 182.915 192.45 205.076C192.45 205.076 229.726 205.076 242.151 205.076C246.075 205.076 249.626 203.78 249.626 203.78Z" fill="#FF7E42"/>
<mask id="mask2_31_1964" style="mask-type:luminance" maskUnits="userSpaceOnUse" x="191" y="113" width="75" height="93">
<path d="M249.626 203.78C249.626 203.78 250.86 194.047 251.612 190.868C254.997 176.559 266.922 143.406 264.999 133.596C263.023 123.514 250.936 114.692 231.427 113.722C213.334 112.819 198.418 119.233 194.852 126.689C191.447 133.805 191.586 182.915 192.45 205.076C192.45 205.076 229.726 205.076 242.151 205.076C246.075 205.076 249.626 203.78 249.626 203.78Z" fill="white"/>
</mask>
<g mask="url(#mask2_31_1964)">
<path opacity="0.3" d="M245.741 144.618C236.37 157.464 226.153 176.689 226.153 176.689L198.242 141.904C198.242 141.904 204.634 186.086 208.12 190.868C211.607 195.651 211.452 197.848 211.452 197.848C211.452 197.848 220.298 207.375 226.934 206.081C232.562 204.985 252.802 182.397 259.116 156.212L245.741 144.618Z" fill="white" fill-opacity="0.7"/>
</g>
<path d="M249.626 203.78C249.626 203.78 250.86 194.047 251.612 190.868C254.997 176.559 266.922 143.406 264.999 133.596C263.023 123.514 250.936 114.692 231.427 113.722C213.334 112.819 198.418 119.233 194.852 126.689C191.447 133.805 191.586 182.915 192.45 205.076C192.45 205.076 229.726 205.076 242.151 205.076C246.075 205.076 249.626 203.78 249.626 203.78Z" stroke="#263238" stroke-miterlimit="10" stroke-linecap="round" stroke-linejoin="round"/>
<path d="M239.305 115.687C239.305 115.687 229.576 119.86 219.048 116.401C219.048 116.401 220.404 113.108 220.41 110.39C220.417 109.027 220.073 107.804 219.048 107.222C219.048 107.222 219.524 106.699 220.331 105.873C220.338 105.873 220.338 105.873 220.338 105.873C224.326 101.812 236.434 90.3978 240.376 97.2029C240.376 97.2029 236.249 97.593 239.305 115.687Z" fill="white" stroke="#263238" stroke-miterlimit="10" stroke-linecap="round" stroke-linejoin="round"/>
<path d="M228.307 103.082C228.307 103.082 226.706 108.948 220.41 110.39C220.417 109.027 220.073 107.804 219.048 107.222C219.048 107.222 219.524 106.7 220.331 105.873C220.338 105.873 220.338 105.873 220.338 105.873C224.193 104.359 228.307 103.082 228.307 103.082Z" fill="#263238"/>
<path d="M243.115 87.6262C247.293 70.9767 238.294 65.2781 232.623 63.0964C223.539 59.6013 212.076 63.5778 209.39 72.8271C206.704 82.0764 209.125 84.1827 208.999 87.9668C208.911 90.6207 207.152 91.9275 209.092 98.5877C210.372 102.982 212.75 108.021 215.522 108.183C223.025 108.619 230.129 104.346 229.734 102.34" fill="white"/>
<path d="M243.115 87.6262C247.293 70.9767 238.294 65.2781 232.623 63.0964C223.539 59.6013 212.076 63.5778 209.39 72.8271C206.704 82.0764 209.125 84.1827 208.999 87.9668C208.911 90.6207 207.152 91.9275 209.092 98.5877C210.372 102.982 212.75 108.021 215.522 108.183C223.025 108.619 230.129 104.346 229.734 102.34" stroke="#263238" stroke-miterlimit="10" stroke-linecap="round" stroke-linejoin="round"/>
<path d="M219.538 79.4682C219.538 79.4682 222.896 78.3075 224.691 81.9713" stroke="#263238" stroke-miterlimit="10" stroke-linecap="round" stroke-linejoin="round"/>
<path d="M208.12 78.9213C208.12 78.9213 210.618 76.8004 213.121 79.8008" stroke="#263238" stroke-miterlimit="10" stroke-linecap="round" stroke-linejoin="round"/>
<path d="M221.039 87.9192C221.499 87.9192 221.872 87.2918 221.872 86.5179C221.872 85.7439 221.499 85.1165 221.039 85.1165C220.579 85.1165 220.205 85.7439 220.205 86.5179C220.205 87.2918 220.579 87.9192 221.039 87.9192Z" fill="#263238"/>
<path d="M210.618 85.7514C210.618 86.5252 210.991 87.1528 211.452 87.1528C211.912 87.1528 212.285 86.5252 212.285 85.7514C212.285 84.9777 211.912 84.3501 211.452 84.3501C210.991 84.3501 210.618 84.9777 210.618 85.7514Z" fill="#263238"/>
<path d="M213.121 82.5433C213.121 82.5433 213.639 86.3982 213.408 87.1528C213.178 87.9073 210.569 90.2616 210.467 91.3079C210.364 92.3541 212.648 93.4109 212.648 93.4109" fill="white"/>
<path d="M213.121 82.5433C213.121 82.5433 213.639 86.3982 213.408 87.1528C213.178 87.9073 210.569 90.2616 210.467 91.3079C210.364 92.3541 212.648 93.4109 212.648 93.4109" stroke="#263238" stroke-miterlimit="10" stroke-linecap="round" stroke-linejoin="round"/>
<path d="M211.451 95.6243C211.451 95.6243 216.66 96.9324 221.039 95.6243C221.039 95.6243 218.975 102.085 214.898 101.427C212.197 100.992 212.885 96.7572 212.885 96.7572L211.451 95.6243Z" fill="#263238"/>
<path d="M225.813 70.1382C225.813 70.1382 223.659 68.6555 220.662 69.3532C217.665 70.0509 217.194 76.3527 217.194 76.3527C217.194 76.3527 215.593 74.9342 215.31 73.1902L214.369 75.8937L211.87 73.5394L211.034 76.3534L210.041 74.3244L208.118 78.0695C208.118 78.0695 205.229 74.3462 205.677 71.4682C206.898 63.6196 213.126 57.171 226.153 57.864C232.711 58.2126 235.158 62.7083 235.158 62.7083C235.158 62.7083 241.572 61.8406 244.417 65.1677C254.103 76.4969 248.028 88.7995 238.83 100.454L235.677 89.3457L232.624 88.9972C232.624 88.9972 232.738 87.3188 232.644 85.5742C232.549 83.8303 231.513 81.2776 231.513 81.2776L230.383 81.7848L230.853 79.6573L228.272 80.9813C228.272 80.9813 229.363 72.2307 228.272 70.748C227.178 69.2659 225.813 70.1382 225.813 70.1382Z" fill="#263238"/>
<path d="M233.757 90.5401C233.757 90.5401 236.81 84.8514 240.001 86.2388C243.192 87.6263 240.972 94.4247 238.197 96.6448C235.423 98.8648 233.757 96.6448 233.757 96.6448" fill="white"/>
<path d="M233.757 90.5401C233.757 90.5401 236.81 84.8514 240.001 86.2388C243.192 87.6263 240.972 94.4247 238.197 96.6448C235.423 98.8648 233.757 96.6448 233.757 96.6448" stroke="#263238" stroke-miterlimit="10" stroke-linecap="round" stroke-linejoin="round"/>
<g opacity="0.2">
<path d="M228.581 67.7971C228.581 67.7971 227.442 64.6075 223.707 64.3621C219.971 64.1168 217.286 68.1654 217.201 70.9866" stroke="white" stroke-miterlimit="10" stroke-linecap="round" stroke-linejoin="round"/>
<path d="M231.108 67.6688C231.108 67.6688 233.668 65.706 235.153 67.6688C237.664 70.9867 235.585 78.9973 235.585 78.9973" stroke="white" stroke-miterlimit="10" stroke-linecap="round" stroke-linejoin="round"/>
<path d="M234.592 65.3297C234.592 65.3297 237.256 63.6929 239.538 66.8494C241.82 70.0059 241.572 77.674 241.572 77.674" stroke="white" stroke-miterlimit="10" stroke-linecap="round" stroke-linejoin="round"/>
<path d="M242.139 64.9052C242.139 64.9052 246.751 66.8488 247.013 76.1391" stroke="white" stroke-miterlimit="10" stroke-linecap="round" stroke-linejoin="round"/>
<path d="M231.419 65.3297C231.419 65.3297 228.825 60.9279 221.144 62.4C213.463 63.8721 212.31 71.7233 212.31 71.7233" stroke="white" stroke-miterlimit="10" stroke-linecap="round" stroke-linejoin="round"/>
<path d="M233.33 63.9938C233.33 63.9938 230.237 59.7005 220.836 60.5589C211.434 61.4173 207.653 69.6369 208.608 73.5625" stroke="white" stroke-miterlimit="10" stroke-linecap="round" stroke-linejoin="round"/>
</g>
<path d="M156.286 119.045C156.286 119.045 167.469 110.437 172.343 109.566C177.217 108.694 193.988 112.357 193.988 112.357V132.218C193.988 132.218 183.495 133.369 178.786 136.816C174.077 140.263 157.856 140.816 157.856 140.816L156.286 119.045Z" fill="#757575" stroke="#263238" stroke-miterlimit="10" stroke-linecap="round" stroke-linejoin="round"/>
<path d="M166.782 112.892C166.782 112.892 167.038 110.363 167.433 108.967C167.829 107.572 170.531 107.721 171.142 108.213C171.752 108.705 172.342 109.565 172.342 109.565C172.342 109.565 171.404 109.839 171.142 109.926C170.881 110.013 170.619 115.072 166.782 112.892Z" fill="white" stroke="#263238" stroke-miterlimit="10" stroke-linecap="round" stroke-linejoin="round"/>
<path d="M181.057 82.5732L169.915 114.873L185.91 120.39L197.052 88.0908L181.057 82.5732Z" fill="#FF7E42"/>
<mask id="mask3_31_1964" style="mask-type:luminance" maskUnits="userSpaceOnUse" x="169" y="82" width="29" height="39">
<path d="M181.057 82.5732L169.915 114.873L185.91 120.39L197.052 88.0908L181.057 82.5732Z" fill="white"/>
</mask>
<g mask="url(#mask3_31_1964)">
<path opacity="0.5" d="M169.919 114.866L185.914 120.384L197.057 88.0832L181.062 82.5658L169.919 114.866ZM195.375 88.902L185.096 118.702L171.601 114.047L181.88 84.2469L195.375 88.902Z" fill="black" fill-opacity="0.7"/>
</g>
<mask id="mask4_31_1964" style="mask-type:luminance" maskUnits="userSpaceOnUse" x="169" y="82" width="29" height="39">
<path d="M181.057 82.5732L169.915 114.873L185.91 120.39L197.052 88.0908L181.057 82.5732Z" fill="white"/>
</mask>
<g mask="url(#mask4_31_1964)">
<path opacity="0.5" d="M183.437 86.7712L182.061 90.7603C181.907 91.2067 181.42 91.4441 180.974 91.29C180.527 91.1359 180.29 90.6492 180.444 90.2028L181.82 86.2137C181.974 85.7673 182.461 85.5299 182.907 85.6839C183.354 85.838 183.591 86.3248 183.437 86.7712Z" fill="black" fill-opacity="0.7"/>
</g>
<mask id="mask5_31_1964" style="mask-type:luminance" maskUnits="userSpaceOnUse" x="169" y="82" width="29" height="39">
<path d="M181.057 82.5732L169.915 114.873L185.91 120.39L197.052 88.0908L181.057 82.5732Z" fill="white"/>
</mask>
<g mask="url(#mask5_31_1964)">
<path opacity="0.5" d="M186.532 112.747L185.156 116.736C185.002 117.182 184.515 117.42 184.069 117.266C183.622 117.111 183.386 116.625 183.539 116.178L184.915 112.189C185.069 111.743 185.556 111.505 186.002 111.659C186.449 111.813 186.686 112.3 186.532 112.747Z" fill="black" fill-opacity="0.7"/>
</g>
<mask id="mask6_31_1964" style="mask-type:luminance" maskUnits="userSpaceOnUse" x="169" y="82" width="29" height="39">
<path d="M181.057 82.5732L169.915 114.873L185.91 120.39L197.052 88.0908L181.057 82.5732Z" fill="white"/>
</mask>
<g mask="url(#mask6_31_1964)">
<path opacity="0.5" d="M178.477 99.7457C177.522 102.513 178.992 105.53 181.759 106.485C184.527 107.44 187.544 105.97 188.499 103.203C189.454 100.435 187.984 97.4185 185.217 96.4635C182.45 95.5086 179.432 96.9787 178.477 99.7457ZM186.273 102.044L186.668 102.181L186.428 102.878L186.032 102.742C185.697 103.312 185.117 103.459 184.38 103.204L184.008 103.076L184.286 102.27L184.713 102.417C185.1 102.55 185.299 102.428 185.393 102.157C185.487 101.886 185.406 101.667 185.018 101.533C184.63 101.4 184.298 101.459 183.65 101.877C182.859 102.385 182.342 102.476 181.722 102.261C180.993 102.01 180.632 101.547 180.706 100.905L180.302 100.766L180.543 100.068L180.947 100.207C181.279 99.6452 181.851 99.4957 182.588 99.7497L182.759 99.8085L182.48 100.615L182.255 100.537C181.868 100.404 181.667 100.508 181.574 100.779C181.48 101.05 181.574 101.257 181.962 101.39C182.349 101.524 182.674 101.462 183.329 101.047C184.128 100.541 184.637 100.448 185.258 100.662C185.994 100.916 186.357 101.397 186.273 102.044Z" fill="white" fill-opacity="0.7"/>
</g>
<path d="M181.057 82.5732L169.915 114.873L185.91 120.39L197.052 88.0908L181.057 82.5732Z" stroke="#263238" stroke-width="0.999967" stroke-miterlimit="10" stroke-linecap="round" stroke-linejoin="round"/>
<path d="M182.139 64.1448L173.362 31.1242L157.01 35.471L165.788 68.4915L182.139 64.1448Z" fill="#FF7E42"/>
<mask id="mask7_31_1964" style="mask-type:luminance" maskUnits="userSpaceOnUse" x="157" y="31" width="26" height="38">
<path d="M182.139 64.1448L173.362 31.1242L157.01 35.471L165.788 68.4915L182.139 64.1448Z" fill="white"/>
</mask>
<g mask="url(#mask7_31_1964)">
<path opacity="0.5" d="M173.35 31.1299L156.997 35.4762L165.774 68.4981L182.126 64.1519L173.35 31.1299ZM166.712 66.8805L158.615 36.4146L172.411 32.7482L180.507 63.2141L166.712 66.8805Z" fill="black" fill-opacity="0.7"/>
</g>
<mask id="mask8_31_1964" style="mask-type:luminance" maskUnits="userSpaceOnUse" x="157" y="31" width="26" height="38">
<path d="M182.139 64.1448L173.362 31.1242L157.01 35.471L165.788 68.4915L182.139 64.1448Z" fill="white"/>
</mask>
<g mask="url(#mask8_31_1964)">
<path opacity="0.5" d="M177.809 61.9873L176.725 57.909C176.604 57.4526 176.875 56.9844 177.332 56.8627C177.788 56.7417 178.256 57.0129 178.378 57.4698L179.462 61.5482C179.583 62.0045 179.312 62.4728 178.855 62.5944C178.398 62.7155 177.93 62.4437 177.809 61.9873Z" fill="black" fill-opacity="0.7"/>
</g>
<mask id="mask9_31_1964" style="mask-type:luminance" maskUnits="userSpaceOnUse" x="157" y="31" width="26" height="38">
<path d="M182.139 64.1448L173.362 31.1242L157.01 35.471L165.788 68.4915L182.139 64.1448Z" fill="white"/>
</mask>
<g mask="url(#mask9_31_1964)">
<path opacity="0.5" d="M160.746 42.1582L159.663 38.0798C159.541 37.6235 159.813 37.1553 160.27 37.0336C160.726 36.9119 161.194 37.1837 161.316 37.6401L162.4 41.7184C162.521 42.1748 162.25 42.643 161.793 42.7647C161.336 42.8863 160.868 42.6152 160.746 42.1582Z" fill="black" fill-opacity="0.7"/>
</g>
<mask id="mask10_31_1964" style="mask-type:luminance" maskUnits="userSpaceOnUse" x="157" y="31" width="26" height="38">
<path d="M182.139 64.1448L173.362 31.1242L157.01 35.471L165.788 68.4915L182.139 64.1448Z" fill="white"/>
</mask>
<g mask="url(#mask10_31_1964)">
<path opacity="0.5" d="M174.684 48.4527C173.933 45.6235 171.029 43.9392 168.2 44.6911C165.371 45.443 163.687 48.3462 164.439 51.1754C165.19 54.0045 168.094 55.6889 170.923 54.9363C173.753 54.1851 175.436 51.2818 174.684 48.4527ZM166.933 50.895L166.529 51.0021L166.339 50.2885L166.743 50.1807C166.704 49.5207 167.103 49.0757 167.856 48.8753L168.237 48.7741L168.455 49.5981L168.02 49.7138C167.624 49.819 167.527 50.0313 167.601 50.309C167.674 50.5861 167.864 50.723 168.26 50.6172C168.657 50.5121 168.9 50.2773 169.203 49.569C169.576 48.706 169.955 48.3423 170.59 48.1736C171.335 47.9759 171.892 48.1584 172.189 48.7324L172.601 48.6227L172.791 49.3362L172.379 49.446C172.417 50.0981 172.025 50.5412 171.272 50.7415L171.097 50.7878L170.879 49.9638L171.109 49.903C171.505 49.7978 171.613 49.5988 171.54 49.3217C171.466 49.0446 171.273 48.9255 170.877 49.0313C170.481 49.1365 170.246 49.3693 169.934 50.0795C169.553 50.9446 169.182 51.3063 168.548 51.4749C167.794 51.676 167.225 51.4796 166.933 50.895Z" fill="white" fill-opacity="0.7"/>
</g>
<path d="M182.139 64.1448L173.362 31.1242L157.01 35.471L165.788 68.4915L182.139 64.1448Z" stroke="#263238" stroke-width="0.999963" stroke-miterlimit="10" stroke-linecap="round" stroke-linejoin="round"/>
<path d="M156.286 119.044C156.286 119.044 172.507 113.577 176.868 112.792C181.228 112.007 193.988 112.356 193.988 112.356V132.218C193.988 132.218 180.667 136.26 178.612 137.877C176.557 139.494 157.856 140.816 157.856 140.816L156.286 119.044Z" fill="#999999" stroke="#263238" stroke-miterlimit="10" stroke-linecap="round" stroke-linejoin="round"/>
<path d="M178.422 121.409C177.567 126.008 178.181 132.172 175.137 135.902" stroke="#263238" stroke-miterlimit="10" stroke-linecap="round" stroke-linejoin="round"/>
<path d="M179.834 114.449C179.504 115.95 179.192 117.455 178.893 118.962" stroke="#263238" stroke-miterlimit="10" stroke-linecap="round" stroke-linejoin="round"/>
<path d="M195.979 48.5539C195.979 50.5604 194.352 52.1872 192.346 52.1872C190.339 52.1872 188.713 50.5604 188.713 48.5539C188.713 46.5474 190.339 44.9206 192.346 44.9206C194.352 44.9199 195.979 46.5468 195.979 48.5539Z" fill="#BFBFBF" stroke="#263238" stroke-miterlimit="10" stroke-linecap="round" stroke-linejoin="round"/>
<path opacity="0.5" d="M194.375 50.817C195.625 49.696 195.729 47.7742 194.609 46.5243C193.488 45.2744 191.566 45.1699 190.316 46.2902C189.066 47.4112 188.962 49.333 190.082 50.5829C191.203 51.8328 193.125 51.9379 194.375 50.817ZM191.109 47.4918L190.949 47.3133L191.265 47.0309L191.425 47.2095C191.751 47.0177 192.083 47.1056 192.382 47.4383L192.532 47.6062L192.168 47.9329L191.995 47.7405C191.839 47.5652 191.705 47.5712 191.582 47.6816C191.46 47.7914 191.439 47.9237 191.596 48.0989C191.753 48.2742 191.936 48.337 192.377 48.3079C192.915 48.2742 193.2 48.3727 193.45 48.6531C193.745 48.9825 193.797 49.3151 193.581 49.616L193.745 49.7979L193.429 50.0803L193.266 49.8984C192.942 50.0875 192.614 50.0029 192.315 49.6702L192.247 49.5929L192.611 49.2662L192.702 49.368C192.859 49.5433 192.989 49.5466 193.112 49.4368C193.234 49.327 193.245 49.1974 193.088 49.0228C192.931 48.8482 192.751 48.788 192.307 48.8138C191.766 48.8443 191.484 48.749 191.233 48.4686C190.934 48.1353 190.886 47.7927 191.109 47.4918Z" fill="black" fill-opacity="0.7"/>
<path d="M178.77 19.8432C178.77 21.8496 177.143 23.4765 175.137 23.4765C173.13 23.4765 171.504 21.8496 171.504 19.8432C171.504 17.8367 173.13 16.2098 175.137 16.2098C177.143 16.2098 178.77 17.8367 178.77 19.8432Z" fill="#BFBFBF" stroke="#263238" stroke-miterlimit="10" stroke-linecap="round" stroke-linejoin="round"/>
<path opacity="0.5" d="M177.166 22.1062C178.416 20.9853 178.52 19.0635 177.4 17.8136C176.279 16.5637 174.357 16.4592 173.107 17.5795C171.857 18.7004 171.753 20.6222 172.873 21.8721C173.994 23.1227 175.916 23.2272 177.166 22.1062ZM173.9 18.7811L173.74 18.6025L174.056 18.3201L174.216 18.4987C174.542 18.3069 174.874 18.3949 175.173 18.7275L175.323 18.8955L174.959 19.2222L174.786 19.0297C174.63 18.8545 174.496 18.8604 174.373 18.9709C174.251 19.0807 174.23 19.2129 174.387 19.3882C174.544 19.5634 174.727 19.6263 175.168 19.5972C175.706 19.5634 175.991 19.662 176.242 19.9424C176.537 20.2717 176.589 20.6044 176.373 20.9053L176.536 21.0871L176.221 21.3695L176.057 21.1876C175.734 21.3768 175.405 21.2921 175.107 20.9595L175.038 20.8828L175.403 20.5561L175.494 20.6579C175.651 20.8332 175.781 20.8365 175.903 20.7267C176.026 20.6169 176.036 20.4873 175.88 20.3121C175.723 20.1368 175.543 20.0773 175.098 20.1031C174.557 20.1335 174.276 20.0383 174.024 19.7579C173.726 19.4246 173.677 19.082 173.9 18.7811Z" fill="black" fill-opacity="0.7"/>
<path d="M161.902 90.0467C159.953 89.5679 158.762 87.5998 159.241 85.6508C159.719 83.7019 161.687 82.5109 163.636 82.9897C165.585 83.4685 166.776 85.4366 166.298 87.3848C165.819 89.3338 163.851 90.5255 161.902 90.0467Z" fill="#BFBFBF" stroke="#263238" stroke-miterlimit="10" stroke-linecap="round" stroke-linejoin="round"/>
<path opacity="0.5" d="M160.088 87.949C160.878 89.4304 162.719 89.9905 164.201 89.2002C165.682 88.4099 166.242 86.5688 165.452 85.0875C164.661 83.6061 162.82 83.0459 161.339 83.8362C159.858 84.6265 159.297 86.4676 160.088 87.949ZM164.096 85.5709L164.308 85.4578L164.507 85.8314L164.295 85.9445C164.404 86.3076 164.239 86.6092 163.845 86.8195L163.646 86.9259L163.416 86.4941L163.644 86.3724C163.851 86.262 163.877 86.1304 163.8 85.9855C163.722 85.84 163.599 85.7891 163.391 85.8996C163.183 86.01 163.078 86.1727 163.002 86.6085C162.906 87.1389 162.742 87.3915 162.41 87.5687C162.02 87.7771 161.685 87.748 161.444 87.4662L161.229 87.5813L161.029 87.2077L161.245 87.0926C161.139 86.7335 161.299 86.4346 161.693 86.2243L161.785 86.1753L162.015 86.6072L161.894 86.6713C161.687 86.7818 161.652 86.9068 161.73 87.0522C161.807 87.1977 161.93 87.2387 162.138 87.1276C162.346 87.0172 162.446 86.8565 162.527 86.4187C162.627 85.8857 162.787 85.6357 163.119 85.4585C163.513 85.2475 163.857 85.2825 164.096 85.5709Z" fill="black" fill-opacity="0.7"/>
<path d="M205.466 122.339C204.54 120.661 201.895 121.47 198.809 126.319C195.723 131.169 194.463 136.824 195.209 138.884C195.955 140.944 205.937 143.44 205.937 143.44L207.994 138.223L205.466 122.339Z" fill="#FF7E42"/>
<mask id="mask11_31_1964" style="mask-type:luminance" maskUnits="userSpaceOnUse" x="194" y="121" width="14" height="23">
<path d="M205.466 122.339C204.54 120.661 201.895 121.47 198.809 126.319C195.723 131.169 194.463 136.824 195.209 138.884C195.955 140.944 205.937 143.44 205.937 143.44L207.994 138.223L205.466 122.339Z" fill="white"/>
</mask>
<g mask="url(#mask11_31_1964)">
<path opacity="0.5" d="M205.466 122.339C204.54 120.661 201.895 121.47 198.809 126.319C195.723 131.169 194.463 136.824 195.209 138.884C195.955 140.944 205.937 143.44 205.937 143.44L207.994 138.223L205.466 122.339Z" fill="white" fill-opacity="0.7"/>
</g>
<path d="M205.466 122.339C204.54 120.661 201.895 121.47 198.809 126.319C195.723 131.169 194.463 136.824 195.209 138.884C195.955 140.944 205.937 143.44 205.937 143.44L207.994 138.223L205.466 122.339Z" stroke="#263238" stroke-miterlimit="10" stroke-linecap="round" stroke-linejoin="round"/>
<path d="M209.688 132.491L203.961 119.962C203.961 119.962 200.231 114.622 199.495 112.587C198.761 110.551 190.554 108.967 188.7 108.967C186.847 108.967 184.886 112.279 184.886 112.279L188.742 112.281C188.742 112.281 190.179 113.793 190.361 114.698C190.542 115.602 185.264 120.101 184.509 120.529C183.755 120.956 181.765 121.619 179.669 123.172C177.573 124.726 172.847 125.937 171.968 127.33C171.088 128.722 171.71 128.986 172.341 129.306C172.973 129.627 174.028 129.702 174.028 129.702C174.028 129.702 173.652 131.286 174.028 132.115C174.405 132.944 176.602 132.869 176.602 132.869C176.602 132.869 176.706 134.02 177.779 134.198C178.853 134.377 179.668 134.699 179.668 134.699C179.668 134.699 184.207 135.467 186.242 135.035C188.278 134.603 194.455 131.313 195.967 131.45C197.477 131.587 201.653 141.278 201.653 141.278C201.653 141.278 208.783 140.071 209.688 132.491Z" fill="white" stroke="#263238" stroke-miterlimit="10" stroke-linecap="round" stroke-linejoin="round"/>
<path d="M174.03 129.702C174.03 129.702 179.957 128.421 180.349 127.968C180.74 127.516 184.887 126.227 184.887 126.227" stroke="#263238" stroke-miterlimit="10" stroke-linecap="round" stroke-linejoin="round"/>
<path d="M176.604 132.869C176.604 132.869 179.932 132.191 181.09 132.04C182.248 131.889 186.998 129.703 186.998 129.703" stroke="#263238" stroke-miterlimit="10" stroke-linecap="round" stroke-linejoin="round"/>
<path d="M179.67 134.699C179.67 134.699 184.36 134.302 185.34 133.85C186.32 133.397 189.185 132.493 189.185 132.493" stroke="#263238" stroke-miterlimit="10" stroke-linecap="round" stroke-linejoin="round"/>
<path d="M248.955 126.97C241.997 131.555 237.794 142.632 237.794 142.632L226.933 162.834C226.933 162.834 217.8 140.348 215.212 140.06L205.466 122.339C205.466 122.339 206.619 132.725 202.556 137.133C198.494 141.542 195.208 138.884 195.208 138.884L198.242 147.261L198.997 151.241C198.997 151.241 211.809 189.677 215.997 192.055C220.185 194.435 229.715 195.502 237.794 189.585C245.873 183.668 259.697 161.293 261.006 153.973" fill="#FF7E42"/>
<path d="M248.955 126.97C241.997 131.555 237.794 142.632 237.794 142.632L226.933 162.834C226.933 162.834 217.8 140.348 215.212 140.06L205.466 122.339C205.466 122.339 206.619 132.725 202.556 137.133C198.494 141.542 195.208 138.884 195.208 138.884L198.242 147.261L198.997 151.241C198.997 151.241 211.809 189.677 215.997 192.055C220.185 194.435 229.715 195.502 237.794 189.585C245.873 183.668 259.697 161.293 261.006 153.973" stroke="#263238" stroke-miterlimit="10" stroke-linecap="round" stroke-linejoin="round"/>
<path d="M211.291 142.719C211.643 142.193 211.967 141.648 212.264 141.089" stroke="#263238" stroke-miterlimit="10" stroke-linecap="round" stroke-linejoin="round"/>
<path d="M203.081 147.972C205.87 147.676 208.466 146.219 210.266 144.084" stroke="#263238" stroke-miterlimit="10" stroke-linecap="round" stroke-linejoin="round"/>
<path d="M198.242 147.261C199.323 147.717 200.481 147.975 201.654 148.02" stroke="#263238" stroke-miterlimit="10" stroke-linecap="round" stroke-linejoin="round"/>
<path d="M229.782 171.742C229.827 172.665 229.769 173.596 229.56 174.498" stroke="#263238" stroke-miterlimit="10" stroke-linecap="round" stroke-linejoin="round"/>
<path d="M226.933 162.834C228.207 165.056 229.166 167.55 229.597 170.076" stroke="#263238" stroke-miterlimit="10" stroke-linecap="round" stroke-linejoin="round"/>
<path d="M232.94 166.452C232.94 166.452 230.965 163.978 228.713 162.834" stroke="#263238" stroke-miterlimit="10" stroke-linecap="round" stroke-linejoin="round"/>
<path d="M250.109 137.131C250.109 137.131 243.999 136.314 239.149 141.904" stroke="#263238" stroke-miterlimit="10" stroke-linecap="round" stroke-linejoin="round"/>
<path d="M256.572 154.222C255.4 154.387 254.203 154.207 253.147 153.666" stroke="#263238" stroke-miterlimit="10" stroke-linecap="round" stroke-linejoin="round"/>
<path d="M263.909 146.028C262.948 150.666 260.359 153.019 258.103 153.837" stroke="#263238" stroke-miterlimit="10" stroke-linecap="round" stroke-linejoin="round"/>
<path d="M235.1 119.666C235.1 119.666 224.955 122.024 219.303 118.244" stroke="#263238" stroke-miterlimit="10" stroke-linecap="round" stroke-linejoin="round"/>
<path d="M198.719 181.743C198.719 181.743 204.246 197.35 217.032 199.995" stroke="#263238" stroke-miterlimit="10" stroke-linecap="round" stroke-linejoin="round"/>
<path d="M235.669 203.375C235.011 203.871 234.322 204.326 233.621 204.758" stroke="#263238" stroke-miterlimit="10" stroke-linecap="round" stroke-linejoin="round"/>
<path d="M165.127 14.3608V28.0813" stroke="#263238" stroke-miterlimit="10" stroke-linecap="round" stroke-linejoin="round"/>
<path d="M165.127 6.1286V11.6169" stroke="#263238" stroke-miterlimit="10" stroke-linecap="round" stroke-linejoin="round"/>
<path d="M165.127 1V3.93562" stroke="#263238" stroke-miterlimit="10" stroke-linecap="round" stroke-linejoin="round"/>
<path d="M162.536 26.4775L165.127 29.685L167.719 26.4775" stroke="#263238" stroke-miterlimit="10" stroke-linecap="round" stroke-linejoin="round"/>
<path d="M171.986 83.0651V96.7862" stroke="#263238" stroke-miterlimit="10" stroke-linecap="round" stroke-linejoin="round"/>
<path d="M171.986 74.8329V80.3213" stroke="#263238" stroke-miterlimit="10" stroke-linecap="round" stroke-linejoin="round"/>
<path d="M171.986 69.7043V72.64" stroke="#263238" stroke-miterlimit="10" stroke-linecap="round" stroke-linejoin="round"/>
<path d="M169.395 95.1818L171.986 98.3899L174.577 95.1818" stroke="#263238" stroke-miterlimit="10" stroke-linecap="round" stroke-linejoin="round"/>
<path d="M185.54 41.7733V55.4938" stroke="#263238" stroke-miterlimit="10" stroke-linecap="round" stroke-linejoin="round"/>
<path d="M185.54 33.5405V39.0288" stroke="#263238" stroke-miterlimit="10" stroke-linecap="round" stroke-linejoin="round"/>
<path d="M185.54 28.4119V31.3475" stroke="#263238" stroke-miterlimit="10" stroke-linecap="round" stroke-linejoin="round"/>
<path d="M182.948 53.8901L185.54 57.0976L188.131 53.8901" stroke="#263238" stroke-miterlimit="10" stroke-linecap="round" stroke-linejoin="round"/>
<path d="M66.1294 192.926C65.9138 201.539 70.1773 200.843 70.1773 200.843C70.4412 200.132 71.0503 199.151 71.7837 198.013C74.015 194.58 77.4321 189.767 76.1498 186.916C75.5678 185.622 74.4792 183.817 73.2988 182C71.0132 178.497 68.3884 174.956 68.3884 174.956L79.7718 173.069C79.7718 173.069 87.8783 176.422 94.276 176.81C94.4433 176.82 94.61 176.826 94.772 176.826C100.615 176.939 99.6711 172.358 99.6711 170.881C99.6711 170.25 98.0918 169.097 96.2434 167.96C93.6081 166.343 90.4119 164.753 90.4119 164.753L92.1419 161.169C93.3435 161.384 94.3408 161.427 95.1655 161.331C99.5957 160.846 98.9866 156.485 98.2697 154.583C98.0647 154.039 97.0463 153.214 95.6072 152.265C91.0527 149.262 82.3318 145.08 82.3318 145.08H69.5418L56.9568 179.435C56.9555 179.435 66.3397 184.313 66.1294 192.926Z" fill="white"/>
<path opacity="0.4" d="M66.1294 192.926C65.9138 201.539 70.1773 200.843 70.1773 200.843C70.4412 200.132 71.0503 199.151 71.7837 198.013C74.015 194.58 77.4321 189.767 76.1498 186.916C75.5678 185.622 74.4792 183.817 73.2988 182C71.0132 178.497 68.3884 174.956 68.3884 174.956L79.7718 173.069C79.7718 173.069 87.8783 176.422 94.276 176.81C94.4433 176.82 94.61 176.826 94.772 176.826C100.615 176.939 99.6711 172.358 99.6711 170.881C99.6711 170.25 98.0918 169.097 96.2434 167.96C93.6081 166.343 90.4119 164.753 90.4119 164.753L92.1419 161.169C93.3435 161.384 94.3408 161.427 95.1655 161.331C99.5957 160.846 98.9866 156.485 98.2697 154.583C98.0647 154.039 97.0463 153.214 95.6072 152.265C91.0527 149.262 82.3318 145.08 82.3318 145.08H69.5418L56.9568 179.435C56.9555 179.435 66.3397 184.313 66.1294 192.926Z" fill="#FF7E42"/>
<path opacity="0.4" d="M66.1294 192.926C65.9138 201.539 70.1773 200.843 70.1773 200.843C70.4412 200.132 71.0503 199.151 71.7837 198.013C71.6329 197.216 71.5357 196.353 71.5522 195.507C71.6064 192.559 74.0262 186.916 74.0262 186.916L71.5522 183.003C71.9133 182.631 72.533 182.296 73.2988 182C71.0132 178.497 68.3884 174.956 68.3884 174.956L79.7718 173.069C79.7718 173.069 87.8783 176.422 94.276 176.81C94.4433 176.82 94.61 176.826 94.772 176.826C94.4003 173.619 95.6668 169.576 96.2434 167.959C93.6081 166.342 90.4119 164.753 90.4119 164.753L92.1419 161.168C93.3435 161.384 94.3408 161.427 95.1655 161.33C94.5835 158.533 95.1384 154.652 95.6072 152.265C91.0527 149.262 82.3318 145.08 82.3318 145.08H69.5418L56.9568 179.435C56.9555 179.435 66.3397 184.313 66.1294 192.926Z" fill="#FF7E42"/>
<path d="M69.5387 145.08H82.332C82.332 145.08 97.4162 152.318 98.2686 154.581C99.1217 156.844 99.8161 162.55 92.1401 161.171L90.4107 164.753C90.4107 164.753 99.6699 169.356 99.6699 170.88C99.6699 172.404 100.669 177.193 94.2729 176.809C87.8759 176.424 79.774 173.068 79.774 173.068L68.39 174.954C68.39 174.954 74.4437 183.121 76.1493 186.916C77.8548 190.71 71.2449 197.976 70.1788 200.846C70.1788 200.846 65.9146 201.538 66.1276 192.926C66.3405 184.313 56.959 179.435 56.959 179.435" stroke="#263238" stroke-miterlimit="10" stroke-linecap="round" stroke-linejoin="round"/>
<path d="M72.5713 185.379C72.5713 185.379 69.3653 183.584 67.6194 186.916" stroke="#263238" stroke-miterlimit="10" stroke-linecap="round" stroke-linejoin="round"/>
<path d="M111.755 188.878H48.3708C44.9881 188.878 42.2456 186.136 42.2456 182.753V63.9205C42.2456 60.5378 44.9881 57.7953 48.3708 57.7953H111.755C115.137 57.7953 117.88 60.5378 117.88 63.9205V182.753C117.88 186.136 115.138 188.878 111.755 188.878Z" fill="#FF7E42" stroke="#263238" stroke-miterlimit="10" stroke-linecap="round" stroke-linejoin="round"/>
<path d="M115.536 63.113V183.899C115.536 185.408 114.312 186.631 112.803 186.631H47.3226C45.8134 186.631 44.59 185.408 44.59 183.899V63.113C44.59 61.6039 45.8134 60.3804 47.3226 60.3804H61.8724C62.83 60.3804 63.6871 60.9756 64.021 61.873L64.6394 63.5336C64.9734 64.431 65.8304 65.0262 66.788 65.0262H93.3376C94.2952 65.0262 95.1522 64.431 95.4862 63.5336L96.1045 61.873C96.4385 60.9756 97.2956 60.3804 98.2532 60.3804H112.803C114.312 60.3804 115.536 61.6039 115.536 63.113Z" fill="#263238"/>
<path d="M89.6533 156.802H70.4716C66.88 156.802 63.9681 153.89 63.9681 150.298C63.9681 146.706 66.88 143.795 70.4716 143.795H89.6533C93.245 143.795 96.1568 146.706 96.1568 150.298C96.1568 153.89 93.245 156.802 89.6533 156.802Z" fill="#FF7E42" stroke="#263238" stroke-miterlimit="10" stroke-linecap="round" stroke-linejoin="round"/>
<path d="M73.8001 61.7421C73.8001 62.3664 73.2942 62.8723 72.6699 62.8723C72.0456 62.8723 71.5397 62.3664 71.5397 61.7421C71.5397 61.1179 72.0456 60.6119 72.6699 60.6119C73.2935 60.6119 73.8001 61.1179 73.8001 61.7421Z" fill="white" stroke="#263238" stroke-miterlimit="10" stroke-linecap="round" stroke-linejoin="round"/>
<path d="M88.5867 61.7421C88.5867 62.1336 88.2692 62.4504 87.8777 62.4504C87.4862 62.4504 87.1688 62.1329 87.1688 61.7421C87.1688 61.3506 87.4862 61.0331 87.8777 61.0331C88.2692 61.0331 88.5867 61.3506 88.5867 61.7421Z" fill="white" stroke="#263238" stroke-miterlimit="10" stroke-linecap="round" stroke-linejoin="round"/>
<path d="M84.5618 62.1415H76.0863C75.8654 62.1415 75.6862 61.9623 75.6862 61.7421C75.6862 61.5212 75.8654 61.342 76.0863 61.342H84.5618C84.7827 61.342 84.9613 61.5212 84.9613 61.7421C84.9613 61.963 84.7827 62.1415 84.5618 62.1415Z" fill="white" stroke="#263238" stroke-miterlimit="10" stroke-linecap="round" stroke-linejoin="round"/>
<path d="M103.776 137.151H56.3497C51.7892 137.151 48.0917 133.454 48.0917 128.893V80.1441C48.0917 75.5836 51.7892 71.8862 56.3497 71.8862H103.776C108.336 71.8862 112.034 75.5836 112.034 80.1441V128.893C112.034 133.454 108.337 137.151 103.776 137.151Z" fill="white" stroke="#263238" stroke-miterlimit="10" stroke-linecap="round" stroke-linejoin="round"/>
<path d="M73.6103 99.4997V89.6903" stroke="#263238" stroke-miterlimit="10" stroke-linecap="round" stroke-linejoin="round"/>
<path d="M73.6103 105.386V101.461" stroke="#263238" stroke-miterlimit="10" stroke-linecap="round" stroke-linejoin="round"/>
<path d="M73.6103 109.052V106.953" stroke="#263238" stroke-miterlimit="10" stroke-linecap="round" stroke-linejoin="round"/>
<path d="M75.4633 90.8364L73.6103 88.5436L71.7579 90.8364" stroke="#263238" stroke-miterlimit="10" stroke-linecap="round" stroke-linejoin="round"/>
<path d="M86.5154 95.8619V86.0524" stroke="#263238" stroke-miterlimit="10" stroke-linecap="round" stroke-linejoin="round"/>
<path d="M86.5154 101.748V97.8239" stroke="#263238" stroke-miterlimit="10" stroke-linecap="round" stroke-linejoin="round"/>
<path d="M86.5154 105.414V103.316" stroke="#263238" stroke-miterlimit="10" stroke-linecap="round" stroke-linejoin="round"/>
<path d="M88.3677 87.1991L86.5154 84.9063L84.663 87.1991" stroke="#263238" stroke-miterlimit="10" stroke-linecap="round" stroke-linejoin="round"/>
<path d="M79.7685 89.2743V79.4649" stroke="#263238" stroke-miterlimit="10" stroke-linecap="round" stroke-linejoin="round"/>
<path d="M79.7685 95.1601V91.2365" stroke="#263238" stroke-miterlimit="10" stroke-linecap="round" stroke-linejoin="round"/>
<path d="M79.7685 98.8265V96.7281" stroke="#263238" stroke-miterlimit="10" stroke-linecap="round" stroke-linejoin="round"/>
<path d="M81.6209 80.6117L79.7685 78.3182L77.9162 80.6117" stroke="#263238" stroke-miterlimit="10" stroke-linecap="round" stroke-linejoin="round"/>
<path d="M90.047 105.383C91.3401 99.8665 87.9161 94.3461 82.3994 93.053C76.8826 91.7599 71.3622 95.1839 70.0692 100.701C68.7761 106.217 72.2001 111.738 77.7168 113.031C83.2335 114.324 88.754 110.9 90.047 105.383Z" fill="#FF7E42" stroke="#263238" stroke-miterlimit="10" stroke-linecap="round" stroke-linejoin="round"/>
<path d="M79.3479 97.5958V96.7705H80.7764V97.5958C82.0144 97.8498 82.6493 98.8021 82.6493 100.31V100.659H80.9986V100.199C80.9986 99.4052 80.6812 99.1037 80.1257 99.1037C79.5701 99.1037 79.2527 99.4052 79.2527 100.199C79.2527 100.992 79.5701 101.548 80.7447 102.484C82.1731 103.627 82.6651 104.5 82.6651 105.77C82.6651 107.278 82.0144 108.246 80.7764 108.5V109.309H79.3479V108.5C78.0941 108.246 77.4592 107.278 77.4592 105.77V105.008H79.1105V105.881C79.1105 106.675 79.4597 106.96 80.0152 106.96C80.5707 106.96 80.9199 106.675 80.9199 105.881C80.9199 105.087 80.6025 104.516 79.428 103.595C77.9995 102.468 77.5075 101.58 77.5075 100.309C77.5068 98.818 78.1258 97.865 79.3479 97.5958Z" fill="white"/>
<path d="M72.068 119.612V119.298H72.6103V119.612C73.0805 119.708 73.3213 120.07 73.3213 120.642V120.775H72.695V120.601C72.695 120.299 72.5746 120.185 72.3637 120.185C72.1527 120.185 72.0317 120.3 72.0317 120.601C72.0317 120.902 72.1527 121.112 72.5984 121.468C73.1407 121.902 73.3272 122.233 73.3272 122.716C73.3272 123.288 73.0805 123.655 72.6103 123.752V124.059H72.068V123.752C71.5925 123.656 71.3512 123.288 71.3512 122.716V122.427H71.9781V122.758C71.9781 123.059 72.1104 123.167 72.3213 123.167C72.5323 123.167 72.6646 123.059 72.6646 122.758C72.6646 122.457 72.5442 122.239 72.0985 121.89C71.5562 121.463 71.3697 121.125 71.3697 120.643C71.369 120.076 71.6045 119.714 72.068 119.612Z" fill="#263238"/>
<path d="M74.1843 120.1C74.6962 120.1 74.8106 119.853 74.9131 119.57H75.3588V123.787H74.6962V120.57H74.1843V120.1Z" fill="#263238"/>
<path d="M76.1081 120.581C76.1081 119.907 76.4639 119.521 77.114 119.521C77.764 119.521 78.1198 119.906 78.1198 120.581V122.774C78.1198 123.449 77.764 123.834 77.114 123.834C76.4639 123.834 76.1081 123.449 76.1081 122.774V120.581ZM76.7707 122.817C76.7707 123.118 76.903 123.233 77.114 123.233C77.3249 123.233 77.4572 123.118 77.4572 122.817V120.54C77.4572 120.238 77.3249 120.124 77.114 120.124C76.903 120.124 76.7707 120.239 76.7707 120.54V122.817Z" fill="#263238"/>
<path d="M78.4955 120.581C78.4955 119.907 78.8513 119.521 79.5014 119.521C80.1521 119.521 80.5072 119.906 80.5072 120.581V122.774C80.5072 123.449 80.1514 123.834 79.5014 123.834C78.8506 123.834 78.4955 123.449 78.4955 122.774V120.581ZM79.1581 122.817C79.1581 123.118 79.2904 123.233 79.5014 123.233C79.7123 123.233 79.8446 123.118 79.8446 122.817V120.54C79.8446 120.238 79.7123 120.124 79.5014 120.124C79.2904 120.124 79.1581 120.239 79.1581 120.54V122.817Z" fill="#263238"/>
<path d="M80.8828 120.581C80.8828 119.907 81.2386 119.521 81.8887 119.521C82.5388 119.521 82.8946 119.906 82.8946 120.581V122.774C82.8946 123.449 82.5388 123.834 81.8887 123.834C81.2386 123.834 80.8828 123.449 80.8828 122.774V120.581ZM81.5461 122.817C81.5461 123.118 81.6784 123.233 81.8894 123.233C82.1003 123.233 82.2326 123.118 82.2326 122.817V120.54C82.2326 120.238 82.1003 120.124 81.8894 120.124C81.6784 120.124 81.5461 120.239 81.5461 120.54V122.817Z" fill="#263238"/>
<path d="M83.9633 123.148V123.787H83.3245V123.148H83.9633Z" fill="#263238"/>
<path d="M84.3912 120.581C84.3912 119.907 84.747 119.521 85.3971 119.521C86.0471 119.521 86.4029 119.906 86.4029 120.581V122.774C86.4029 123.449 86.0471 123.834 85.3971 123.834C84.747 123.834 84.3912 123.449 84.3912 122.774V120.581ZM85.0545 122.817C85.0545 123.118 85.1867 123.233 85.3977 123.233C85.6087 123.233 85.7409 123.118 85.7409 122.817V120.54C85.7409 120.238 85.6087 120.124 85.3977 120.124C85.1867 120.124 85.0545 120.239 85.0545 120.54V122.817Z" fill="#263238"/>
<path d="M86.7792 120.581C86.7792 119.907 87.135 119.521 87.7851 119.521C88.4359 119.521 88.791 119.906 88.791 120.581V122.774C88.791 123.449 88.4352 123.834 87.7851 123.834C87.1344 123.834 86.7792 123.449 86.7792 122.774V120.581ZM87.4419 122.817C87.4419 123.118 87.5741 123.233 87.7851 123.233C87.9961 123.233 88.1283 123.118 88.1283 122.817V120.54C88.1283 120.238 87.9961 120.124 87.7851 120.124C87.5741 120.124 87.4419 120.239 87.4419 120.54V122.817Z" fill="#263238"/>
<path d="M68.4209 127.689H69.0835V131.906H68.4209V127.689Z" fill="#263238"/>
<path d="M69.5663 127.689H70.6145C71.2771 127.689 71.6025 128.057 71.6025 128.732V130.864C71.6025 131.54 71.2771 131.907 70.6145 131.907H69.5663V127.689ZM70.2289 128.291V131.303H70.6026C70.8135 131.303 70.9399 131.195 70.9399 130.894V128.701C70.9399 128.4 70.8135 128.291 70.6026 128.291H70.2289Z" fill="#263238"/>
<path d="M72.6044 131.267V131.906H71.9655V131.267H72.6044Z" fill="#263238"/>
<path d="M74.0567 128.243C73.8457 128.243 73.7135 128.357 73.7135 128.658V129.11H73.0865V128.7C73.0865 128.026 73.4238 127.64 74.0745 127.64C74.7253 127.64 75.0625 128.025 75.0625 128.7C75.0625 129.261 74.8575 129.712 74.2432 130.369C73.8517 130.791 73.7432 130.989 73.7432 131.212C73.7432 131.242 73.7432 131.272 73.7492 131.302H75.0024V131.905H73.0865V131.387C73.0865 130.917 73.2552 130.561 73.7492 130.043C74.2557 129.507 74.3999 129.175 74.3999 128.724C74.3999 128.345 74.2676 128.243 74.0567 128.243Z" fill="#263238"/>
<path d="M75.8846 128.219C76.3964 128.219 76.5108 127.972 76.6133 127.689H77.0591V131.906H76.3964V128.689H75.8846V128.219Z" fill="#263238"/>
<path d="M78.8135 131.954C78.1449 131.954 77.7773 131.569 77.7773 130.894V130.563C77.7773 130.159 77.8976 129.852 78.1873 129.689V129.677C77.9102 129.527 77.7773 129.249 77.7773 128.833V128.701C77.7773 128.027 78.1449 127.64 78.8135 127.64C79.4821 127.64 79.8498 128.026 79.8498 128.701V128.833C79.8498 129.249 79.711 129.527 79.4398 129.677V129.689C79.7295 129.852 79.8498 130.159 79.8498 130.563V130.894C79.8498 131.569 79.4821 131.954 78.8135 131.954ZM78.4399 128.96C78.4399 129.297 78.5966 129.406 78.8135 129.406C79.0245 129.406 79.1872 129.297 79.1872 128.96V128.725C79.1872 128.345 79.0245 128.243 78.8135 128.243C78.6026 128.243 78.4399 128.345 78.4399 128.725V128.96ZM78.8135 131.352C79.0245 131.352 79.1812 131.249 79.1872 130.876V130.484C79.1872 130.153 79.049 130.008 78.8135 130.008C78.5788 130.008 78.4399 130.153 78.4399 130.484V130.876C78.4399 131.249 78.6026 131.352 78.8135 131.352Z" fill="#263238"/>
<path d="M80.6593 128.219C81.1712 128.219 81.2856 127.972 81.3881 127.689H81.8338V131.906H81.1712V128.689H80.6593V128.219Z" fill="#263238"/>
<path d="M84.5823 130.858C84.5823 131.569 84.2569 131.954 83.5705 131.954C82.9197 131.954 82.5825 131.569 82.5825 130.894V130.786H83.2094V130.936C83.2094 131.238 83.3417 131.352 83.5526 131.352C83.7874 131.352 83.9203 131.238 83.9203 130.834V130.069H83.9084C83.794 130.31 83.6009 130.437 83.306 130.437C82.8179 130.437 82.5712 130.093 82.5712 129.472V128.701C82.5712 128.027 82.927 127.64 83.5771 127.64C84.2272 127.64 84.583 128.026 84.583 128.701V130.858H84.5823ZM83.9197 129.418V128.659C83.9197 128.357 83.7874 128.25 83.5764 128.25C83.3655 128.25 83.2326 128.358 83.2326 128.659V129.418C83.2326 129.72 83.3655 129.833 83.5764 129.833C83.7874 129.833 83.9197 129.719 83.9197 129.418Z" fill="#263238"/>
<path d="M85.6206 130.544V130.936C85.6206 131.237 85.7535 131.346 85.9645 131.346C86.1754 131.346 86.3077 131.237 86.3077 130.936V130.008C86.3077 129.706 86.1754 129.593 85.9645 129.593C85.7535 129.593 85.6206 129.707 85.6206 130.008V130.134H84.9943L85.1147 127.689H86.8619V128.291H85.7052L85.651 129.297H85.6636C85.7839 129.098 85.9704 128.99 86.2356 128.99C86.7237 128.99 86.9703 129.333 86.9703 129.953V130.893C86.9703 131.567 86.6331 131.953 85.9823 131.953C85.3316 131.953 84.9943 131.567 84.9943 130.893V130.544L85.6206 130.544Z" fill="#263238"/>
<path d="M87.3698 128.737C87.3698 128.026 87.6951 127.64 88.3816 127.64C89.0323 127.64 89.3696 128.026 89.3696 128.701V128.81H88.7427V128.659C88.7427 128.357 88.6104 128.244 88.3995 128.244C88.1647 128.244 88.0318 128.358 88.0318 128.761V129.527H88.0437C88.1581 129.286 88.3512 129.159 88.6461 129.159C89.1342 129.159 89.3809 129.502 89.3809 130.122V130.893C89.3809 131.568 89.0251 131.954 88.375 131.954C87.7249 131.954 87.3691 131.568 87.3691 130.893L87.3698 128.737ZM88.0324 130.177V130.936C88.0324 131.238 88.1647 131.347 88.3756 131.347C88.5866 131.347 88.7195 131.238 88.7195 130.936V130.177C88.7195 129.876 88.5866 129.761 88.3756 129.761C88.1647 129.761 88.0324 129.876 88.0324 130.177Z" fill="#263238"/>
<path d="M91.7444 127.689V128.267L90.769 131.906H90.1063L91.0758 128.291H89.7565V127.689L91.7444 127.689Z" fill="#263238"/>
<path d="M79.2229 124.844H79.9987V125.073H79.7368V126.441H79.4855V125.073H79.2236V124.844H79.2229Z" fill="#263238"/>
<path d="M80.088 125.228C80.088 124.973 80.2229 124.826 80.4689 124.826C80.7149 124.826 80.8498 124.973 80.8498 125.228V126.058C80.8498 126.313 80.7149 126.459 80.4689 126.459C80.2229 126.459 80.088 126.313 80.088 126.058V125.228ZM80.3392 126.074C80.3392 126.187 80.3888 126.231 80.4689 126.231C80.5489 126.231 80.5985 126.188 80.5985 126.074V125.211C80.5985 125.098 80.5489 125.054 80.4689 125.054C80.3888 125.054 80.3392 125.097 80.3392 125.211V126.074Z" fill="#263238"/>
<path d="M74.7517 146.811C75.6988 146.811 76.1855 147.377 76.1855 148.368V148.563H75.2649V148.306C75.2649 147.864 75.0877 147.696 74.7782 147.696C74.468 147.696 74.2915 147.864 74.2915 148.306C74.2915 148.758 74.4859 149.094 75.1234 149.651C75.9375 150.368 76.1947 150.881 76.1947 151.59C76.1947 152.581 75.6994 153.147 74.7431 153.147C73.7875 153.147 73.2915 152.581 73.2915 151.59V151.209H74.2121V151.652C74.2121 152.094 74.4072 152.253 74.7167 152.253C75.0262 152.253 75.2213 152.094 75.2213 151.652C75.2213 151.2 75.0269 150.864 74.3893 150.307C73.5752 149.59 73.3186 149.076 73.3186 148.368C73.318 147.378 73.8047 146.811 74.7517 146.811Z" fill="white"/>
<path d="M77.7237 149.493H79.0596V150.378H77.7237V152.192H79.4048V153.077H76.7496V146.882H79.4048V147.767H77.7237V149.493Z" fill="white"/>
<path d="M80.8908 148.59H80.8729V153.076H79.9967V146.882H81.2181L82.2002 150.59H82.2181V146.882H83.0851V153.076H82.0851L80.8908 148.59Z" fill="white"/>
<path d="M83.7827 146.882H85.323C86.2964 146.882 86.7746 147.422 86.7746 148.413V151.545C86.7746 152.537 86.2964 153.076 85.323 153.076H83.7827V146.882ZM84.7562 147.767V152.191H85.3051C85.6146 152.191 85.8011 152.032 85.8011 151.59V148.368C85.8011 147.926 85.6153 147.767 85.3051 147.767H84.7562Z" fill="white"/>
<path d="M36.4888 134.431C36.4888 134.431 40.753 135.749 42.2456 139.455" stroke="#263238" stroke-miterlimit="10" stroke-linecap="round" stroke-linejoin="round"/>
<path d="M17.1649 251.905C17.6411 243.665 17.9539 235.248 18.3652 228.472C19.2183 214.421 19.8578 204.996 21.1368 195.4C22.4165 185.805 22.2029 171.312 22.8424 166.249C23.4819 161.186 25.3885 160.116 26.8937 154.103C28.3988 148.089 29.7519 136.115 32.2239 134.431C34.696 132.747 42.2457 129.586 42.2457 129.586V163.506C46.7235 170.39 52.0538 172.093 52.0538 172.093C55.4655 162.219 55.039 158.3 58.4508 154.675C61.8625 151.05 64.32 146.312 69.6767 148.292C72.2275 149.234 73.5898 150.198 72.3101 158.844C71.0305 167.491 68.4725 170.209 68.4725 170.209C68.0459 173.162 68.6854 181.754 69.7515 186.149C70.8175 190.544 66.7663 202.223 64.8471 209.686C62.9279 217.149 52.6933 232.271 52.6933 232.271C52.6933 232.271 52.2667 240.603 53.1198 249.345C53.1979 250.147 53.2964 251.007 53.4101 251.903L54.0867 275.126L17.1649 274.429V251.905Z" fill="white"/>
<path opacity="0.4" d="M71.5516 150.837C71.3465 150.098 71.3789 149.614 71.5516 149.301C71.0503 148.837 70.4141 148.562 69.676 148.293C64.3186 146.31 61.8612 151.053 58.4487 154.675C58.1306 155.014 57.8449 155.354 57.5916 155.704C60.68 154.541 64.728 154.562 66.3555 156.82C68.4036 159.649 72.5753 154.535 71.5516 150.837Z" fill="#FF7E42"/>
<path opacity="0.4" d="M48.4131 243.585L46.7261 249.907C46.7261 249.907 49.1029 247.578 52.6549 241.93C52.4823 236.416 52.6926 232.271 52.6926 232.271C52.6926 232.271 62.9279 217.147 64.8464 209.688C66.7649 202.223 70.8182 190.543 69.7514 186.15C68.6841 181.752 68.0485 173.161 68.4738 170.207C68.4738 170.207 69.0075 169.636 69.7131 168.186C69.2495 167.739 68.7105 167.372 68.1067 167.238C68.1067 167.238 65.3688 173.722 66.0315 182.254C66.6941 190.78 65.2339 191.492 62.4094 202.579C59.5849 213.666 54.8961 226.219 52.6913 228.472C50.4877 230.724 49.5341 240.868 48.4131 243.585Z" fill="#FF7E42"/>
<path opacity="0.4" d="M44.3758 168.887C44.3758 168.887 41.0123 169.41 39.6599 170.208C39.6599 170.208 46.2248 171.922 46.6507 173.749C47.0766 175.571 48.4833 177.474 50.9784 175.243C50.9784 175.243 51.108 173.846 51.3666 171.82C49.7821 171.114 45.7559 168.899 42.247 163.509V129.586C42.247 129.586 38.5171 131.149 35.4399 132.658C37.7195 132.959 40.0533 133.66 40.9647 135.202C40.9647 135.202 40.2749 138.042 37.127 139.454C34.7019 140.543 37.127 158.847 37.127 158.847C37.127 158.847 33.1491 159.828 31.8721 163.509C31.8721 163.509 38.41 164.178 41.1101 166.252C43.8103 168.322 44.3758 168.887 44.3758 168.887Z" fill="#FF7E42"/>
<path opacity="0.4" d="M18.3645 228.472C18.0306 233.959 17.766 240.523 17.4268 247.201C18.2673 234.508 20.8167 212.723 20.8167 212.723C20.8167 212.723 23.0963 220.781 23.2689 219.924C23.7755 217.401 22.2016 203.145 22.3418 198.068C22.4066 195.767 22.2392 189.865 22.0342 184.109C21.8511 188.065 21.5872 192.032 21.1342 195.4C19.8578 204.993 19.2163 214.421 18.3645 228.472Z" fill="#FF7E42"/>
<path d="M17.1649 276V251.905C17.6411 243.665 17.9539 235.248 18.3652 228.472C19.2183 214.421 19.8578 204.996 21.1368 195.4C22.4165 185.805 22.2029 171.312 22.8424 166.249C23.4819 161.186 25.3885 160.116 26.8937 154.103C28.3988 148.089 29.7519 136.115 32.2239 134.431C34.696 132.747 42.2457 129.586 42.2457 129.586V163.506C46.7235 170.39 52.0538 172.093 52.0538 172.093C55.4655 162.219 55.039 158.3 58.4508 154.675C61.8625 151.05 64.32 146.312 69.6767 148.292C72.2275 149.234 73.5898 150.198 72.3101 158.844C71.0305 167.491 68.4725 170.209 68.4725 170.209C68.0459 173.162 68.6854 181.754 69.7515 186.149C70.8175 190.544 66.7663 202.223 64.8471 209.686C62.9279 217.149 52.6933 232.271 52.6933 232.271C52.6933 232.271 52.2667 240.603 53.1198 249.345C53.1979 250.147 53.2964 251.007 53.4101 251.903C53.4101 251.903 53.754 266.897 55.3882 275.999" stroke="#263238" stroke-miterlimit="10" stroke-linecap="round" stroke-linejoin="round"/>
<path d="M52.0537 172.093C52.0537 172.093 50.9877 176.85 48.8556 177.916C46.7235 178.982 43.6556 177.916 43.6556 177.916" stroke="#263238" stroke-miterlimit="10" stroke-linecap="round" stroke-linejoin="round"/>
<path d="M42.2456 163.506C42.2456 163.506 40.1135 158.767 33.2906 162.877" stroke="#263238" stroke-miterlimit="10" stroke-linecap="round" stroke-linejoin="round"/>
<path d="M42.2456 144.357C42.2456 144.357 41.8191 141.843 38.3008 141.204" stroke="#263238" stroke-miterlimit="10" stroke-linecap="round" stroke-linejoin="round"/>
<path d="M52.6939 232.272C48.6426 237.405 49.4131 242.31 47.855 244.868C46.2969 247.427 46.5105 256.595 46.5105 256.595" stroke="#263238" stroke-miterlimit="10" stroke-linecap="round" stroke-linejoin="round"/>
<path d="M23.2689 183.002C23.2689 183.002 23.2689 193.072 23.2689 200.846C23.2689 208.621 24.7615 216.084 24.7615 216.084" stroke="#263238" stroke-miterlimit="10" stroke-linecap="round" stroke-linejoin="round"/>
<path d="M68.4725 170.208C68.4725 170.208 68.4725 167.162 67.6194 166.249" stroke="#263238" stroke-miterlimit="10" stroke-linecap="round" stroke-linejoin="round"/>
<path d="M66.1267 160.63C66.1267 160.63 64.238 154.271 58.6941 157.043" stroke="#263238" stroke-miterlimit="10" stroke-linecap="round" stroke-linejoin="round"/>
<path d="M49.0427 170.523C44.926 170.611 40.753 168.786 38.3008 171.006" stroke="#263238" stroke-miterlimit="10" stroke-linecap="round" stroke-linejoin="round"/>
<path d="M16.5664 269.024H15.4547V243.733H16.5664C17.2886 243.733 17.8745 244.319 17.8745 245.041V267.716C17.8745 268.438 17.2892 269.024 16.5664 269.024Z" fill="#263238"/>
<path d="M15.4554 247.01C15.4554 247.01 35.0035 241.9 53.7653 247.724C54.3611 247.91 54.7639 248.469 54.7639 249.093V261.092C54.7639 261.54 54.3611 261.88 53.9193 261.801C49.8925 261.075 32.1809 258.277 16.4229 261.96L15.4554 247.01Z" fill="#263238"/>
<path d="M16.3052 246.785V244.082C16.3052 243.191 15.583 242.469 14.6915 242.469H12.4999C11.947 242.469 11.4378 242.77 11.172 243.256L9.24091 246.785V267.454L11.1488 269.778C11.4365 270.129 11.8657 270.332 12.3187 270.332H14.6915C15.5823 270.332 16.3052 269.61 16.3052 268.719V246.785Z" fill="#FF7E42" stroke="#263238" stroke-miterlimit="10" stroke-linecap="round" stroke-linejoin="round"/>
<path d="M14.9184 245.453L19.381 244.623C19.9101 244.524 20.3988 244.93 20.3988 245.469V248.045L18.9214 249.14V257.512H20.3988V261.879C20.3988 262.383 20.045 262.817 19.5516 262.92L15.3139 263.797C14.6783 263.929 14.0818 263.443 14.0818 262.794V246.459C14.0812 245.967 14.433 245.543 14.9184 245.453Z" fill="#FF7E42" stroke="#263238" stroke-miterlimit="10" stroke-linecap="round" stroke-linejoin="round"/>
<path d="M15.0837 262.657L18.719 261.826C18.9902 261.764 19.1826 261.523 19.1826 261.245V258.515" stroke="#263238" stroke-miterlimit="10" stroke-linecap="round" stroke-linejoin="round"/>
<path d="M17.6999 257.381V248.421L19.1608 247.309V245.63" stroke="#263238" stroke-miterlimit="10" stroke-linecap="round" stroke-linejoin="round"/>
<path d="M11.7916 244.104V268.042" stroke="#263238" stroke-miterlimit="10" stroke-linecap="round" stroke-linejoin="round"/>
<path d="M29.4516 253.448C29.0905 253.448 28.7976 253.155 28.7976 252.794V251.364C28.7976 251.003 29.0905 250.71 29.4516 250.71C29.8127 250.71 30.1057 251.003 30.1057 251.364V252.794C30.1057 253.155 29.8127 253.448 29.4516 253.448Z" fill="white"/>
<path d="M39.5236 253.714C39.1625 253.714 38.8696 253.421 38.8696 253.06V251.63C38.8696 251.269 39.1625 250.976 39.5236 250.976C39.8847 250.976 40.1777 251.269 40.1777 251.63V253.06C40.1777 253.422 39.8854 253.714 39.5236 253.714Z" fill="white"/>
<path d="M48.4846 254.817C48.1235 254.817 47.8305 254.524 47.8305 254.163V252.733C47.8305 252.372 48.1235 252.079 48.4846 252.079C48.8456 252.079 49.1386 252.372 49.1386 252.733V254.163C49.1386 254.525 48.8456 254.817 48.4846 254.817Z" fill="white"/>
</g>
</svg>
