<svg width="354" height="273" viewBox="0 0 354 273" fill="none" xmlns="http://www.w3.org/2000/svg">
<g opacity="0.95">
<path d="M347.972 165.416C346.672 100.149 305.404 49.3517 264.127 22.0747C241.481 7.10938 215.361 -3.53695 189.847 1.09481C176.449 3.52713 164.56 12.4065 152.89 20.9151C140.424 30.0038 127.628 36.44 114.358 42.9252C95.46 52.1603 76.3865 61.0179 58.21 72.6043C43.6729 81.8708 28.9265 92.9255 18.6102 109.795C0.802219 138.915 -0.293635 186.883 12.9643 219.317C20.2653 237.179 33.3562 248.446 47.3124 255.64C73.1618 268.964 101.347 273.108 128.912 272.998C153.814 272.898 177.275 265.357 201.816 261.57C214.005 259.689 226.191 260.312 238.23 263.509C273.506 272.877 318.403 259.293 338.19 216.093C345.416 200.318 348.321 182.915 347.972 165.416Z" fill="#FF7E42"/>
<path opacity="0.9" d="M347.972 165.416C346.672 100.149 305.404 49.3517 264.127 22.0747C241.481 7.10938 215.361 -3.53695 189.847 1.09481C176.449 3.52713 164.56 12.4065 152.89 20.9151C140.424 30.0038 127.628 36.44 114.358 42.9252C95.46 52.1603 76.3865 61.0179 58.21 72.6043C43.6729 81.8708 28.9265 92.9255 18.6102 109.795C0.802219 138.915 -0.293635 186.883 12.9643 219.317C20.2653 237.179 33.3562 248.446 47.3124 255.64C73.1618 268.964 101.347 273.108 128.912 272.998C153.814 272.898 177.275 265.357 201.816 261.57C214.005 259.689 226.191 260.312 238.23 263.509C273.506 272.877 318.403 259.293 338.19 216.093C345.416 200.318 348.321 182.915 347.972 165.416Z" fill="white"/>
<path d="M304.42 110.442V108.143C302.72 108.077 301.45 107.533 300.608 106.511C299.767 105.49 299.313 103.965 299.247 101.939L302.737 101.345C302.769 102.169 302.856 102.857 302.997 103.409C303.137 103.962 303.347 104.374 303.628 104.645C303.908 104.917 304.271 105.053 304.717 105.053C305.228 105.053 305.578 104.888 305.769 104.559C305.958 104.229 306.053 103.85 306.053 103.422C306.053 102.581 305.859 101.877 305.472 101.308C305.084 100.739 304.552 100.167 303.875 99.5902L301.771 97.7855C301.293 97.3406 300.864 96.8875 300.485 96.4258C300.105 95.9647 299.804 95.4371 299.581 94.8436C299.358 94.2507 299.247 93.5503 299.247 92.7425C299.247 91.1938 299.688 89.9863 300.571 89.1212C301.454 88.2562 302.638 87.7658 304.122 87.6503V85.4503H305.31V87.6503C306.201 87.7 306.931 87.9019 307.501 88.2562C308.07 88.6109 308.503 89.0554 308.8 89.591C309.097 90.1267 309.311 90.7121 309.443 91.346C309.575 91.9805 309.658 92.594 309.691 93.1874L306.151 93.7064C306.135 93.0967 306.086 92.5573 306.003 92.0875C305.92 91.6177 305.772 91.2515 305.557 90.9875C305.343 90.724 305.013 90.6003 304.567 90.6165C304.106 90.6332 303.755 90.8141 303.516 91.1603C303.276 91.5064 303.157 91.8936 303.157 92.3218C303.157 93.08 303.338 93.6902 303.701 94.1508C304.064 94.6125 304.476 95.0575 304.939 95.4857L306.993 97.2655C307.537 97.7596 308.041 98.2958 308.502 98.8726C308.964 99.4493 309.336 100.088 309.616 100.788C309.896 101.489 310.037 102.292 310.037 103.198C310.037 104.072 309.859 104.867 309.505 105.583C309.15 106.3 308.639 106.881 307.97 107.326C307.302 107.771 306.514 108.034 305.607 108.117V110.44H304.42V110.442Z" stroke="#263238" stroke-miterlimit="10"/>
<path d="M307.615 116.498C317.868 114.818 324.816 105.155 323.134 94.9156C321.452 84.6759 311.776 77.7368 301.524 79.4168C291.271 81.0968 284.323 90.7597 286.005 100.999C287.687 111.239 297.362 118.178 307.615 116.498Z" stroke="#263238" stroke-miterlimit="10"/>
<path d="M319.066 104.285C322.57 96.2942 318.925 86.9794 310.924 83.4796C302.923 79.9798 293.597 83.6202 290.093 91.6108C286.588 99.6014 290.233 108.916 298.234 112.416C306.235 115.916 315.561 112.275 319.066 104.285Z" stroke="#263238" stroke-miterlimit="10"/>
<path d="M72.0113 64.7386V62.9085C70.6585 62.8562 69.6474 62.4236 68.9775 61.6098C68.3076 60.7966 67.9459 59.5832 67.894 57.9702L70.6715 57.4977C70.6974 58.1538 70.7666 58.7014 70.8786 59.1404C70.9899 59.58 71.1576 59.9077 71.3809 60.1243C71.6042 60.3408 71.8929 60.4488 72.2476 60.4488C72.6547 60.4488 72.9337 60.3181 73.0851 60.0552C73.2359 59.7927 73.3116 59.4914 73.3116 59.1501C73.3116 58.4811 73.157 57.9206 72.8488 57.468C72.5401 57.0155 72.1162 56.5603 71.5782 56.1007L69.9037 54.6643C69.5225 54.3101 69.1813 53.9494 68.8791 53.5822C68.5769 53.215 68.3373 52.7954 68.16 52.3229C67.9827 51.8509 67.894 51.2931 67.894 50.6505C67.894 49.4177 68.2449 48.457 68.9478 47.768C69.6501 47.0795 70.5925 46.6891 71.7745 46.5973V44.8461H72.7201V46.5973C73.429 46.6367 74.0102 46.7971 74.4633 47.0795C74.9164 47.3619 75.2613 47.7156 75.4976 48.1417C75.7339 48.5683 75.9048 49.0338 76.0097 49.5387C76.1145 50.0436 76.1805 50.5323 76.207 51.0042L73.39 51.4173C73.3771 50.9324 73.3376 50.5026 73.2716 50.1289C73.2062 49.7552 73.0878 49.4636 72.9169 49.2535C72.7461 49.044 72.4833 48.9457 72.1292 48.9587C71.7615 48.9717 71.482 49.1158 71.2922 49.3912C71.1013 49.6666 71.0062 49.975 71.0062 50.3157C71.0062 50.9194 71.1505 51.4049 71.4398 51.7716C71.7285 52.1388 72.0567 52.493 72.4249 52.8337L74.0599 54.2502C74.4936 54.6438 74.8942 55.0699 75.2619 55.5289C75.6296 55.9879 75.9248 56.496 76.1481 57.0538C76.3714 57.6117 76.4827 58.251 76.4827 58.9719C76.4827 59.6674 76.3416 60.2998 76.0594 60.8706C75.7766 61.4408 75.37 61.9036 74.838 62.2573C74.306 62.6115 73.6788 62.821 72.9569 62.8869V64.7364H72.0113V64.7386Z" stroke="#263238" stroke-miterlimit="10"/>
<path d="M72.134 69.7487C80.4041 69.7487 87.1083 63.053 87.1083 54.7934C87.1083 46.5338 80.4041 39.8381 72.134 39.8381C63.864 39.8381 57.1598 46.5338 57.1598 54.7934C57.1598 63.053 63.864 69.7487 72.134 69.7487Z" stroke="#263238" stroke-miterlimit="10"/>
<path d="M72.1341 67.3657C79.0863 67.3657 84.7223 61.7369 84.7223 54.7934C84.7223 47.8499 79.0863 42.2211 72.1341 42.2211C65.1818 42.2211 59.5458 47.8499 59.5458 54.7934C59.5458 61.7369 65.1818 67.3657 72.1341 67.3657Z" stroke="#263238" stroke-miterlimit="10"/>
<path d="M15.8515 210.366V208.536C14.4987 208.484 13.4876 208.051 12.8177 207.238C12.1478 206.424 11.7866 205.211 11.7342 203.598L14.5117 203.126C14.5382 203.782 14.6068 204.33 14.7188 204.769C14.8302 205.208 14.9978 205.536 15.2211 205.753C15.4444 205.969 15.7331 206.077 16.0878 206.077C16.4949 206.077 16.7739 205.946 16.9253 205.683C17.0762 205.421 17.1518 205.12 17.1518 204.778C17.1518 204.109 16.9972 203.549 16.689 203.096C16.3803 202.644 15.9569 202.188 15.4184 201.729L13.7439 200.293C13.3627 199.938 13.0216 199.578 12.7193 199.21C12.4171 198.843 12.1776 198.424 12.0002 197.951C11.8229 197.479 11.7342 196.921 11.7342 196.279C11.7342 195.046 12.0856 194.085 12.788 193.397C13.4903 192.708 14.4327 192.318 15.6147 192.226V190.475H16.5603V192.226C17.2692 192.265 17.8504 192.426 18.3035 192.708C18.7566 192.991 19.1016 193.344 19.3378 193.77C19.5741 194.197 19.745 194.663 19.8499 195.167C19.9548 195.672 20.0207 196.161 20.0467 196.633L17.2297 197.046C17.2167 196.561 17.1773 196.131 17.1113 195.758C17.0459 195.384 16.9275 195.092 16.7566 194.882C16.5858 194.673 16.323 194.575 15.9688 194.588C15.6012 194.6 15.3216 194.745 15.1319 195.02C14.941 195.295 14.8464 195.604 14.8464 195.945C14.8464 196.548 14.9907 197.034 15.28 197.4C15.5687 197.768 15.8969 198.122 16.2651 198.463L17.9002 199.879C18.3338 200.273 18.7339 200.699 19.1021 201.158C19.4698 201.617 19.765 202.125 19.9883 202.683C20.2116 203.24 20.323 203.88 20.323 204.601C20.323 205.296 20.1818 205.929 19.8996 206.499C19.6174 207.07 19.2102 207.532 18.6782 207.887C18.1462 208.241 17.519 208.45 16.7972 208.516V210.366H15.8515Z" stroke="#263238" stroke-miterlimit="10"/>
<path d="M15.9743 215.376C24.2443 215.376 30.9485 208.68 30.9485 200.421C30.9485 192.161 24.2443 185.465 15.9743 185.465C7.7042 185.465 1 192.161 1 200.421C1 208.68 7.7042 215.376 15.9743 215.376Z" stroke="#263238" stroke-miterlimit="10"/>
<path d="M15.9743 212.993C22.9265 212.993 28.5625 207.364 28.5625 200.421C28.5625 193.477 22.9265 187.848 15.9743 187.848C9.02198 187.848 3.38605 193.477 3.38605 200.421C3.38605 207.364 9.02198 212.993 15.9743 212.993Z" stroke="#263238" stroke-miterlimit="10"/>
<path d="M182.13 33.2344L134.066 72.9343L202.887 156.045L250.951 116.345L182.13 33.2344Z" fill="#FF7E42" stroke="#263238" stroke-miterlimit="10"/>
<path d="M187.306 48.9599C184.103 51.6053 179.36 51.1566 176.711 47.9582C176.51 47.7152 176.332 47.4609 176.167 47.2011L148.57 69.9967C148.793 70.2078 149.01 70.4298 149.212 70.6727C151.861 73.8712 151.412 78.6086 148.209 81.2541C148.088 81.354 147.961 81.4409 147.835 81.5322L197.012 140.915C197.125 140.81 197.234 140.701 197.356 140.601C200.558 137.956 205.301 138.404 207.95 141.602C208.151 141.845 208.329 142.1 208.495 142.359L236.092 119.564C235.868 119.353 235.651 119.131 235.45 118.888C232.801 115.689 233.249 110.952 236.452 108.306C236.695 108.106 236.95 107.928 237.21 107.763L187.983 48.3178C187.771 48.5419 187.549 48.7585 187.306 48.9599ZM200.371 104.126C195.121 108.462 187.346 107.727 183.004 102.484C178.663 97.2413 179.398 89.4756 184.648 85.1394C189.897 80.8032 197.673 81.5381 202.015 86.781C206.356 92.0238 205.62 99.7896 200.371 104.126Z" fill="white" stroke="#263238" stroke-miterlimit="10"/>
<path d="M192.552 28.2978L139.841 61.5938L197.561 152.74L250.272 119.444L192.552 28.2978Z" fill="#FF7E42" stroke="#263238" stroke-miterlimit="10"/>
<path d="M195.703 44.5534C192.191 46.7718 187.543 45.7269 185.321 42.219C185.152 41.9523 185.008 41.6774 184.877 41.3993L154.61 60.5185C154.805 60.7561 154.992 61.0034 155.162 61.2702C157.383 64.7786 156.336 69.421 152.824 71.6393C152.691 71.723 152.554 71.7932 152.418 71.8677L193.663 136.997C193.789 136.906 193.91 136.812 194.043 136.728C197.556 134.509 202.204 135.555 204.426 139.063C204.594 139.329 204.738 139.604 204.869 139.882L235.136 120.763C234.941 120.525 234.754 120.278 234.585 120.011C232.363 116.504 233.41 111.861 236.922 109.642C237.189 109.474 237.465 109.33 237.743 109.199L196.456 44.0032C196.217 44.1981 195.97 44.385 195.703 44.5534ZM201.663 100.928C195.906 104.565 188.287 102.852 184.645 97.1019C181.004 91.352 182.719 83.7423 188.476 80.1054C194.234 76.4685 201.853 78.1819 205.494 83.9319C209.136 89.6818 207.42 97.2915 201.663 100.928Z" fill="white" stroke="#263238" stroke-miterlimit="10"/>
<path d="M209.917 27.3536L152.628 51.9846L195.326 151.047L252.616 126.416L209.917 27.3536Z" fill="#FF7E42" stroke="#263238" stroke-miterlimit="10"/>
<path d="M210.465 43.9028C206.648 45.5438 202.221 43.784 200.578 39.9716C200.453 39.6816 200.354 39.3878 200.268 39.0925L167.374 53.2356C167.53 53.5013 167.675 53.7745 167.801 54.0645C169.444 57.8769 167.682 62.2984 163.864 63.9395C163.72 64.0016 163.574 64.0491 163.428 64.1015L193.937 134.883C194.076 134.813 194.211 134.74 194.356 134.678C198.173 133.037 202.6 134.797 204.243 138.609C204.368 138.899 204.467 139.193 204.553 139.488L237.447 125.345C237.292 125.079 237.146 124.806 237.021 124.516C235.378 120.704 237.14 116.283 240.957 114.641C241.247 114.516 241.541 114.418 241.837 114.332L211.295 43.4773C211.029 43.6322 210.755 43.778 210.465 43.9028ZM207.501 100.514C201.244 103.204 193.988 100.319 191.294 94.0693C188.6 87.8199 191.489 80.5731 197.746 77.8828C204.004 75.1925 211.26 78.0778 213.953 84.3272C216.647 90.5766 213.758 97.8234 207.501 100.514Z" fill="white" stroke="#263238" stroke-miterlimit="10"/>
<path d="M236.25 31.1859L174.726 41.427L192.479 147.812L254.004 137.571L236.25 31.1859Z" fill="#FF7E42" stroke="#263238" stroke-miterlimit="10"/>
<path d="M232.817 47.3982C228.718 48.0802 224.841 45.3143 224.158 41.22C224.106 40.909 224.08 40.6001 224.068 40.2923L188.741 46.1713C188.829 46.4661 188.905 46.7669 188.957 47.0779C189.64 51.1722 186.871 55.0446 182.771 55.7266C182.616 55.7525 182.462 55.7638 182.308 55.7795L194.99 131.793C195.141 131.759 195.29 131.719 195.445 131.694C199.545 131.011 203.422 133.778 204.105 137.872C204.157 138.183 204.182 138.492 204.195 138.799L239.521 132.92C239.433 132.625 239.357 132.324 239.305 132.013C238.622 127.919 241.392 124.047 245.491 123.365C245.802 123.313 246.112 123.288 246.42 123.275L233.725 47.1822C233.429 47.2702 233.129 47.3463 232.817 47.3982ZM216.388 101.66C209.669 102.778 203.313 98.244 202.194 91.5324C201.074 84.8212 205.613 78.4741 212.334 77.3557C219.053 76.2374 225.408 80.7718 226.528 87.4829C227.648 94.1946 223.108 100.542 216.388 101.66Z" fill="white" stroke="#263238" stroke-miterlimit="10"/>
<path d="M266.492 44.5544L204.693 36.1448L190.114 143.005L251.913 151.414L266.492 44.5544Z" fill="#FF7E42" stroke="#263238" stroke-miterlimit="10"/>
<path d="M258.426 59.0125C254.308 58.452 251.425 54.6639 251.986 50.5512C252.028 50.2386 252.096 49.9362 252.174 49.6386L216.689 44.811C216.686 45.1188 216.669 45.4283 216.627 45.7409C216.065 49.8536 212.273 52.7334 208.155 52.1734C207.999 52.1523 207.849 52.1178 207.697 52.0875L197.282 128.444C197.437 128.455 197.591 128.462 197.746 128.483C201.864 129.043 204.748 132.832 204.187 136.945C204.144 137.257 204.077 137.56 203.998 137.857L239.484 142.685C239.487 142.377 239.504 142.068 239.546 141.755C240.107 137.642 243.9 134.763 248.018 135.323C248.331 135.365 248.634 135.432 248.932 135.511L259.357 59.0751C259.049 59.0714 258.739 59.0552 258.426 59.0125ZM226.651 105.986C219.902 105.067 215.175 98.858 216.095 92.1167C217.014 85.3753 223.232 80.6546 229.982 81.5726C236.731 82.4912 241.458 88.7006 240.539 95.442C239.619 102.183 233.401 106.904 226.651 105.986Z" fill="white" stroke="#263238" stroke-miterlimit="10"/>
<path d="M255.539 237.282H42.3218L12.4685 93.2366C12.0722 91.3239 13.3033 89.7736 15.2179 89.7736H221.501C223.416 89.7736 225.289 91.3239 225.686 93.2366L255.539 237.282Z" fill="#263238" stroke="#263238" stroke-miterlimit="10" stroke-linecap="round" stroke-linejoin="round"/>
<path d="M257.786 237.282H44.5679L14.7145 93.2366C14.3182 91.3239 15.5493 89.7736 17.4639 89.7736H223.747C225.662 89.7736 227.535 91.3239 227.932 93.2366L257.786 237.282Z" fill="#8A8A8A" stroke="#263238" stroke-miterlimit="10"/>
<path d="M250.921 231.824H49.1701L20.861 95.2313H222.612L250.921 231.824Z" fill="white" stroke="#263238" stroke-miterlimit="10"/>
<path d="M117.661 172.687L116.28 165.701C116.169 165.138 115.675 164.733 115.101 164.733H77.4533C76.6958 164.733 76.127 165.424 76.2735 166.166L77.6539 173.152C77.7653 173.714 78.2595 174.12 78.8337 174.12H116.481C117.238 174.12 117.807 173.429 117.661 172.687Z" fill="#FF7E42" stroke="#263238" stroke-miterlimit="10" stroke-linecap="round" stroke-linejoin="round"/>
<path d="M86.4 120.777L78.1627 126.755L78.4882 128.347H97.5684L97.2635 126.855L86.4 120.777ZM87.6723 126.654C86.6547 126.654 85.6615 125.83 85.4533 124.814C85.2451 123.797 85.9015 122.973 86.9191 122.973C87.9367 122.973 88.9299 123.797 89.1381 124.814C89.3462 125.83 88.6898 126.654 87.6723 126.654Z" fill="#263238"/>
<path d="M83.0748 129.554L82.9283 128.841H78.8051L78.951 129.554H79.7615L81.7918 139.477H80.9813L81.1278 140.191H85.2511L85.1051 139.477H84.2946L82.2644 129.554H83.0748Z" fill="#263238"/>
<path d="M90.3703 129.554L90.2243 128.841H86.1011L86.2471 129.554H87.0327L89.0629 139.477H88.2773L88.4233 140.191H92.5466L92.4006 139.477H91.6144L89.5842 129.554H90.3703Z" fill="#263238"/>
<path d="M97.6776 129.554L97.5316 128.841H93.4084L93.5544 129.554H94.3427L96.373 139.477H95.5846L95.7306 140.191H99.8544L99.7079 139.477H98.8753L96.845 129.554H97.6776Z" fill="#263238"/>
<path d="M101.432 142.313H80.3211L80.0021 140.756H101.114L101.432 142.313Z" fill="#263238"/>
<path d="M103.408 144.619H79.2895L78.9705 143.062H103.089L103.408 144.619Z" fill="#263238"/>
<path d="M195.818 126.148H176.431C175.325 126.148 174.252 125.253 174.034 124.148L172.326 115.501C172.108 114.397 172.827 113.502 173.933 113.502H193.32C194.426 113.502 195.499 114.397 195.717 115.501L197.425 124.148C197.644 125.253 196.924 126.148 195.818 126.148Z" fill="#FF7E42" stroke="#263238" stroke-miterlimit="10" stroke-linecap="round" stroke-linejoin="round"/>
<path d="M141.626 112.347L164.412 221.122" stroke="#263238" stroke-miterlimit="10"/>
<path d="M48.0271 114.865H67.5945L66.7629 110.656C66.5807 109.732 65.6826 108.983 64.7575 108.983H48.5397C47.6146 108.983 47.0128 109.732 47.1955 110.656L48.0271 114.865Z" fill="#FF7E42" stroke="#263238" stroke-miterlimit="10" stroke-linecap="round" stroke-linejoin="round"/>
<path d="M69.1576 114.865H88.725L87.8934 110.656C87.7107 109.732 86.8131 108.983 85.888 108.983H69.6702C68.7451 108.983 68.1433 109.732 68.326 110.656L69.1576 114.865Z" fill="#FF7E42" stroke="#263238" stroke-miterlimit="10" stroke-linecap="round" stroke-linejoin="round"/>
<path d="M90.2881 114.865H109.855L109.024 110.656C108.842 109.732 107.944 108.983 107.019 108.983H90.8012C89.8761 108.983 89.2743 109.732 89.4571 110.656L90.2881 114.865Z" fill="#FF7E42" stroke="#263238" stroke-miterlimit="10" stroke-linecap="round" stroke-linejoin="round"/>
<path d="M111.419 114.865H130.987L130.155 110.656C129.972 109.732 129.075 108.983 128.15 108.983H111.932C111.007 108.983 110.405 109.732 110.588 110.656L111.419 114.865Z" fill="#FF7E42" stroke="#263238" stroke-miterlimit="10" stroke-linecap="round" stroke-linejoin="round"/>
<path d="M28.5755 115.339H37.5974" stroke="#263238" stroke-miterlimit="10"/>
<path d="M28.1002 113.442H37.1226" stroke="#263238" stroke-miterlimit="10"/>
<path d="M27.6255 111.545H36.6479" stroke="#263238" stroke-miterlimit="10"/>
<path opacity="0.1" d="M224.669 105.153L222.612 95.2313H20.861L22.9172 105.153H224.669Z" fill="#263238" stroke="#263238" stroke-miterlimit="10"/>
<path d="M47.6157 224.325L49.1701 231.824H250.921L249.367 224.325H47.6157Z" fill="#FF7E42" stroke="#263238" stroke-miterlimit="10" stroke-linecap="round" stroke-linejoin="round"/>
<path d="M352.649 231.268H42.3467V237.282H352.649V231.268Z" fill="#263238" stroke="#263238" stroke-miterlimit="10" stroke-linecap="round" stroke-linejoin="round"/>
<path d="M62.0681 157.391C61.4571 157.391 60.9473 157.278 60.5385 157.051C60.1298 156.824 59.8032 156.497 59.5599 156.071C59.3166 155.646 59.1349 155.142 59.016 154.561L58.3558 151.336C58.2368 150.755 58.2125 150.256 58.2839 149.841C58.3552 149.426 58.5493 149.109 58.8667 148.888C59.1841 148.669 59.648 148.558 60.259 148.558C60.884 148.558 61.3982 148.669 61.8021 148.888C62.2055 149.108 62.5299 149.426 62.7748 149.841C63.0197 150.256 63.2014 150.755 63.3209 151.336L63.9832 154.571C64.1011 155.145 64.1233 155.644 64.0497 156.066C63.9762 156.488 63.7837 156.815 63.4723 157.045C63.1614 157.276 62.6931 157.391 62.0681 157.391ZM61.8308 156.231C62.0935 156.231 62.2752 156.175 62.3763 156.061C62.4774 155.948 62.5288 155.792 62.5309 155.593C62.5331 155.395 62.5099 155.178 62.4617 154.944L61.6486 150.975C61.5993 150.734 61.5334 150.517 61.4517 150.326C61.3701 150.134 61.2555 149.984 61.1089 149.873C60.9624 149.764 60.7575 149.709 60.4947 149.709C60.246 149.709 60.0692 149.764 59.9638 149.873C59.8583 149.984 59.8043 150.134 59.801 150.326C59.7978 150.518 59.8205 150.734 59.8702 150.975L60.6834 154.944C60.7316 155.178 60.7954 155.395 60.8748 155.593C60.9543 155.792 61.07 155.948 61.2214 156.061C61.3712 156.175 61.5745 156.231 61.8308 156.231Z" fill="#263238"/>
<path d="M65.6988 157.275L63.9335 148.655H65.0311L68.1373 153.572L67.13 148.655H68.4298L70.1951 157.275H69.1511L65.9864 152.124L67.0413 157.275H65.6988Z" fill="#263238"/>
<path d="M71.5052 157.275L69.7399 148.655H71.3165L72.8596 156.189H74.9483L75.1705 157.275H71.5052Z" fill="#263238"/>
<path d="M75.9907 157.275L74.2254 148.655H75.781L77.5463 157.275H75.9907Z" fill="#263238"/>
<path d="M78.878 157.275L77.1127 148.655H78.2103L81.3165 153.572L80.3092 148.655H81.609L83.3743 157.275H82.3297L79.1656 152.124L80.2205 157.275H78.878Z" fill="#263238"/>
<path d="M84.685 157.275L82.9196 148.655H86.5422L86.7688 149.762H84.7233L85.231 152.242H86.8396L87.064 153.338H85.4554L86.0394 156.19H88.1064L88.3286 157.275H84.685V157.275Z" fill="#263238"/>
<path d="M91.8339 157.275L90.0685 148.655H92.1891C92.573 148.655 92.9266 148.691 93.2499 148.762C93.5738 148.833 93.8642 148.952 94.1221 149.118C94.38 149.285 94.5984 149.51 94.7774 149.793C94.9558 150.078 95.0899 150.436 95.1786 150.869C95.2499 151.216 95.2629 151.514 95.2175 151.762C95.1726 152.011 95.0726 152.207 94.9174 152.353C94.7628 152.498 94.5519 152.596 94.2848 152.646C94.6373 152.702 94.9444 152.821 95.205 153.002C95.4662 153.183 95.6814 153.419 95.8506 153.71C96.0204 154.001 96.1475 154.352 96.2313 154.763C96.3156 155.175 96.3383 155.538 96.3005 155.854C96.2621 156.17 96.1631 156.432 96.0031 156.641C95.8436 156.851 95.6235 157.008 95.344 157.115C95.0634 157.221 94.7211 157.275 94.3167 157.275H91.8339ZM92.367 152.177H92.8996C93.2115 152.177 93.444 152.131 93.5954 152.039C93.7468 151.946 93.8371 151.804 93.8652 151.613C93.8933 151.422 93.8777 151.181 93.8177 150.89C93.7555 150.585 93.6554 150.349 93.5186 150.182C93.3808 150.015 93.2034 149.902 92.985 149.842C92.7666 149.782 92.4973 149.751 92.1778 149.751H91.869L92.367 152.177ZM93.1845 156.168H93.7809C94.2567 156.168 94.5562 156.053 94.68 155.822C94.8033 155.591 94.8152 155.235 94.7163 154.753C94.6449 154.405 94.5465 154.123 94.4205 153.907C94.2945 153.69 94.1258 153.529 93.9161 153.422C93.7063 153.316 93.4451 153.262 93.1326 153.262H92.5892L93.1845 156.168Z" fill="#263238"/>
<path d="M97.3213 157.275L97.2818 148.655H98.9655L102.457 157.275H100.997L100.249 155.285H98.746L98.8022 157.275H97.3213ZM98.7011 154.284H99.8733L98.5459 150.666L98.7011 154.284Z" fill="#263238"/>
<path d="M103.277 157.275L101.512 148.655H102.609L105.715 153.572L104.708 148.655H106.007L107.773 157.275H106.728L103.563 152.124L104.618 157.275H103.277Z" fill="#263238"/>
<path d="M109.084 157.275L107.319 148.655H108.896L109.672 152.443L110.6 148.655H112.103L111.24 152.508L114.039 157.275H112.472L110.219 153.348L109.992 154.008L110.661 157.275H109.084Z" fill="#263238"/>
<path d="M114.699 157.275L112.934 148.655H114.489L116.254 157.275H114.699Z" fill="#263238"/>
<path d="M117.587 157.275L115.821 148.655H116.918L120.025 153.572L119.017 148.655H120.317L122.082 157.275H121.038L117.874 152.124L118.929 157.275H117.587Z" fill="#263238"/>
<path d="M125.58 157.391C125.012 157.391 124.536 157.271 124.153 157.029C123.769 156.788 123.46 156.446 123.223 156.002C122.987 155.559 122.806 155.036 122.683 154.433L122.091 151.539C121.964 150.921 121.926 150.39 121.977 149.942C122.028 149.495 122.208 149.154 122.518 148.915C122.828 148.678 123.3 148.559 123.932 148.559C124.521 148.559 125.01 148.658 125.399 148.857C125.788 149.056 126.097 149.341 126.326 149.713C126.555 150.086 126.724 150.538 126.833 151.071L126.924 151.518H125.422L125.322 151.028C125.265 150.752 125.197 150.514 125.117 150.316C125.037 150.117 124.928 149.966 124.79 149.864C124.652 149.76 124.451 149.709 124.189 149.709C123.912 149.709 123.725 149.777 123.628 149.911C123.532 150.046 123.49 150.223 123.503 150.443C123.516 150.663 123.549 150.904 123.603 151.167L124.342 154.774C124.403 155.072 124.481 155.331 124.576 155.551C124.67 155.771 124.797 155.939 124.956 156.056C125.115 156.174 125.318 156.232 125.567 156.232C125.823 156.232 126.005 156.168 126.114 156.041C126.223 155.913 126.28 155.736 126.287 155.509C126.294 155.282 126.266 155.012 126.202 154.7L126.037 153.891H125.109L124.906 152.901H127.25L128.146 157.275H127.134L126.843 156.424C126.787 156.707 126.663 156.94 126.469 157.12C126.273 157.301 125.978 157.391 125.58 157.391Z" fill="#263238"/>
<path d="M88.0031 172.085L86.7925 166.836H87.9539L89.1645 172.085H88.0031Z" fill="white"/>
<path d="M89.9496 172.085L88.739 166.836H89.5565L91.2164 169.363L90.6336 166.836H91.5938L92.8044 172.085H92.0193L90.3146 169.363L90.9423 172.085H89.9496Z" fill="white"/>
<path d="M94.2902 172.085L92.1323 166.836H93.125L94.5113 170.4L94.215 166.836H95.2661L95.5165 172.085H94.2902Z" fill="white"/>
<path d="M98.4605 172.162C98.0669 172.162 97.7392 172.093 97.4786 171.955C97.2175 171.816 97.0071 171.618 96.8482 171.358C96.6887 171.099 96.5681 170.79 96.4854 170.432L96.0355 168.481C95.9517 168.118 95.9301 167.809 95.9712 167.555C96.0118 167.299 96.1312 167.104 96.3291 166.968C96.527 166.832 96.8228 166.764 97.2164 166.764C97.6143 166.764 97.9447 166.832 98.2075 166.968C98.4702 167.104 98.6806 167.299 98.839 167.555C98.9974 167.809 99.118 168.118 99.2018 168.481L99.6516 170.432C99.7344 170.79 99.756 171.099 99.716 171.358C99.676 171.618 99.5565 171.816 99.357 171.955C99.1574 172.093 98.8585 172.162 98.4605 172.162ZM98.2707 171.339C98.3918 171.339 98.4735 171.309 98.5162 171.249C98.5584 171.188 98.5773 171.111 98.5724 171.015C98.5676 170.92 98.554 170.823 98.5313 170.724L97.9485 168.196C97.9247 168.093 97.8933 167.994 97.8544 167.901C97.8155 167.808 97.7614 167.732 97.6911 167.671C97.6208 167.611 97.5251 167.581 97.404 167.581C97.2915 167.581 97.2137 167.611 97.1721 167.671C97.1299 167.732 97.1104 167.808 97.1147 167.901C97.1185 167.994 97.1331 168.092 97.1569 168.196L97.7398 170.724C97.7625 170.823 97.7922 170.92 97.8295 171.015C97.8668 171.111 97.9193 171.188 97.9874 171.249C98.0555 171.309 98.1496 171.339 98.2707 171.339Z" fill="white"/>
<path d="M100.746 172.085L99.5354 166.836H100.697L101.907 172.085H100.746Z" fill="white"/>
<path d="M104.216 172.162C103.818 172.162 103.486 172.09 103.221 171.945C102.956 171.801 102.747 171.597 102.591 171.336C102.435 171.075 102.317 170.767 102.235 170.413L101.799 168.521C101.715 168.157 101.691 167.846 101.726 167.584C101.76 167.323 101.877 167.121 102.076 166.978C102.274 166.836 102.572 166.765 102.97 166.765C103.36 166.765 103.678 166.829 103.926 166.956C104.173 167.083 104.369 167.261 104.513 167.49C104.657 167.719 104.763 167.983 104.831 168.281L104.936 168.735H103.8L103.679 168.21C103.655 168.106 103.627 168.007 103.594 167.912C103.561 167.816 103.512 167.738 103.446 167.674C103.379 167.612 103.283 167.581 103.158 167.581C103.037 167.581 102.955 167.613 102.911 167.678C102.868 167.743 102.849 167.824 102.857 167.921C102.864 168.018 102.88 168.121 102.905 168.229L103.474 170.697C103.501 170.814 103.535 170.92 103.578 171.018C103.62 171.115 103.676 171.193 103.748 171.251C103.82 171.31 103.912 171.339 104.025 171.339C104.146 171.339 104.225 171.308 104.263 171.245C104.3 171.182 104.314 171.101 104.304 171.002C104.294 170.903 104.277 170.801 104.253 170.697L104.126 170.147H105.261L105.366 170.6C105.434 170.898 105.452 171.165 105.418 171.4C105.383 171.636 105.272 171.821 105.085 171.957C104.9 172.094 104.609 172.162 104.216 172.162Z" fill="white"/>
<path d="M106.345 172.085L105.135 166.836H107.496L107.679 167.626H106.478L106.779 168.929H107.694L107.879 169.732H106.964L107.326 171.3H108.539L108.721 172.084L106.345 172.085Z" fill="white"/>
<path d="M179.791 123.662L178.275 115.988H180.855C181.316 115.988 181.713 116.075 182.044 116.249C182.376 116.423 182.647 116.675 182.858 117.007C183.069 117.338 183.221 117.741 183.315 118.215C183.432 118.808 183.424 119.261 183.29 119.574C183.155 119.887 182.932 120.103 182.621 120.223C182.309 120.343 181.945 120.403 181.527 120.403H180.845L181.489 123.662H179.791ZM180.611 119.219H181.18C181.389 119.219 181.539 119.181 181.632 119.105C181.724 119.03 181.773 118.916 181.778 118.764C181.783 118.612 181.762 118.42 181.716 118.186C181.677 117.99 181.629 117.818 181.571 117.67C181.513 117.521 181.422 117.403 181.297 117.315C181.172 117.226 180.996 117.182 180.768 117.182H180.209L180.611 119.219Z" fill="white"/>
<path d="M184.391 123.662L184.326 115.988H186.261L189.209 123.662H187.644L187.067 122.042H185.939L185.994 123.662H184.391ZM185.891 121.028H186.707L185.708 118.034L185.891 121.028Z" fill="white"/>
<path d="M190.575 123.662L189.956 120.526L187.598 115.988H189.201L190.411 118.414L190.586 115.988H192.123L191.587 120.526L192.207 123.662H190.575Z" fill="white"/>
<path d="M191.215 135.572H184.06L199.861 211.256H207.016L191.215 135.572Z" fill="#263238" stroke="#263238" stroke-miterlimit="10" stroke-linecap="round" stroke-linejoin="round"/>
<path d="M296.216 141.591C296.215 139.702 294.681 138.171 292.789 138.171L187.075 138.194L201.754 208.504L292.805 208.484C294.697 208.483 296.23 206.951 296.23 205.063L296.216 141.591Z" fill="#FF7E42" stroke="#263238" stroke-miterlimit="10"/>
<path d="M199.681 198.578L203.462 198.577L203.461 193.614L198.646 193.615L199.681 198.578Z" fill="white" stroke="#263238" stroke-miterlimit="10"/>
<path d="M219.406 193.612H207.396V198.575H219.406V193.612Z" fill="white" stroke="#263238" stroke-miterlimit="10"/>
<path d="M235.35 193.608H223.34V198.571H235.35V193.608Z" fill="white" stroke="#263238" stroke-miterlimit="10"/>
<path d="M251.294 193.605H239.284V198.568H251.294V193.605Z" fill="white" stroke="#263238" stroke-miterlimit="10"/>
<path d="M267.238 193.601H255.229V198.564H267.238V193.601Z" fill="white" stroke="#263238" stroke-miterlimit="10"/>
<path d="M283.182 193.598H271.172V198.561H283.182V193.598Z" fill="white" stroke="#263238" stroke-miterlimit="10"/>
<path d="M287.574 152.442C287.574 156.211 284.515 159.267 280.742 159.268C276.968 159.268 273.908 156.214 273.907 152.445C273.906 148.676 276.965 145.62 280.739 145.619C284.513 145.618 287.572 148.672 287.574 152.442Z" fill="white" stroke="#263238" stroke-miterlimit="10"/>
<path d="M217.536 164.378C217.536 163.391 216.734 162.591 215.746 162.591L193.235 162.596C192.864 162.596 192.519 162.709 192.234 162.902L196.228 182.035L215.75 182.031C216.738 182.031 217.54 181.23 217.539 180.243L217.536 164.378Z" fill="white" stroke="#263238" stroke-miterlimit="10"/>
<path d="M248.592 146.459H191.442V149.355H248.592V146.459Z" fill="white" stroke="#263238" stroke-miterlimit="10"/>
<path d="M133.61 181.069L132.786 176.894H66.8511L67.6756 181.069H133.61Z" fill="#263238" stroke="#263238" stroke-miterlimit="10"/>
<path d="M145.004 211.3C144.992 212.209 145.029 213.157 145.135 214.113C130.199 220.871 115.282 230.11 109.245 230.634C108.909 230.672 108.598 230.672 108.318 230.65C93.7058 229.271 90.4909 217.395 91.2062 209.443C91.4117 207.193 91.4987 204.488 91.5171 201.753C91.5852 193.507 87.5003 186.087 81.2636 183.205L70.1768 178.08H124.061L135.148 183.205C141.378 186.087 145.47 193.507 145.402 201.753C145.377 204.488 145.29 207.193 145.091 209.443C145.036 210.044 145.004 210.66 145.004 211.3Z" fill="white" stroke="#263238" stroke-miterlimit="10"/>
<path d="M114.319 230.137C102.461 227.429 99.783 216.771 100.442 209.443C100.647 207.193 100.734 204.488 100.752 201.752C100.77 199.691 100.527 197.681 100.056 195.781" stroke="#263238" stroke-miterlimit="10"/>
<path d="M122.118 230.137C110.26 227.429 107.582 216.771 108.24 209.443C108.446 207.193 108.533 204.488 108.551 201.752C108.569 199.691 108.326 197.681 107.855 195.781" stroke="#263238" stroke-miterlimit="10"/>
<path d="M129.916 230.137C118.058 227.429 115.38 216.771 116.039 209.443C116.244 207.193 116.331 204.488 116.35 201.752C116.367 199.691 116.124 197.681 115.653 195.781" stroke="#263238" stroke-miterlimit="10"/>
<path d="M137.715 230.137C125.857 227.429 123.179 216.771 123.838 209.443C124.043 207.193 124.13 204.488 124.148 201.752C124.166 199.691 123.923 197.681 123.452 195.781" stroke="#263238" stroke-miterlimit="10"/>
<path d="M145.513 230.137C133.655 227.429 130.977 216.771 131.636 209.443C131.841 207.193 131.928 204.488 131.947 201.752C131.964 199.691 131.721 197.681 131.25 195.781" stroke="#263238" stroke-miterlimit="10"/>
<path d="M153.312 230.137C141.454 227.429 138.776 216.771 139.435 209.443C139.64 207.193 139.727 204.488 139.746 201.752C139.763 199.691 139.52 197.681 139.049 195.781" stroke="#263238" stroke-miterlimit="10"/>
<path d="M191.825 217.534C186.403 220.215 181.18 222.989 176.604 225.286C170.834 228.184 166.077 230.341 163.229 230.626C163.005 230.657 162.8 230.664 162.601 230.664H109.227L109.246 230.634C115.283 230.11 130.2 220.87 145.136 214.112C146.031 213.704 146.926 213.311 147.816 212.925C156.353 209.25 164.723 206.606 171.251 207.092H171.264C172.445 207.176 173.571 207.369 174.615 207.678C181.417 209.666 187.224 213.504 191.825 217.534Z" fill="#8A8A8A" stroke="#263238" stroke-miterlimit="10"/>
<path d="M204.026 231.041L205.261 228.93L206.496 231.041H206.75L207.985 228.93L209.22 231.041H209.475L210.71 228.93L211.945 231.041H212.199L213.434 228.93L214.669 231.041H214.924L216.159 228.93L217.394 231.041H217.648L218.883 228.93L220.118 231.041H220.373L221.608 228.93L222.843 231.041H223.097L224.332 228.93L225.567 231.041H225.822L227.057 228.93L228.292 231.041H228.547L229.781 228.93L231.016 231.041H231.271L232.506 228.93L233.741 231.041H233.996L235.23 228.93L236.465 231.041H236.72L237.955 228.93L239.19 231.041H239.445L240.679 228.93L241.914 231.041H242.169L243.404 228.93L244.639 231.041H244.894L246.128 228.93L247.363 231.041H247.618L248.853 228.93L250.088 231.041H250.343L251.577 228.93L252.812 231.041H253.067L254.302 228.93L255.537 231.041H255.792L256.55 229.746C253.276 224.981 243.229 211.978 228.484 207.678C225.86 206.915 222.801 206.861 219.461 207.339L171.253 207.092C172.435 207.177 173.561 207.37 174.605 207.678C181.407 209.666 187.215 213.504 191.816 217.534C194.415 219.815 196.635 222.15 198.426 224.245C201.124 227.405 202.863 230.006 203.525 231.041H204.026V231.041Z" fill="white" stroke="#263238" stroke-miterlimit="10"/>
<path d="M145.004 211.3C144.992 212.209 145.029 213.157 145.135 214.113L145.004 211.3Z" fill="white"/>
<path d="M145.004 211.3C144.992 212.209 145.029 213.157 145.135 214.113" stroke="#263238" stroke-miterlimit="10"/>
<path d="M92.5682 186.783H133.789" stroke="#263238" stroke-miterlimit="10"/>
<path d="M94.7963 194.607H138.617" stroke="#263238" stroke-miterlimit="10"/>
<path d="M95.3538 211.231H141.984" stroke="#263238" stroke-miterlimit="10"/>
<path d="M95.769 201.615H142.399" stroke="#263238" stroke-miterlimit="10"/>
<path d="M97.0245 219.689H133.232" stroke="#263238" stroke-miterlimit="10"/>
<path d="M191.35 213.476H234.242" stroke="#263238" stroke-miterlimit="10"/>
<path d="M223.844 218.078H237.213L241.298 221.99H226.815L223.844 218.078Z" stroke="#263238" stroke-miterlimit="10"/>
<path d="M93.5695 190.147H134.791" stroke="#263238" stroke-miterlimit="10"/>
<path d="M99.8593 182.419H122.072" stroke="#263238" stroke-miterlimit="10"/>
<path d="M305.071 132.707C305.071 132.707 303.232 130.917 302.405 132.432C301.578 133.947 303.325 135.049 303.186 135.37C303.048 135.691 302.773 136.059 303.186 136.518C303.6 136.977 305.806 135.002 305.944 134.773C306.083 134.544 305.071 132.707 305.071 132.707Z" fill="#263238" stroke="#263238" stroke-miterlimit="10" stroke-linecap="round" stroke-linejoin="round"/>
<path d="M326.589 219.389C326.589 219.389 329.148 226.228 329.425 227.057C329.702 227.886 330.255 228.922 329.356 229.337C328.457 229.751 327.281 229.475 326.797 229.475C326.313 229.475 325.413 230.027 324.721 230.442C324.03 230.857 321.678 230.926 321.401 230.926C321.124 230.926 320.64 230.304 320.848 229.959C321.056 229.613 322.508 228.922 323.2 228.439C323.892 227.956 325.275 225.607 325.206 225.054C325.137 224.502 323.269 220.702 323.269 220.702L326.589 219.389Z" fill="white" stroke="#263238" stroke-miterlimit="10" stroke-linecap="round" stroke-linejoin="round"/>
<path d="M320.847 229.958C321.055 229.612 322.507 228.922 323.199 228.438C323.668 228.11 324.455 226.924 324.892 226.022C325.001 226.03 325.385 226.082 325.62 226.435C325.897 226.849 326.035 227.194 326.035 227.194C326.035 227.194 327.793 226.71 329.095 226.138C329.257 226.581 329.376 226.911 329.424 227.056C329.701 227.885 330.254 228.921 329.355 229.336C328.456 229.751 327.28 229.474 326.796 229.474C326.312 229.474 325.412 230.027 324.721 230.441C324.029 230.856 321.677 230.925 321.4 230.925C321.124 230.925 320.64 230.303 320.847 229.958Z" fill="#263238" stroke="#263238" stroke-miterlimit="10" stroke-linecap="round" stroke-linejoin="round"/>
<path d="M316.515 190.037C316.515 190.037 316.1 199.156 316.377 200.124C316.654 201.091 319.351 203.509 319.973 205.512C320.596 207.515 327.28 220.563 327.28 220.563L321.953 223.049C321.953 223.049 312.918 209.519 311.742 206.064C310.566 202.61 307.384 195.218 307.384 195.218L316.515 190.037Z" fill="#263238" stroke="#263238" stroke-miterlimit="10" stroke-linecap="round" stroke-linejoin="round"/>
<path d="M291.179 220.996L287.375 225.624C287.375 225.624 284.332 225.762 283.156 225.417C281.98 225.071 280.666 223.69 280.527 224.38C280.389 225.071 280.943 226.798 281.842 227.765C282.741 228.732 286.545 230.528 287.513 230.874C288.482 231.22 289.035 230.183 289.243 229.699C289.45 229.216 289.658 228.111 289.865 227.696C290.072 227.281 294.914 222.584 294.914 222.584L291.179 220.996Z" fill="white" stroke="#263238" stroke-miterlimit="10" stroke-linecap="round" stroke-linejoin="round"/>
<path d="M283.156 225.417C283.634 225.557 284.421 225.618 285.186 225.64L285.023 227.213C285.023 227.213 287.82 228.363 289.556 228.664C289.452 229.055 289.347 229.456 289.243 229.7C289.035 230.184 288.482 231.22 287.513 230.875C286.545 230.529 282.741 228.733 281.842 227.766C280.943 226.799 280.389 225.072 280.527 224.381C280.666 223.69 281.98 225.072 283.156 225.417Z" fill="#263238" stroke="#263238" stroke-miterlimit="10" stroke-linecap="round" stroke-linejoin="round"/>
<path d="M313.949 172.674L314.503 174.458C314.503 174.458 317.466 178.598 318.455 182.765C319.308 186.364 318.016 188.359 317.027 190.333C316.195 191.996 305.82 203.363 305.266 204.286C304.712 205.208 302.242 213.68 300.641 216.324C299.04 218.969 295.099 225.451 295.099 225.451L289.727 221.756C289.727 221.756 297.199 207.545 298.493 203.732C299.786 199.92 300.525 197.09 301.264 195.614C302.003 194.138 303.788 188.542 303.788 188.542C303.788 188.542 302.433 183.929 302.249 180.301C302.064 176.672 302.31 172.06 302.31 172.06L313.949 172.674Z" fill="#263238" stroke="#263238" stroke-miterlimit="10" stroke-linecap="round" stroke-linejoin="round"/>
<path d="M309.859 199.049L314.938 192.347" stroke="white" stroke-miterlimit="10" stroke-linecap="round" stroke-linejoin="round"/>
<path d="M303.788 188.541C303.788 188.541 305.081 185.343 306.559 183.683" stroke="white" stroke-miterlimit="10" stroke-linecap="round" stroke-linejoin="round"/>
<path d="M314.401 174.129L302.237 173.881C302.272 172.783 302.31 172.059 302.31 172.059L313.949 172.674L314.401 174.129Z" fill="white" stroke="#263238" stroke-miterlimit="10" stroke-linecap="round" stroke-linejoin="round"/>
<path d="M301.045 165.36L299.724 169.465L292.48 172.165L294.751 173.245L305.134 173.677L303.542 165.652C303.542 165.652 301.926 163.6 301.045 165.36Z" fill="white" stroke="#263238" stroke-miterlimit="10" stroke-linecap="round" stroke-linejoin="round"/>
<path d="M317.599 158.992C317.527 156.399 316.827 154.325 316.54 153.577C315.152 151.653 313.278 149.313 312.394 149.633C307.956 151.239 306.672 151.849 305.817 152.532C304.962 153.215 302.162 155.719 301.547 158.179C300.931 160.639 301.079 172.49 301.079 172.49C305.143 173.781 316.189 173.593 316.189 173.593L316.824 167.465C317.102 165.611 317.653 160.93 317.599 158.992Z" fill="#FF7E42" stroke="#263238" stroke-miterlimit="10" stroke-linecap="round" stroke-linejoin="round"/>
<path d="M304.802 135.371C304.802 135.371 303.206 137.072 302.969 137.798C302.733 138.525 302.204 139.945 301.509 140.555C300.813 141.165 299.732 141.211 299.84 141.8C299.948 142.39 300.581 143.173 300.581 143.173C300.581 143.173 300.51 144.71 300.667 145.666C300.823 146.622 300.938 147.779 301.307 147.919C301.677 148.06 305.007 147.707 305.007 147.707C305.007 147.707 307.001 149.526 307.001 150.491C307.001 151.455 304.748 153.475 304.748 153.475C304.748 153.475 303.59 154.836 304.878 155.616C306.165 156.397 314.794 150.994 314.171 150.58C313.638 150.225 312.295 147.976 312.217 146.735C312.098 144.845 311.021 142.001 309.848 138.986C308.673 135.971 304.802 135.371 304.802 135.371Z" fill="white" stroke="#263238" stroke-miterlimit="10" stroke-linecap="round" stroke-linejoin="round"/>
<path d="M305.007 147.707L306.348 147.105L306.132 148.994L305.007 147.707Z" fill="#263238" stroke="#263238" stroke-miterlimit="10" stroke-linecap="round" stroke-linejoin="round"/>
<path d="M304.663 139.537C304.663 139.537 304.49 138.159 303.332 138.273" stroke="#263238" stroke-miterlimit="10" stroke-linecap="round" stroke-linejoin="round"/>
<path d="M303.826 143.222C303.826 143.222 303.047 144.234 301.526 143.873" stroke="#263238" stroke-miterlimit="10" stroke-linecap="round" stroke-linejoin="round"/>
<path d="M303.267 140.483C303.087 140.84 302.807 141.063 302.641 140.98C302.474 140.896 302.485 140.539 302.665 140.181C302.844 139.824 303.124 139.602 303.291 139.685C303.457 139.768 303.446 140.125 303.267 140.483Z" fill="#263238"/>
<path d="M308.048 139.267C308.016 139.689 307.467 141.346 307.716 141.774C307.716 141.774 308.915 140.44 309.879 141.32C310.844 142.201 310.465 144.066 309.679 144.411C308.893 144.757 308.08 144.597 308.08 144.597C308.08 144.597 309.135 145.464 309.274 146.418C309.308 146.648 309.652 146.828 309.938 147.048C310.438 147.43 311.064 147.607 311.684 147.497C311.75 147.485 311.823 147.473 311.906 147.457C313.204 147.222 315.562 145.337 316.27 143.689C316.978 142.04 316.623 139.92 316.506 138.035C316.388 136.151 313.411 133.987 313.411 133.987C313.411 133.987 311.709 131.868 309.303 131.29C306.896 130.711 305.337 131.494 304.644 132.477C303.951 133.459 304.194 134.49 305.655 136.227C307.115 137.964 308.079 138.845 308.048 139.267Z" fill="#263238" stroke="#263238" stroke-miterlimit="10" stroke-linecap="round" stroke-linejoin="round"/>
<path d="M314.993 155.749C314.993 155.749 311.62 155.059 310.823 157.08C310.026 159.101 305.864 169.829 305.864 169.829L289.006 171.088L287.167 169.107C287.167 169.107 284.7 167.97 284.416 167.875C284.131 167.78 283.823 167.704 283.823 168.19C283.823 168.677 284.652 169.358 284.798 169.407C284.944 169.456 285.091 170.04 285.091 170.04L281.24 169.699C281.24 169.699 280.899 170.04 281.094 170.332C281.289 170.624 283.044 171.062 283.044 171.062C283.044 171.062 280.412 171.209 280.363 171.403C280.314 171.598 280.217 171.89 280.412 171.987C280.606 172.085 283.141 172.669 283.141 172.669L280.509 173.205C280.509 173.205 280.314 173.545 280.558 173.837C280.801 174.13 283.433 174.178 283.433 174.178C283.433 174.178 282.02 174.519 282.069 174.714C282.117 174.909 282.117 175.152 282.313 175.152C282.508 175.152 286.894 174.275 286.894 174.275L289.944 173.432C295.294 174.079 307.888 175.595 308.416 175.595C309.087 175.595 316.203 162.32 316.203 162.32C317.745 157.428 314.993 155.749 314.993 155.749Z" fill="white" stroke="#263238" stroke-miterlimit="10" stroke-linecap="round" stroke-linejoin="round"/>
<path d="M313.411 133.988C313.411 133.988 317.567 132.736 319.335 133.208C321.104 133.679 323.462 136.977 323.581 139.332C323.699 141.687 322.048 146.045 322.048 146.045C322.048 146.045 323.581 148.165 323.463 150.049C323.345 151.933 321.105 154.288 320.397 154.524C319.689 154.76 320.397 155.82 320.868 155.82C321.34 155.82 321.34 155.82 321.34 155.82C321.34 155.82 321.222 157.351 319.807 157.586C318.392 157.822 315.68 156.055 315.326 152.875C314.972 149.695 317.802 147.34 317.802 147.34C317.802 147.34 314.972 145.927 314.264 142.865C313.558 139.803 313.411 133.988 313.411 133.988Z" fill="#263238" stroke="#263238" stroke-miterlimit="10" stroke-linecap="round" stroke-linejoin="round"/>
</g>
</svg>
