<svg width="271" height="265" viewBox="0 0 271 265" fill="none" xmlns="http://www.w3.org/2000/svg">
<g opacity="0.95">
<path d="M188.139 12.8373C174.409 20.6927 164.729 33.902 152.988 44.5029C138.491 57.5926 120.527 66.8059 101.438 70.941C85.7342 74.3429 69.2728 74.3913 54.1121 79.715C24.561 90.0919 4.27603 120.891 3.73799 152.206C3.19996 183.521 21.042 213.857 47.2253 231.044C56.1164 236.88 65.908 241.343 76.1459 244.224C95.4051 249.645 115.824 249.404 135.724 247.333C170.097 243.754 206.129 224.236 227.791 196.716C237.454 184.441 245.611 170.99 252.109 156.787C262.78 133.463 268.994 108.074 270.056 82.4361C270.969 60.4061 270.038 35.995 252.582 19.9457C235.166 3.93235 208.627 1.11568 188.139 12.8373Z" fill="#FF7E42"/>
<path opacity="0.9" d="M188.139 12.8373C174.409 20.6927 164.729 33.902 152.988 44.5029C138.491 57.5926 120.527 66.8059 101.438 70.941C85.7342 74.3429 69.2728 74.3913 54.1121 79.715C24.561 90.0919 4.27603 120.891 3.73799 152.206C3.19996 183.521 21.042 213.857 47.2253 231.044C56.1164 236.88 65.908 241.343 76.1459 244.224C95.4051 249.645 115.824 249.404 135.724 247.333C170.097 243.754 206.129 224.236 227.791 196.716C237.454 184.441 245.611 170.99 252.109 156.787C262.78 133.463 268.994 108.074 270.056 82.4361C270.969 60.4061 270.038 35.995 252.582 19.9457C235.166 3.93235 208.627 1.11568 188.139 12.8373Z" fill="white"/>
<path d="M152.016 265C214.342 265 264.868 251.393 264.868 234.608C264.868 217.823 214.342 204.216 152.016 204.216C89.6896 204.216 39.1641 217.823 39.1641 234.608C39.1641 251.393 89.6896 265 152.016 265Z" fill="#FF7E42"/>
<path opacity="0.8" d="M152.016 265C214.342 265 264.868 251.393 264.868 234.608C264.868 217.823 214.342 204.216 152.016 204.216C89.6896 204.216 39.1641 217.823 39.1641 234.608C39.1641 251.393 89.6896 265 152.016 265Z" fill="white"/>
<path d="M171.406 21.2817V95.6529C171.406 98.7641 168.884 101.286 165.773 101.286H33.1004C29.9892 101.286 27.4677 98.7641 27.4677 95.6529V21.2817C27.4677 18.1705 29.9892 15.649 33.1004 15.649H165.773C168.884 15.649 171.406 18.1705 171.406 21.2817Z" fill="white"/>
<path d="M171.406 21.2817V23.5119H27.4677V21.2817C27.4677 18.1705 29.9892 15.649 33.1004 15.649H165.773C168.884 15.649 171.406 18.1705 171.406 21.2817Z" fill="#FF7E42"/>
<path d="M171.406 21.2817V95.6529C171.406 98.7641 168.884 101.286 165.773 101.286H33.1004C29.9892 101.286 27.4677 98.7641 27.4677 95.6529V21.2817C27.4677 18.1705 29.9892 15.649 33.1004 15.649H165.773C168.884 15.649 171.406 18.1705 171.406 21.2817Z" stroke="#263238" stroke-miterlimit="10" stroke-linecap="round" stroke-linejoin="round"/>
<path d="M171.406 21.2817V23.5119H27.4677V21.2817C27.4677 18.1705 29.9892 15.649 33.1004 15.649H165.773C168.884 15.649 171.406 18.1705 171.406 21.2817Z" stroke="#263238" stroke-miterlimit="10" stroke-linecap="round" stroke-linejoin="round"/>
<path d="M43.6321 19.5801C43.6321 20.3743 42.9883 21.018 42.1941 21.018C41.4 21.018 40.7562 20.3743 40.7562 19.5801C40.7562 18.786 41.4 18.1422 42.1941 18.1422C42.9883 18.1422 43.6321 18.786 43.6321 19.5801Z" fill="#263238"/>
<path d="M51.1526 19.5801C51.1526 20.3743 50.5088 21.018 49.7147 21.018C48.9205 21.018 48.2768 20.3743 48.2768 19.5801C48.2768 18.786 48.9205 18.1422 49.7147 18.1422C50.5088 18.1422 51.1526 18.786 51.1526 19.5801Z" fill="#263238"/>
<path d="M57.2353 21.018C58.0294 21.018 58.6732 20.3743 58.6732 19.5801C58.6732 18.786 58.0294 18.1422 57.2353 18.1422C56.4411 18.1422 55.7974 18.786 55.7974 19.5801C55.7974 20.3743 56.4411 21.018 57.2353 21.018Z" fill="#263238"/>
<path d="M79.0204 53.9655H38.3259C37.0435 53.9655 36.0039 52.9259 36.0039 51.6434V32.0671C36.0039 30.7846 37.0435 29.745 38.3259 29.745H79.0204C80.3029 29.745 81.3425 30.7846 81.3425 32.0671V51.6434C81.3425 52.9259 80.3029 53.9655 79.0204 53.9655Z" stroke="#263238" stroke-miterlimit="10" stroke-linecap="round" stroke-linejoin="round"/>
<path d="M38.6695 50.9203H77.9827" stroke="#263238" stroke-miterlimit="10" stroke-linecap="round" stroke-linejoin="round"/>
<path d="M46.1492 46.2958H41.5881V50.8569H46.1492V46.2958Z" fill="#FF7E42" stroke="#263238" stroke-miterlimit="10"/>
<path d="M52.8265 40.2987H48.2655V50.9204H52.8265V40.2987Z" fill="#FF7E42" stroke="#263238" stroke-miterlimit="10"/>
<path d="M60.3471 42.1255H55.786V51.0274H60.3471V42.1255Z" fill="#FF7E42" stroke="#263238" stroke-miterlimit="10"/>
<path d="M68.2477 33.2596H63.6867V50.7228H68.2477V33.2596Z" fill="#FF7E42" stroke="#263238" stroke-miterlimit="10"/>
<path d="M76.1477 33.3936H71.5867V50.8568H76.1477V33.3936Z" fill="#FF7E42" stroke="#263238" stroke-miterlimit="10"/>
<path d="M137.551 55.2202C144.596 55.2202 150.307 49.5094 150.307 42.4647C150.307 35.42 144.596 29.7091 137.551 29.7091C130.507 29.7091 124.796 35.42 124.796 42.4647C124.796 49.5094 130.507 55.2202 137.551 55.2202Z" fill="#FF7E42" stroke="#263238" stroke-miterlimit="10"/>
<path d="M138.597 50.4219V51.7283H136.459V50.4219C134.653 49.9707 133.49 48.4504 133.49 46.4549V45.8609L135.913 45.5997V46.2171C135.913 47.4284 136.53 48.1647 137.528 48.1647C138.525 48.1647 139.143 47.5474 139.143 46.5732C139.143 45.4091 138.051 44.4116 136.768 43.3425C135.248 42.0839 133.727 40.5869 133.727 38.4731C133.727 36.4065 134.725 34.934 136.459 34.5061V33.1997H138.597V34.5061C140.354 34.9101 141.375 36.3826 141.375 38.4964V38.9237L138.953 39.1848V38.7097C138.953 37.4272 138.454 36.7621 137.575 36.7621C136.697 36.7621 136.198 37.3083 136.198 38.3535C136.198 39.5177 137.314 40.4912 138.573 41.5843C140.07 42.8668 141.613 44.3399 141.613 46.4537C141.613 48.4737 140.425 49.994 138.597 50.4219Z" fill="white"/>
<path d="M34.9423 66.3422H38.6695" stroke="#263238" stroke-miterlimit="10" stroke-linecap="round" stroke-linejoin="round"/>
<path d="M34.9423 73.5419H38.6695" stroke="#263238" stroke-miterlimit="10" stroke-linecap="round" stroke-linejoin="round"/>
<path d="M34.9423 80.7415H38.6695" stroke="#263238" stroke-miterlimit="10" stroke-linecap="round" stroke-linejoin="round"/>
<path d="M34.9423 87.9411H38.6695" stroke="#263238" stroke-miterlimit="10" stroke-linecap="round" stroke-linejoin="round"/>
<path d="M46.8792 93.3825V90.4884" stroke="#263238" stroke-miterlimit="10" stroke-linecap="round" stroke-linejoin="round"/>
<path d="M52.7837 93.3825V90.4884" stroke="#263238" stroke-miterlimit="10" stroke-linecap="round" stroke-linejoin="round"/>
<path d="M58.6883 93.3825V90.4884" stroke="#263238" stroke-miterlimit="10" stroke-linecap="round" stroke-linejoin="round"/>
<path d="M64.5922 93.3825V90.4884" stroke="#263238" stroke-miterlimit="10" stroke-linecap="round" stroke-linejoin="round"/>
<path d="M70.4968 93.3825V90.4884" stroke="#263238" stroke-miterlimit="10" stroke-linecap="round" stroke-linejoin="round"/>
<path d="M76.4007 93.3825V90.4884" stroke="#263238" stroke-miterlimit="10" stroke-linecap="round" stroke-linejoin="round"/>
<path d="M82.3053 93.3825V90.4884" stroke="#263238" stroke-miterlimit="10" stroke-linecap="round" stroke-linejoin="round"/>
<path d="M88.2092 93.3825V90.4884" stroke="#263238" stroke-miterlimit="10" stroke-linecap="round" stroke-linejoin="round"/>
<path d="M94.1138 93.3825V90.4884" stroke="#263238" stroke-miterlimit="10" stroke-linecap="round" stroke-linejoin="round"/>
<path d="M100.018 93.3825V90.4884" stroke="#263238" stroke-miterlimit="10" stroke-linecap="round" stroke-linejoin="round"/>
<path d="M105.922 93.3825V90.4884" stroke="#263238" stroke-miterlimit="10" stroke-linecap="round" stroke-linejoin="round"/>
<path d="M111.827 93.3825V90.4884" stroke="#263238" stroke-miterlimit="10" stroke-linecap="round" stroke-linejoin="round"/>
<path d="M117.731 93.3825V90.4884" stroke="#263238" stroke-miterlimit="10" stroke-linecap="round" stroke-linejoin="round"/>
<path d="M123.635 93.3825V90.4884" stroke="#263238" stroke-miterlimit="10" stroke-linecap="round" stroke-linejoin="round"/>
<path d="M129.539 93.3825V90.4884" stroke="#263238" stroke-miterlimit="10" stroke-linecap="round" stroke-linejoin="round"/>
<path d="M135.22 93.3825V90.4884" stroke="#263238" stroke-miterlimit="10" stroke-linecap="round" stroke-linejoin="round"/>
<path d="M140.9 93.3825V90.4884" stroke="#263238" stroke-miterlimit="10" stroke-linecap="round" stroke-linejoin="round"/>
<path d="M146.581 93.3825V90.4884" stroke="#263238" stroke-miterlimit="10" stroke-linecap="round" stroke-linejoin="round"/>
<path d="M161.608 61.9334V89.9139C161.608 91.83 159.657 93.3819 157.25 93.3819H39.3007C37.7004 93.3819 36.2984 92.6966 35.5445 91.6721C35.1638 91.1567 34.9429 90.5564 34.9429 89.9139V61.9334C34.9429 60.0173 36.8937 58.4655 39.3013 58.4655H157.251C159.657 58.4655 161.608 60.0173 161.608 61.9334Z" stroke="#FF7E42" stroke-miterlimit="10" stroke-linecap="round" stroke-linejoin="round"/>
<path d="M125.711 7.74839L88.0601 58.4655L73.6602 77.8613L57.9325 67.845L38.6884 93.3825H38.4096C37.1366 93.3825 36.0209 92.6972 35.4205 91.6728L57.0471 62.9705L72.7622 72.9742L83.5299 58.4655L122.788 5.58429L125.711 7.74839Z" fill="#263238"/>
<path d="M116.157 8.39149L129.999 0L126.17 14.5113L123.731 7.79808L116.157 8.39149Z" fill="#263238"/>
<path d="M247.116 168.077H25.8045L1 190.131" stroke="#263238" stroke-miterlimit="10" stroke-linecap="round" stroke-linejoin="round"/>
<path d="M25.9442 152.633V109.746" stroke="#263238" stroke-miterlimit="10" stroke-linecap="round" stroke-linejoin="round"/>
<path d="M25.9442 165.587V157.292" stroke="#263238" stroke-miterlimit="10" stroke-linecap="round" stroke-linejoin="round"/>
<path d="M233.795 63.742C233.795 63.742 233.795 61.1506 230.164 57.5202C226.534 53.8899 224.206 51.8202 224.206 51.8202C224.206 51.8202 222.391 57.7789 225.757 61.4086C228.235 63.9679 230.924 66.3145 233.794 68.4238V63.742H233.795Z" fill="#FF7E42"/>
<path d="M228.529 79.9297C228.529 79.9297 228.529 77.3383 224.899 73.708C221.269 70.0776 218.941 68.0085 218.941 68.0085C218.941 68.0085 217.125 73.9672 220.493 77.5976C222.972 80.155 225.66 82.5016 228.529 84.6128V79.9297Z" fill="#FF7E42"/>
<path d="M233.567 68.157C233.567 68.157 233.839 65.5788 237.833 62.3519C241.827 59.1249 244.361 57.3145 244.361 57.3145C244.361 57.3145 245.536 63.4525 241.8 66.6839C239.067 68.9619 236.147 71.0064 233.071 72.7955L233.567 68.157Z" fill="#FF7E42"/>
<path d="M227.205 87.2735C227.205 87.2735 227.749 84.7393 232.055 81.951C236.36 79.1626 239.07 77.6234 239.07 77.6234C239.07 77.6234 239.596 83.8319 235.562 86.6769C232.605 88.6529 229.487 90.3771 226.241 91.8326L227.205 87.2735Z" fill="#FF7E42"/>
<path d="M228.402 108.113C228.402 108.113 228.402 105.521 232.028 101.895C235.654 98.2695 237.991 96.196 237.991 96.196C237.991 96.196 239.806 102.159 236.435 105.784C233.959 108.344 231.272 110.69 228.403 112.8V108.113H228.402Z" fill="#FF7E42"/>
<path d="M228.341 113.202C228.341 113.202 228.709 110.637 225.631 106.529C222.553 102.422 220.541 100.036 220.541 100.036C220.541 100.036 217.91 105.679 220.721 109.751C222.811 112.63 225.139 115.328 227.679 117.819L228.341 113.202Z" fill="#FF7E42"/>
<path d="M224.763 128.276C224.763 128.276 224.763 125.685 228.389 122.059C232.015 118.433 234.351 116.36 234.351 116.36C234.351 116.36 236.166 122.322 232.795 125.948C230.32 128.507 227.633 130.854 224.763 132.963V128.276Z" fill="#FF7E42"/>
<path d="M227.183 141.947C227.183 141.947 226.53 139.439 229.126 135.002C231.722 130.565 233.449 127.987 233.449 127.987C233.449 127.987 236.711 133.296 234.374 137.659C232.622 140.756 230.615 143.701 228.372 146.463L227.183 141.947Z" fill="#FF7E42"/>
<path d="M234.124 63.0977C233.939 65.7954 233.607 68.4812 233.128 71.143C231.695 78.5529 228.108 83.336 226.674 90.0266C225.241 96.7171 229.357 105.346 228.257 113.944C227.156 122.542 223.807 127.32 224.749 133.059C225.692 138.799 230.725 154.332 230.725 154.332" stroke="#263238" stroke-width="1.1775" stroke-linecap="round" stroke-linejoin="round"/>
<path d="M233.532 69.8807L237.443 66.8771" stroke="#263238" stroke-width="1.1775" stroke-linecap="round" stroke-linejoin="round"/>
<path d="M233.711 66.4253L232.076 63.5142" stroke="#263238" stroke-width="1.1775" stroke-linecap="round" stroke-linejoin="round"/>
<path d="M226.894 89.7025C226.894 89.7025 230.165 87.247 233.532 84.7922" stroke="#263238" stroke-width="1.1775" stroke-linecap="round" stroke-linejoin="round"/>
<path d="M228.529 84.5814C228.529 84.5814 225.802 79.2325 222.711 75.6852" stroke="#263238" stroke-width="1.1775" stroke-linecap="round" stroke-linejoin="round"/>
<path d="M228.529 111.8C230.403 108.356 232.766 105.201 235.545 102.435" stroke="#263238" stroke-width="1.1775" stroke-linecap="round" stroke-linejoin="round"/>
<path d="M227.893 115.439C226.899 113.097 225.713 110.842 224.346 108.695C222.434 105.876 222.153 105.513 222.153 105.513" stroke="#263238" stroke-width="1.1775" stroke-linecap="round" stroke-linejoin="round"/>
<path d="M224.763 133.042C225.591 130.983 226.577 128.989 227.709 127.079C228.843 125.31 230.12 123.637 231.528 122.077" stroke="#263238" stroke-width="1.1775" stroke-linecap="round" stroke-linejoin="round"/>
<path d="M228.367 146.459C228.367 146.459 227.986 143.355 229.349 140.72C230.713 138.085 232.256 134.625 232.897 133.266" stroke="#263238" stroke-width="1.1775" stroke-linecap="round" stroke-linejoin="round"/>
<path d="M210.036 98.3658C210.036 98.3658 209.751 96.7435 211.636 94.0734C213.522 91.4034 214.754 89.8428 214.754 89.8428C214.754 89.8428 216.538 93.3812 214.819 96.0248C213.542 97.8951 212.111 99.6552 210.54 101.286L210.036 98.3658Z" fill="#FF7E42"/>
<path d="M215.095 107.946C215.095 107.946 214.81 106.319 216.691 103.649C218.572 100.979 219.813 99.4268 219.813 99.4268C219.813 99.4268 221.598 102.97 219.879 105.609C218.603 107.48 217.171 109.24 215.6 110.87L215.095 107.946Z" fill="#FF7E42"/>
<path d="M210.658 101.111C210.658 101.111 210.22 99.5237 207.353 97.9366C204.485 96.3496 202.71 95.4811 202.71 95.4811C202.71 95.4811 202.639 99.4268 205.34 101.084C207.303 102.213 209.356 103.177 211.478 103.965L210.658 101.111Z" fill="#FF7E42"/>
<path d="M216.722 112.405C216.722 112.405 216.104 110.875 213.101 109.595C210.097 108.315 208.225 107.648 208.225 107.648C208.225 107.648 208.571 111.595 211.421 112.941C213.491 113.858 215.633 114.602 217.827 115.163L216.722 112.405Z" fill="#FF7E42"/>
<path d="M218.234 125.606C218.234 125.606 217.954 123.98 215.284 122.099C212.614 120.218 210.926 119.17 210.926 119.17C210.926 119.17 210.435 123.116 212.943 125.014C214.773 126.343 216.712 127.517 218.739 128.522L218.234 125.606Z" fill="#FF7E42"/>
<path d="M218.822 128.789C218.822 128.789 218.314 127.22 219.796 124.312C221.277 121.406 222.286 119.687 222.286 119.687C222.286 119.687 224.552 122.941 223.228 125.799C222.223 127.831 221.05 129.776 219.721 131.613L218.822 128.789Z" fill="#FF7E42"/>
<path d="M223.377 141.899C223.377 141.899 223.566 140.259 226.122 138.229C228.678 136.199 230.305 135.059 230.305 135.059C230.305 135.059 231.02 138.957 228.626 141.009C226.874 142.442 225.006 143.727 223.041 144.85L223.377 141.899Z" fill="#FF7E42"/>
<path d="M222.702 137.856C222.702 137.856 222.422 136.23 219.751 134.349C217.081 132.468 215.398 131.42 215.398 131.42C215.398 131.42 214.907 135.366 217.411 137.264C219.242 138.594 221.182 139.767 223.211 140.772L222.702 137.856Z" fill="#FF7E42"/>
<path d="M222.667 146.691C222.667 146.691 222.807 145.047 220.703 142.552C218.599 140.058 217.231 138.606 217.231 138.606C217.231 138.606 215.757 142.289 217.7 144.77C219.134 146.525 220.712 148.158 222.418 149.651L222.667 146.691Z" fill="#FF7E42"/>
<path d="M209.755 97.9844C210.164 99.6577 210.664 101.308 211.255 102.926C212.956 107.416 215.723 110.024 217.349 114.066C218.976 118.109 217.349 123.962 218.954 129.232C220.559 134.502 223.198 137.124 223.22 140.842C223.242 144.56 221.782 154.833 221.782 154.833" stroke="#263238" stroke-width="1.1775" stroke-linecap="round" stroke-linejoin="round"/>
<path d="M210.864 102.185L208.089 100.729" stroke="#263238" stroke-width="1.1775" stroke-linecap="round" stroke-linejoin="round"/>
<path d="M210.378 100.041L211.088 98.0373" stroke="#263238" stroke-width="1.1775" stroke-linecap="round" stroke-linejoin="round"/>
<path d="M217.182 113.895C217.182 113.895 214.863 112.712 212.486 111.537" stroke="#263238" stroke-width="1.1775" stroke-linecap="round" stroke-linejoin="round"/>
<path d="M215.599 110.888C216.281 108.733 217.18 106.653 218.283 104.679" stroke="#263238" stroke-width="1.1775" stroke-linecap="round" stroke-linejoin="round"/>
<path d="M218.555 127.93C217.008 125.973 215.185 124.251 213.144 122.818" stroke="#263238" stroke-width="1.1775" stroke-linecap="round" stroke-linejoin="round"/>
<path d="M219.348 130.144C219.716 128.571 220.215 127.031 220.839 125.54C221.715 123.563 221.865 123.304 221.865 123.304" stroke="#263238" stroke-width="1.1775" stroke-linecap="round" stroke-linejoin="round"/>
<path d="M223.097 143.648C223.097 143.648 224.934 141.394 226.083 140.548C226.772 140.038 227.421 139.473 228.02 138.86" stroke="#263238" stroke-width="1.1775" stroke-linecap="round" stroke-linejoin="round"/>
<path d="M223.219 140.842C222.476 139.64 221.642 138.497 220.725 137.422C219.822 136.436 218.84 135.525 217.787 134.699" stroke="#263238" stroke-width="1.1775" stroke-linecap="round" stroke-linejoin="round"/>
<path d="M222.417 149.651C222.325 148.392 221.899 147.181 221.181 146.143C220.037 144.635 218.691 142.635 218.147 141.851" stroke="#263238" stroke-width="1.1775" stroke-linecap="round" stroke-linejoin="round"/>
<path d="M234.501 172.559H217.976C217.295 172.559 216.743 172.007 216.743 171.327L214.372 153.039H238.104L235.733 171.327C235.733 172.007 235.181 172.559 234.501 172.559Z" fill="#263238"/>
<path d="M237.894 156.135H214.372C213.352 156.135 212.522 155.313 212.513 154.293C212.513 153.269 213.343 152.439 214.367 152.439C214.369 152.439 214.37 152.439 214.372 152.439H237.894C238.919 152.436 239.751 153.265 239.753 154.289C239.753 154.29 239.753 154.292 239.753 154.293C239.744 155.313 238.914 156.135 237.894 156.135Z" fill="#263238"/>
<path d="M184.863 82.9937C184.863 93.835 177.302 102.919 167.16 105.251C167.135 105.259 167.119 105.259 167.094 105.267C166.494 105.401 165.895 105.517 165.278 105.609C164.212 105.759 163.122 105.842 162.014 105.842C149.391 105.842 139.157 95.6083 139.157 82.9931C139.157 70.6528 148.941 60.5943 161.173 60.1614C161.381 60.1444 161.597 60.1444 161.814 60.1444C161.881 60.1362 161.947 60.1362 162.014 60.1362C162.089 60.1362 162.172 60.1362 162.247 60.1444C165.428 60.1696 168.45 60.8523 171.198 62.0681C179.242 65.599 184.863 73.6425 184.863 82.9937Z" fill="#FF7E42"/>
<path opacity="0.4" d="M171.198 62.0687C144.811 60.695 144.686 89.9881 144.686 89.9881C144.686 89.9881 140.656 80.4293 147.234 69.8378C150.906 63.9175 157.31 61.3029 162.247 60.1456C165.428 60.1702 168.45 60.8529 171.198 62.0687Z" fill="white"/>
<path d="M184.863 82.9937C184.863 93.8601 177.269 102.961 167.094 105.267C165.462 105.642 163.763 105.842 162.015 105.842C149.391 105.842 139.158 95.6083 139.158 82.9931C139.158 70.6528 148.942 60.5943 161.173 60.1614C161.448 60.145 161.732 60.1362 162.014 60.1362C174.629 60.1369 184.863 70.3703 184.863 82.9937Z" stroke="#263238" stroke-miterlimit="10" stroke-linecap="round" stroke-linejoin="round"/>
<path d="M184.863 82.9937C184.863 93.8602 177.269 102.961 167.094 105.267C166.819 105.284 166.536 105.292 166.253 105.292C153.629 105.292 143.404 95.0589 143.404 82.4355C143.404 71.569 150.998 62.4684 161.173 60.1614C161.448 60.145 161.732 60.1362 162.014 60.1362C174.629 60.1369 184.863 70.3703 184.863 82.9937Z" stroke="#263238" stroke-miterlimit="10" stroke-linecap="round" stroke-linejoin="round"/>
<path d="M169.887 97.2941L170.479 99.7074L166.53 100.676L165.938 98.2626C162.398 98.2468 159.559 95.9657 158.655 92.28L158.386 91.1831L162.743 89.6024L163.023 90.7433C163.572 92.9816 165.046 94.0621 166.889 93.6096C168.732 93.1572 169.593 91.7369 169.152 89.9378C168.624 87.7888 166.154 86.4402 163.3 85.047C159.921 83.4102 156.435 81.3342 155.477 77.4295C154.541 73.6116 155.716 70.4388 158.727 68.8637L158.135 66.4504L162.083 65.4819L162.675 67.8952C166.106 67.8443 168.659 70.1028 169.617 74.0075L169.811 74.7972L165.454 76.3773L165.239 75.5001C164.657 73.1302 163.434 72.1278 161.811 72.5261C160.188 72.9245 159.513 74.1591 159.987 76.0904C160.514 78.2394 163.018 79.5332 165.838 80.9812C169.184 82.674 172.704 84.6946 173.661 88.5993C174.577 92.3284 173.072 95.6749 169.887 97.2941Z" fill="white" fill-opacity="0.25" stroke="white" stroke-miterlimit="10"/>
<path opacity="0.3" d="M169.307 97.0281L169.66 96.8484C172.626 95.3409 174.04 92.2359 173.176 88.7185L173.176 88.7184C172.28 85.0641 168.982 83.1321 165.613 81.4273L165.61 81.426C164.21 80.7071 162.839 80.0027 161.755 79.2005C160.669 78.3967 159.805 77.4475 159.502 76.2097L169.307 97.0281ZM169.307 97.0281L169.401 97.4132M169.307 97.0281L169.401 97.4132M169.401 97.4132L169.874 99.3409L166.896 100.071L166.423 98.1434L166.33 97.7643L165.94 97.7626C162.644 97.7479 159.994 95.6382 159.141 92.1608L158.979 91.5001L162.39 90.2624M169.401 97.4132L162.39 90.2624M162.39 90.2624L162.537 90.8622L162.537 90.8623C162.831 92.0588 163.386 93.0055 164.173 93.5876C164.973 94.1782 165.958 94.3531 167.008 94.0952L167.008 94.0952C168.031 93.8442 168.831 93.3104 169.303 92.5402C169.776 91.7694 169.884 90.8226 169.638 89.8187L169.638 89.8185C169.334 88.5846 168.483 87.622 167.398 86.8089C166.315 85.9969 164.944 85.2931 163.519 84.5976L163.518 84.597C160.13 82.9557 156.859 80.9661 155.963 77.3105L162.39 90.2624ZM165.807 75.7175L169.218 74.4803L169.132 74.1266L169.131 74.1266C168.671 72.2507 167.837 70.8079 166.743 69.843C165.653 68.8826 164.279 68.3715 162.683 68.3952L162.285 68.4011L162.19 68.0144L161.717 66.0866L158.739 66.8169L159.212 68.7445L159.306 69.1251L158.959 69.3067C157.558 70.0395 156.598 71.1337 156.09 72.4819C155.58 73.836 155.514 75.478 155.963 77.3104L165.807 75.7175ZM165.807 75.7175L165.724 75.381L165.724 75.381C165.421 74.1448 164.933 73.1875 164.24 72.595C163.524 71.9821 162.642 71.8073 161.692 72.0405L161.692 72.0405C160.776 72.2652 160.063 72.7457 159.669 73.5025C159.281 74.247 159.247 75.1738 159.502 76.2094L165.807 75.7175Z" fill="white" fill-opacity="0.25" stroke="white"/>
<path d="M150.336 102.636L155.164 102.415" stroke="#263238" stroke-miterlimit="10" stroke-linecap="round" stroke-linejoin="round"/>
<path d="M148.013 101.033L152.226 100.676" stroke="#263238" stroke-miterlimit="10" stroke-linecap="round" stroke-linejoin="round"/>
<path d="M146.123 99.3387L150.336 98.9819" stroke="#263238" stroke-miterlimit="10" stroke-linecap="round" stroke-linejoin="round"/>
<path d="M145.548 67.1452H149.155" stroke="#263238" stroke-miterlimit="10" stroke-linecap="round" stroke-linejoin="round"/>
<path d="M147.328 65.4815L150.92 65.3185" stroke="#263238" stroke-miterlimit="10" stroke-linecap="round" stroke-linejoin="round"/>
<path d="M149.578 63.8175L153.368 63.4607" stroke="#263238" stroke-miterlimit="10" stroke-linecap="round" stroke-linejoin="round"/>
<path opacity="0.3" d="M167.16 105.251C167.135 105.259 167.118 105.259 167.093 105.267C165.461 105.642 163.762 105.842 162.014 105.842C149.391 105.842 139.157 95.6085 139.157 82.9933C139.157 70.653 148.941 60.5946 161.173 60.1616C161.381 60.1446 161.597 60.1447 161.814 60.1447C156.244 61.9016 146.901 66.3897 144.403 75.749C140.856 89.0388 148.833 104.135 167.16 105.251Z" fill="black"/>
<path opacity="0.2" d="M184.863 82.9938C184.863 93.8351 177.302 102.919 167.16 105.251C167.135 105.259 167.119 105.259 167.094 105.267C166.494 105.401 165.895 105.517 165.278 105.609L171.198 62.0688C179.242 65.5991 184.863 73.6426 184.863 82.9938Z" fill="white"/>
<path d="M197.827 47.0226C194.03 52.3935 187.103 54.2417 181.274 51.8272C181.249 51.819 181.216 51.802 181.191 51.7938C180.758 51.6107 180.325 51.4024 179.9 51.1696C179.442 50.9197 179.001 50.6447 178.568 50.337C172.331 45.932 170.849 37.3058 175.254 31.069C179.493 25.0738 187.628 23.4748 193.789 27.2889C193.898 27.3474 193.998 27.4141 194.098 27.4802C194.239 27.5633 194.381 27.6633 194.522 27.7634C194.739 27.9131 194.947 28.0717 195.147 28.2379C200.842 32.7504 202.082 41.0104 197.827 47.0226Z" fill="#FF7E42"/>
<path opacity="0.4" d="M176.974 47.2107C176.974 47.2107 174.711 40.5591 177.717 35.6646C181.488 29.524 187.274 26.7275 195.145 28.2378C195.145 28.2378 190.877 25.3569 183.735 27.4014C176.595 29.4454 172.763 39.2716 176.974 47.2107Z" fill="white"/>
<path d="M197.825 47.0257C194.032 52.3929 187.104 54.2373 181.273 51.8246C180.336 51.4402 179.427 50.9455 178.563 50.3351C172.328 45.9283 170.845 37.3008 175.249 31.0703C179.557 24.975 187.902 23.4219 194.094 27.4783C194.236 27.5658 194.379 27.6608 194.519 27.7596C200.75 32.1633 202.232 40.7908 197.825 47.0257Z" stroke="#263238" stroke-miterlimit="10" stroke-linecap="round" stroke-linejoin="round"/>
<path d="M197.825 47.0258C194.032 52.3929 187.104 54.2374 181.273 51.8247C181.131 51.7372 180.988 51.6422 180.849 51.5434C174.614 47.1365 173.135 38.5122 177.542 32.2773C181.336 26.9101 188.264 25.0657 194.095 27.4784C194.237 27.5658 194.379 27.6609 194.519 27.7596C200.75 32.1634 202.232 40.7908 197.825 47.0258Z" stroke="#263238" stroke-miterlimit="10" stroke-linecap="round" stroke-linejoin="round"/>
<path d="M185.436 48.8614L184.886 50.2603L182.597 49.3598L183.147 47.9609C181.404 46.7174 180.799 44.5999 181.639 42.4635L181.889 41.8279L184.593 42.5679L184.334 43.2293C183.823 44.5269 184.174 45.5746 185.243 45.995C186.311 46.4147 187.232 46.0139 187.642 44.9712C188.132 43.7252 187.382 42.1967 186.459 40.5121C185.362 38.5242 184.364 36.282 185.255 34.0185C186.125 31.8059 187.813 30.6487 189.85 30.9218L190.4 29.5229L192.689 30.4228L192.139 31.8217C193.85 32.994 194.324 35.0008 193.434 37.2643L193.254 37.7218L190.55 36.9818L190.75 36.4733C191.29 35.1002 191.035 34.1777 190.095 33.8083C189.154 33.4383 188.389 33.8127 187.949 34.9322C187.459 36.1776 188.245 37.691 189.132 39.3907C190.195 41.3949 191.227 43.622 190.337 45.8849C189.487 48.0465 187.575 49.1741 185.436 48.8614Z" stroke="white" stroke-miterlimit="10"/>
<path opacity="0.3" d="M185.116 48.3093L185.508 48.3667C187.403 48.6438 189.101 47.6607 189.872 45.7019L189.872 45.7018C190.668 43.6789 189.765 41.6523 188.691 39.6248L188.689 39.6222L188.689 39.6222L188.688 39.6194C188.249 38.7803 187.81 37.9397 187.549 37.1476C187.287 36.352 187.177 35.5286 187.484 34.7494L185.116 48.3093ZM185.116 48.3093L184.971 48.6784M185.116 48.3093L184.971 48.6784M184.971 48.6784L184.604 49.6119L183.246 49.0775L183.613 48.1438L183.755 47.7805M184.971 48.6784L183.755 47.7805M183.755 47.7805L183.438 47.5538C181.893 46.4521 181.343 44.5833 182.104 42.6464L182.19 42.4286L183.924 42.9032L183.868 43.0463C183.868 43.0463 183.868 43.0464 183.868 43.0464C183.584 43.7692 183.517 44.4796 183.721 45.098C183.93 45.7301 184.402 46.2015 185.06 46.4603L185.06 46.4604C185.691 46.7083 186.327 46.7309 186.886 46.491C187.446 46.2508 187.863 45.7756 188.108 45.1542L188.108 45.154C188.412 44.3782 188.315 43.5535 188.056 42.7525C187.798 41.9532 187.358 41.1116 186.898 40.2718L186.897 40.2704C185.794 38.2734 184.924 36.2264 185.72 34.2015L185.72 34.2015C186.126 33.1686 186.71 32.416 187.395 31.952C188.075 31.4917 188.882 31.2965 189.783 31.4173L190.172 31.4694L190.315 31.1047L190.682 30.1712L192.04 30.7051L191.673 31.6387L191.528 32.0092L191.856 32.2342C192.614 32.7534 193.084 33.4445 193.275 34.2493C193.468 35.0606 193.385 36.0228 192.968 37.0813C192.968 37.0813 192.968 37.0813 192.968 37.0813L192.953 37.1211L191.219 36.6466M183.755 47.7805L191.219 36.6466M191.219 36.6466C191.505 35.9145 191.611 35.2296 191.462 34.6416C191.305 34.0205 190.881 33.5801 190.278 33.343C189.708 33.1188 189.126 33.0989 188.605 33.3672C188.097 33.6291 187.73 34.1223 187.484 34.7491L191.219 36.6466Z" fill="white" fill-opacity="0.25" stroke="white"/>
<path opacity="0.3" d="M193.789 27.2883C189.992 26.6137 185.229 26.2393 182.648 27.8962C177.91 30.9356 174.962 34.7654 175.004 40.9771C175.045 47.1887 180.849 51.5434 180.849 51.5434L181.19 51.7932C180.283 51.41 179.4 50.9273 178.568 50.3358C172.331 45.9308 170.849 37.3046 175.254 31.0678C179.492 25.0732 187.627 23.4748 193.789 27.2883Z" fill="black"/>
<path opacity="0.2" d="M197.827 47.0226C194.03 52.3935 187.102 54.2417 181.274 51.8272C181.249 51.819 181.215 51.802 181.191 51.7938C180.758 51.6107 180.325 51.4024 179.9 51.1696L195.147 28.2379C200.842 32.7504 202.082 41.0104 197.827 47.0226Z" fill="white"/>
<path d="M190.704 224.233C184.811 231.23 177.892 237.36 170.037 242.073C167.577 243.544 165.064 244.855 162.489 246.011C144.611 254.05 124.234 254.571 105.176 249.95C65.112 240.242 43.8542 204.876 41.1571 165.618C40.429 155.005 38.8048 143.548 43.1035 133.455C47.3643 123.447 56.0925 117.102 65.9244 112.734C73.0586 109.561 80.7679 107.424 87.7719 105.684C100.524 102.52 113.742 103.968 125.582 109.585C133.82 113.493 139.69 120.26 146.617 126C147.353 126.605 148.089 127.21 148.832 127.808C155.828 133.441 163.2 138.621 170.871 143.295C182.519 150.399 194.443 157.104 201.884 169.036C213.747 188.048 203.732 208.754 190.704 224.233Z" fill="#FF7E42"/>
<path opacity="0.4" d="M190.704 224.233C184.811 231.23 177.892 237.36 170.037 242.073C167.577 243.544 165.064 244.855 162.489 246.011C144.611 254.05 124.234 254.571 105.176 249.95C65.112 240.242 43.8542 204.876 41.1571 165.618C40.429 155.005 38.8048 143.548 43.1035 133.455C47.3643 123.447 56.0925 117.102 65.9244 112.734C73.0586 109.561 80.7679 107.424 87.7719 105.684C100.524 102.52 113.742 103.968 125.582 109.585C133.82 113.493 139.69 120.26 146.617 126C147.353 126.605 148.089 127.21 148.832 127.808C155.828 133.441 163.2 138.621 170.871 143.295C182.519 150.399 194.443 157.104 201.884 169.036C213.747 188.048 203.732 208.754 190.704 224.233Z" fill="white"/>
<path d="M148.833 127.806C148.09 127.209 147.352 126.606 146.618 125.998C139.689 120.261 133.819 113.493 125.583 109.585C113.743 103.966 100.52 102.521 87.772 105.685C71.1168 109.819 50.4549 116.183 43.103 133.457C38.8068 143.55 40.4298 155.005 41.1591 165.616C43.8575 204.877 65.1096 240.242 105.175 249.953C126.978 255.237 150.497 253.791 170.039 242.072C177.89 237.365 184.814 231.227 190.701 224.233C203.729 208.755 213.75 188.047 201.888 169.035C194.446 157.106 182.523 150.401 170.871 143.297C163.199 138.619 155.833 133.44 148.833 127.806Z" stroke="#263238" stroke-miterlimit="10"/>
<path d="M88.1123 197.816C84.8073 198.837 81.4772 200.113 78.4421 201.706" stroke="#263238" stroke-miterlimit="10" stroke-linecap="round" stroke-linejoin="round"/>
<path d="M108.558 193.929C108.558 193.929 102.006 194.377 94.0496 196.222" stroke="#263238" stroke-miterlimit="10" stroke-linecap="round" stroke-linejoin="round"/>
<path d="M104.285 192.918C104.285 192.918 85.48 181.981 62.7868 190.747" stroke="#263238" stroke-miterlimit="10" stroke-linecap="round" stroke-linejoin="round"/>
<path opacity="0.2" d="M190.704 224.233C184.811 231.23 177.892 237.36 170.037 242.073C167.577 243.544 165.064 244.855 162.489 246.011C160.443 245.383 158.435 244.655 156.465 243.805C144.725 238.762 134.87 230.256 125.238 221.857C119.429 216.8 113.528 211.665 106.577 208.347C97.2898 203.91 86.3541 203.013 76.4687 205.872C81.5722 200.071 88.7454 196.124 96.378 194.914C91.4123 190.392 84.4927 188.492 77.7719 188.369C71.0512 188.239 67.3497 189.074 60.7901 190.545C62.9819 186.506 68.8135 182.852 73.4116 182.959C68.8135 182.851 63.5646 182.544 60.3383 182.032C54.3991 181.074 51.7479 174.093 50.8587 168.153C48.4064 151.8 50.8896 134.367 59.8172 120.457C61.6868 117.545 63.7257 114.986 65.925 112.733C73.0592 109.56 80.7686 107.423 87.7725 105.683C100.524 102.519 113.743 103.966 125.582 109.583C133.82 113.492 139.69 120.259 146.618 125.998C147.354 126.604 148.089 127.209 148.832 127.807C155.829 133.44 163.201 138.62 170.872 143.294C182.52 150.398 194.444 157.103 201.885 169.035C213.747 188.048 203.732 208.754 190.704 224.233Z" fill="white"/>
<path d="M197.236 223.769C197.236 223.769 202.524 228.22 208.289 231.915C215.773 232.418 212.417 241.465 212.417 241.465L206.011 245.583C206.011 245.583 195.069 236.886 189.097 234.061C183.125 231.235 197.236 223.769 197.236 223.769Z" fill="white"/>
<path opacity="0.3" d="M144.093 128.546C144.093 128.546 143.065 118.395 141.431 115.542L116.587 110.465V108.542C116.587 108.542 117.16 105.192 111.622 103.097C106.083 101.002 94.5461 103.725 91.5696 105.977C88.5931 108.229 89.6836 112.106 89.6836 112.106C89.6836 112.106 79.673 117.178 75.1711 119.107C70.6692 121.036 64.4236 124.771 64.4236 124.771C64.4236 124.771 62.3891 148.099 62.7874 153.517C63.1858 158.936 62.464 164.033 62.9265 167.036C63.3897 170.039 63.7572 171.745 66.9074 174.299C70.0576 176.853 72.912 180.623 81.1657 176.883L80.0147 175.973L134.348 157.704L144.093 128.546Z" fill="black"/>
<path d="M144.093 128.546C144.093 128.546 143.065 118.395 141.431 115.542L116.587 110.465V108.542C116.587 108.542 117.16 105.192 111.622 103.097C106.083 101.002 94.5461 103.725 91.5696 105.977C88.5931 108.229 89.6836 112.106 89.6836 112.106C89.6836 112.106 79.673 117.178 75.1711 119.107C70.6692 121.036 64.4236 124.771 64.4236 124.771C64.4236 124.771 62.3891 148.099 62.7874 153.517C63.1858 158.936 62.464 164.033 62.9265 167.036C63.3897 170.039 63.7572 171.745 66.9074 174.299C70.0576 176.853 72.912 180.623 81.1657 176.883L80.0147 175.973L134.348 157.704L144.093 128.546Z" fill="#FF7E42"/>
<path opacity="0.05" d="M144.093 128.546C144.093 128.546 143.065 118.395 141.431 115.542L116.587 110.465V108.542C116.587 108.542 117.16 105.192 111.622 103.097C106.083 101.002 94.5461 103.725 91.5696 105.977C88.5931 108.229 89.6836 112.106 89.6836 112.106C89.6836 112.106 79.673 117.178 75.1711 119.107C70.6692 121.036 64.4236 124.771 64.4236 124.771C64.4236 124.771 62.3891 148.099 62.7874 153.517C63.1858 158.936 62.464 164.033 62.9265 167.036C63.3897 170.039 63.7572 171.745 66.9074 174.299C70.0576 176.853 72.912 180.623 81.1657 176.883L80.0147 175.973L134.348 157.704L144.093 128.546Z" fill="black"/>
<path opacity="0.1" d="M141.758 116.767H131.364C129.345 116.767 127.622 118.228 127.291 120.219L122.167 151.076C122.167 151.076 115.115 151.663 110.118 155.31C105.122 158.958 92.8326 132.957 73.4097 132.945C73.4097 132.945 78.9984 145.717 80.2387 155.911C80.2387 155.911 68.0992 154.59 66.0836 159.34C64.0674 164.09 66.9999 172.996 72.1317 169.55C77.2635 166.106 82.0724 160.339 85.5329 163.955C88.9933 167.572 104.284 169.55 104.284 169.55L127.864 157.705L137.01 153.406L141.758 116.767Z" fill="white"/>
<path opacity="0.4" d="M108.752 101.493C108.752 101.493 114.656 103.131 115.612 105.11C116.568 107.089 116.47 112.107 116.47 112.107C116.47 112.107 114.861 116.563 110.119 120.842L105.711 112.107L106.106 122.015C106.106 122.015 97.7504 120.625 94.2044 117.952C90.6584 115.279 90.6584 115.279 90.6584 115.279C90.6584 115.279 89.1324 110.262 89.3489 108.543C89.5653 106.822 95.9607 103.372 95.9607 103.372L108.752 101.493Z" fill="white"/>
<path d="M207.07 254.227C206.908 253.864 209.494 249.3 207.469 244.647C205.444 239.993 202.215 241.787 202.215 241.787C202.215 241.787 193.021 235.937 189.156 234.089C185.292 232.241 181.134 229.319 181.134 229.319L177.051 234.817L180.825 246.499L207.07 254.227Z" fill="#FF7E42"/>
<path d="M201.877 241.505L213.685 248.72C213.685 248.72 221.982 243.394 225.944 239.718C229.906 236.042 238.762 228.219 238.762 228.219L244.416 220.596C244.416 220.596 240.486 215.738 233.942 219.643C225.485 224.689 215.172 231.985 208.289 231.916C208.289 231.916 209.646 240.367 201.877 241.505Z" fill="#FF7E42"/>
<path d="M106.75 70.9812C106.75 70.9812 112.108 79.0857 113.083 81.7105C114.058 84.3352 114.844 88.2198 114.646 90.0862C114.448 91.9527 112.493 101.966 111.481 102.259L110.531 103.333L111.14 107.575C111.14 107.575 106.949 114.822 94.626 109.51C94.626 109.51 94.1452 101.048 92.6476 98.394C91.1499 95.7404 88.9084 98.8975 86.6662 91.2265C84.4241 83.5555 91.5734 75.5278 91.5734 75.5278L106.75 70.9812Z" fill="white"/>
<path opacity="0.5" d="M239.313 218.232C239.313 218.232 233.246 219.284 231.274 222.878C229.303 226.471 225.524 233.151 224.233 236.38C222.942 239.609 212.267 247.407 212.267 247.407L213.685 248.72C213.685 248.72 222.371 243.35 227.609 238.247C232.848 233.144 244.414 220.307 244.414 220.307C244.414 220.307 243.588 219.481 239.313 218.232Z" fill="white"/>
<path opacity="0.5" d="M178.549 232.8L177.051 234.818L181.668 244.397L207.07 253.528L208.248 249.806C208.248 249.806 208.641 246.018 199.724 243.164C190.808 240.31 185.371 238.401 182.835 236.428C180.298 234.454 178.549 232.8 178.549 232.8Z" fill="white"/>
<path d="M94.6845 161.661C94.6845 161.661 86.906 160.494 83.2744 166.856C79.6428 173.219 80.0141 175.973 80.0141 175.973C80.0141 175.973 85.1522 180.643 92.2184 180.404C99.2846 180.165 109.585 172.02 112.938 169.386C116.292 166.751 124.75 159.205 130.522 160.762L131.158 155.306C131.158 155.306 130.597 152.86 125.66 153.518C120.723 154.175 118.787 156.993 117.2 156.993C115.612 156.993 114.104 155.461 110.885 160.927C110.885 160.927 99.6653 162.918 94.6845 161.661Z" fill="white"/>
<path d="M104.797 82.64C104.958 83.6595 105.194 84.6669 105.501 85.6518C105.65 86.1275 105.823 86.612 106.16 86.9802C106.754 87.6315 107.707 87.7756 108.579 87.9077C108.723 87.9298 108.879 87.9593 108.972 88.0707C109.057 88.172 109.066 88.3149 109.066 88.447C109.064 89.4306 108.763 90.4117 108.213 91.2266" stroke="#263238" stroke-miterlimit="10" stroke-linecap="round" stroke-linejoin="round"/>
<path opacity="0.1" d="M183.771 226.298L178.549 232.8C178.549 232.8 184.278 238.091 190.208 240.051C196.138 242.012 206.511 245.729 208.248 248.569L207.58 245.15C207.58 245.15 191.354 235.195 187.624 232.819C183.895 230.443 183.771 226.298 183.771 226.298Z" fill="white"/>
<path opacity="0.1" d="M201.877 241.504L212.267 247.407C212.267 247.407 217.382 243.909 219.911 241.304C222.441 238.699 225.526 235.853 227.434 230.055C230.07 222.041 237.623 218.232 237.623 218.232C237.623 218.232 227.12 223.175 221.652 227.058C216.184 230.942 210.855 232.555 207.76 232.292C207.76 232.292 210.246 240.162 201.877 241.504Z" fill="white"/>
<path d="M101.13 92.6556C101.13 92.6556 105.213 95.8581 109.457 94.6574C109.457 94.6574 105.453 102.584 101.13 92.6556Z" fill="white" stroke="#263238" stroke-miterlimit="10" stroke-linecap="round" stroke-linejoin="round"/>
<path d="M101.004 85.7329C101.123 86.6145 100.857 87.3778 100.412 87.4376C99.9674 87.4968 99.5112 86.8304 99.3928 85.9487C99.2745 85.0671 99.5401 84.3038 99.985 84.244C100.43 84.1842 100.887 84.8513 101.004 85.7329Z" fill="#263238"/>
<path d="M109.87 84.1327C109.989 85.0143 109.724 85.7776 109.278 85.8374C108.833 85.8972 108.377 85.2302 108.259 84.3485C108.141 83.4669 108.406 82.7036 108.851 82.6438C109.297 82.584 109.753 83.2504 109.87 84.1327Z" fill="#263238"/>
<path d="M100.36 81.9969C100.36 81.9969 97.9795 80.7704 96.2854 83.399" stroke="#263238" stroke-miterlimit="10" stroke-linecap="round" stroke-linejoin="round"/>
<path d="M106.449 80.3613C106.449 80.3613 108.96 78.2003 110.421 80.3613" stroke="#263238" stroke-miterlimit="10" stroke-linecap="round" stroke-linejoin="round"/>
<path d="M92.2719 90.0945C92.2719 90.0945 90.7408 87.8341 89.1368 87.9071C87.5327 87.9801 86.8764 90.2405 87.4598 92.4279C88.0431 94.6153 90.4495 97.678 92.2719 97.386C94.0949 97.094 94.8966 95.9273 94.8966 95.9273" stroke="#263238" stroke-miterlimit="10" stroke-linecap="round" stroke-linejoin="round"/>
<path d="M106.931 72.8112C108.652 74.2352 110.468 75.7946 111.368 77.8939C112.135 79.681 112.309 81.6589 113.011 83.4731C113.759 85.4063 114.582 87.4288 114.644 89.5369C114.701 91.4562 114.265 93.451 113.883 95.3194C113.552 96.9366 113.297 98.6042 112.716 100.155C111.87 102.415 110.3 103.804 108.197 104.878C106.667 105.658 104.119 106.779 102.467 105.722C101.503 105.105 100.059 103.294 98.8542 101.637" stroke="#263238" stroke-miterlimit="10" stroke-linecap="round" stroke-linejoin="round"/>
<path d="M92.2719 97.386C92.2719 97.386 94.9765 104.02 94.3202 108.687" stroke="#263238" stroke-miterlimit="10" stroke-linecap="round" stroke-linejoin="round"/>
<path d="M91.5772 88.98C92.3008 88.4565 92.7149 87.5345 92.6262 86.6466C92.5242 85.6259 91.8163 84.6839 91.9572 83.6676C92.0265 83.1692 92.2945 82.7249 92.4978 82.2649C93.2429 80.5847 93.1176 78.5459 92.1725 76.9701C92.1725 76.9701 100.767 77.3723 104.796 74.8098C108.825 72.248 111.89 65.7003 109.456 62.569C107.022 59.4377 102.277 63.708 98.7667 64.1818C95.2559 64.6563 82.7307 66.6493 80.7377 71.4885C78.7448 76.3276 81.7817 78.0399 81.8761 82.64C81.9711 87.24 81.9661 95.9531 88.8479 95.1552C88.8479 95.1552 86.2748 91.8263 88.0607 88.3948C89.2784 86.9336 91.5772 88.98 91.5772 88.98Z" fill="#263238"/>
<path d="M108.435 68.0065C108.435 68.0065 111.973 70.3676 112.551 75.563C112.934 79.0127 119.055 85.7133 114.644 89.5356C114.644 89.5356 113.615 85.4742 113.011 83.4718C112.407 81.47 111.637 77.8177 110.622 76.5415C109.607 75.2653 104.233 70.9031 104.233 70.9031L108.435 68.0065Z" fill="#263238"/>
<path d="M93.066 108.542C93.066 108.542 97.3074 111.332 105.185 111.449L106.106 122.015C106.106 122.015 97.2514 121.338 90.6584 115.278C90.6584 115.278 88.8788 110.566 89.3489 108.542C89.8183 106.518 94.0389 104.507 94.0389 104.507" stroke="#263238" stroke-miterlimit="10" stroke-linecap="round" stroke-linejoin="round"/>
<path d="M110.886 103.814L111.14 107.575C108.276 110.51 105.185 111.45 105.185 111.45L110.119 120.842C110.119 120.842 115.999 116.263 116.586 111.45C116.586 111.45 116.635 106.519 115.613 105.111C114.591 103.702 110.849 103.038 110.849 103.038" stroke="#263238" stroke-miterlimit="10" stroke-linecap="round" stroke-linejoin="round"/>
<path opacity="0.8" d="M87.0117 74.6116C87.6498 73.0302 89.3627 72.1221 91.0441 71.8396C92.7256 71.5564 94.446 71.7666 96.1508 71.7213C98.4867 71.6602 100.844 71.097 102.819 69.8473C104.793 68.5975 106.354 66.6191 106.849 64.3354" stroke="white" stroke-miterlimit="10" stroke-linecap="round" stroke-linejoin="round"/>
<path opacity="0.8" d="M82.9497 74.3076C84.0169 71.0762 87.4642 69.0846 90.8554 68.797C92.5349 68.6541 94.2334 68.8524 95.9072 68.6554C97.5811 68.4584 99.3236 67.7675 100.198 66.3264" stroke="white" stroke-miterlimit="10" stroke-linecap="round" stroke-linejoin="round"/>
<path d="M81.165 176.884C72.9976 181.125 70.077 176.763 65.5223 173.15C60.9669 169.537 63.9516 163.097 63.0089 152.73C62.0663 142.363 64.4223 124.771 64.4223 124.771C64.4223 124.771 66.4643 124.3 72.1191 120.841C77.7738 117.383 89.683 112.106 89.683 112.106" stroke="#263238" stroke-miterlimit="10" stroke-linecap="round" stroke-linejoin="round"/>
<path d="M89.2702 161.219C89.2702 161.219 87.9726 157.11 84.3077 156.999C80.6427 156.888 74.869 158.541 70.7573 166.328" stroke="#263238" stroke-miterlimit="10" stroke-linecap="round" stroke-linejoin="round"/>
<path d="M83.4732 156.755C83.2454 156.758 83.0264 156.675 82.8125 156.597C79.8177 155.512 76.4913 155.362 73.4104 156.172" stroke="#263238" stroke-miterlimit="10" stroke-linecap="round" stroke-linejoin="round"/>
<path d="M71.306 130.388C77.9645 137.75 81.2141 147.491 84.2919 156.929" stroke="#263238" stroke-miterlimit="10" stroke-linecap="round" stroke-linejoin="round"/>
<path d="M116.587 110.465C116.587 110.465 128.671 113.346 134.571 114.032C140.471 114.718 141.431 115.541 141.431 115.541L142.529 119.658" stroke="#263238" stroke-miterlimit="10" stroke-linecap="round" stroke-linejoin="round"/>
<path d="M172.892 117.643L131.741 119.225L128.379 161.546H135.429L171.158 153.543L175.653 118.661L172.892 117.643Z" fill="white"/>
<path d="M130.522 162.799L175.524 119.658L171.158 153.543L130.522 162.799Z" fill="#FF7E42"/>
<path opacity="0.7" d="M130.522 162.799L175.524 119.658L171.158 153.543L130.522 162.799Z" fill="white"/>
<path d="M130.522 161.661L134.118 120.841L175.653 118.661L171.158 153.543L130.522 161.661Z" stroke="#263238" stroke-miterlimit="10" stroke-linecap="round" stroke-linejoin="round"/>
<path d="M158.145 138.434C157.865 140.92 156.537 142.81 155.18 142.657C153.823 142.503 152.951 140.364 153.232 137.879C153.512 135.393 154.84 133.503 156.197 133.657C157.554 133.81 158.427 135.949 158.145 138.434Z" fill="#263238"/>
<path d="M171.158 153.543C171.158 153.543 190.174 153.003 196.122 156.929C202.071 160.855 205.558 180.546 204.737 191.007C203.917 201.468 196.738 225.466 196.738 225.466L182.995 209.878C182.995 209.878 176.226 185.264 179.918 175.623C179.918 175.623 161.663 176.649 154.484 174.393C154.484 174.393 148.045 163.854 137.009 160.365L171.158 153.543Z" fill="#263238"/>
<path d="M199.64 225.873C193.832 220.614 188.229 213.374 186.566 210.8C179.915 200.524 170.719 190.638 161.263 182.967C153.638 176.783 151.913 166.713 142.511 161.663C126.939 153.31 113.475 169.909 108.44 173.266C103.405 176.622 94.6845 180.408 94.6845 180.408C94.6845 180.408 97.8649 192.34 107.214 193.78C116.563 195.221 126.027 188.745 130.525 191.865C135.023 194.976 138.31 208.884 153.085 217.038C165.162 223.697 181.615 230.196 190.106 234.571C192.006 235.552 193.404 236.585 194.474 237.169C197.406 238.768 200.54 240.654 203.496 242.514L213.684 248.72C213.684 248.72 223.908 242.672 227.835 237.096C228.363 236.346 229.447 234.35 230.467 232.424C232.691 228.219 235.489 224.443 239.397 222.343C242.093 220.894 244.491 220.449 244.414 220.306C244.154 219.826 239.274 217.331 235.955 218.697C228.933 221.594 214.896 232.74 208.29 231.915C208.29 231.915 203.476 229.349 199.64 225.873Z" stroke="#263238" stroke-miterlimit="10"/>
<path d="M199.64 225.873C193.517 228.348 191.049 232.157 190.107 234.571C181.616 230.196 165.163 223.697 153.086 217.038C138.311 208.884 135.023 194.976 130.525 191.865C126.027 188.746 116.563 195.221 107.214 193.78C97.8643 192.339 94.6877 180.404 94.6877 180.404C94.6877 180.404 103.408 176.624 108.443 173.268C113.477 169.911 125.086 153.307 142.51 161.663C152.135 166.279 153.637 176.783 161.262 182.967C170.718 190.638 179.914 200.523 186.566 210.799C188.229 213.375 193.816 220.632 199.64 225.873Z" fill="#263238"/>
<path d="M153.628 172.527C153.628 172.527 148.915 162.948 141.354 161.09" stroke="white" stroke-miterlimit="10" stroke-linecap="round" stroke-linejoin="round"/>
<path d="M128.923 153.457C123.723 152.323 118.015 158.069 115.613 156.994C113.825 156.194 110.886 160.927 110.886 160.927C110.886 160.927 103.276 162.103 96.2729 161.661C89.2702 161.219 85.9507 162.579 83.4732 166.328L80.0141 175.492C80.0141 175.492 89.1406 183.683 98.8951 178.911C108.649 174.139 121.598 159.779 130.522 159.829" stroke="#263238" stroke-miterlimit="10" stroke-linecap="round" stroke-linejoin="round"/>
<path d="M201.481 241.26C201.481 241.26 210.02 241.961 208.015 231.765" stroke="#263238" stroke-miterlimit="10"/>
<path d="M241.696 225.467C241.049 226.752 233.241 233.383 226.501 239.204C226.521 239.113 228.365 235.561 229.174 234.044C230.963 230.695 235.594 221.513 244.414 220.307C245.665 221.06 241.696 225.467 241.696 225.467Z" fill="#263238"/>
<path d="M238.34 218.297C229.424 220.077 227.4 231.5 224.233 236.38C221.067 241.261 212.267 247.856 212.267 247.856" stroke="#263238" stroke-miterlimit="10"/>
<path d="M207.469 244.934C208.918 247.593 208.233 250.674 207.469 252.605C206.828 254.229 206.07 255.355 206.07 255.355C193.447 253.281 180.824 246.499 180.824 246.499L177.569 236.427L177.051 234.817L181.95 228.219" stroke="#263238" stroke-miterlimit="10"/>
<path d="M207.469 252.606C206.828 254.23 206.07 255.356 206.07 255.356C193.447 253.281 180.824 246.499 180.824 246.499L177.569 236.428C179.2 238.557 182.223 241.668 186.753 242.951C192.902 244.69 204.249 246.731 207.469 252.606Z" fill="#263238"/>
<path d="M128.379 160.073L131.741 119.225L172.892 117.643L175.653 118.661" stroke="#263238" stroke-miterlimit="10" stroke-linecap="round" stroke-linejoin="round"/>
<path d="M207.927 236.38C207.927 236.38 213.555 237.384 217.876 233.857C222.196 230.33 229.166 222.36 229.166 222.36" stroke="#263238" stroke-miterlimit="10"/>
<path d="M213.685 231.291C213.685 231.291 212.328 233.337 213.685 237.444" stroke="#263238" stroke-miterlimit="10" stroke-linecap="round" stroke-linejoin="round"/>
<path d="M217.674 229.349C217.674 229.349 216.586 232.407 218.183 235.5" stroke="#263238" stroke-miterlimit="10" stroke-linecap="round" stroke-linejoin="round"/>
<path d="M222.428 226.592C222.428 226.592 221.288 230.01 222.428 233.026" stroke="#263238" stroke-miterlimit="10" stroke-linecap="round" stroke-linejoin="round"/>
<path d="M183.065 227.368L178.549 232.8C178.549 232.8 183.099 237.763 189.506 239.826C195.912 241.89 207.375 245.395 208.322 249.126" stroke="#263238" stroke-miterlimit="10"/>
</g>
</svg>
