<svg width="28" height="28" viewBox="0 0 28 28" fill="none" xmlns="http://www.w3.org/2000/svg">
<circle opacity="0.15" cx="14" cy="14" r="14" fill="#585858"/>
<g clip-path="url(#clip0_72_1306)">
<path d="M18.9173 11.914L18.1189 11.086C18.0927 11.0587 18.0616 11.0371 18.0274 11.0223C17.9931 11.0076 17.9564 11 17.9193 11C17.8822 11 17.8455 11.0076 17.8113 11.0223C17.777 11.0371 17.7459 11.0587 17.7197 11.086L13.6372 15.5552L11.2971 13.1275C11.2435 13.0719 11.1708 13.0407 11.0949 13.0407C11.0191 13.0407 10.9463 13.0719 10.8927 13.1275L10.0837 13.9671C10.0301 14.0227 10 14.0981 10 14.1768C10 14.2554 10.0301 14.3308 10.0837 14.3865L13.4119 17.9178C13.4426 17.949 13.48 17.9724 13.5209 17.9861C13.5619 17.9997 13.6054 18.0033 13.6479 17.9965C13.6917 18.0044 13.7367 18.0014 13.7791 17.9877C13.8216 17.974 13.8603 17.9501 13.892 17.9178L18.9173 12.3281C18.9703 12.2732 19.0001 12.1987 19.0001 12.121C19.0001 12.0434 18.9703 11.9689 18.9173 11.9139V11.914Z" fill="#585858"/>
</g>
<defs>
<clipPath id="clip0_72_1306">
<rect width="9" height="7" fill="white" transform="translate(10 11)"/>
</clipPath>
</defs>
</svg>
