<svg width="22" height="16" viewBox="0 0 22 16" fill="none" xmlns="http://www.w3.org/2000/svg">
<path fill-rule="evenodd" clip-rule="evenodd" d="M21.5166 0.492899C21.8261 0.808239 22 1.23587 22 1.68176C22 2.12765 21.8261 2.55529 21.5166 2.87063L9.1426 15.4745C8.97908 15.6411 8.78493 15.7733 8.57126 15.8634C8.35758 15.9536 8.12856 16 7.89727 16C7.66599 16 7.43697 15.9536 7.22329 15.8634C7.00962 15.7733 6.81547 15.6411 6.65195 15.4745L0.504 9.21348C0.346322 9.05837 0.220553 8.87281 0.134031 8.66766C0.0475093 8.4625 0.00196717 8.24184 6.23323e-05 8.01857C-0.0018425 7.79529 0.0399282 7.57386 0.122937 7.36721C0.205946 7.16055 0.32853 6.9728 0.483537 6.81491C0.638545 6.65702 0.82287 6.53216 1.02576 6.44761C1.22865 6.36306 1.44604 6.32052 1.66524 6.32246C1.88445 6.3244 2.10108 6.37078 2.3025 6.45891C2.50391 6.54704 2.68608 6.67515 2.83837 6.83575L7.89672 11.9881L19.1812 0.492899C19.3345 0.336638 19.5165 0.212678 19.7169 0.128104C19.9173 0.0435305 20.132 0 20.3489 0C20.5658 0 20.7806 0.0435305 20.9809 0.128104C21.1813 0.212678 21.3633 0.336638 21.5166 0.492899Z" fill="white"/>
</svg>
