<svg width="29" height="30" viewBox="0 0 29 30" fill="none" xmlns="http://www.w3.org/2000/svg">
<path d="M14.2551 0.744873C6.37592 0.744873 0 7.12079 0 15C0 22.8792 6.37592 29.2551 14.2551 29.2551C22.1343 29.2551 28.5102 22.8792 28.5102 15C28.5102 7.12079 22.1343 0.744873 14.2551 0.744873ZM21.6677 11.8509L13.8922 19.9504C13.646 20.2096 13.2961 20.3392 12.9592 20.3392C12.6741 20.3392 12.376 20.2484 12.1428 20.054L6.95908 15.8423C6.69316 15.6243 6.5237 15.3105 6.48733 14.9685C6.45095 14.6266 6.55059 14.2841 6.76469 14.0151C7.21826 13.4708 8.03469 13.3801 8.59194 13.8336L12.8555 17.2937L19.8016 10.0496C20.2941 9.54416 21.1235 9.5312 21.6289 10.0107C22.1472 10.5031 22.1602 11.3325 21.6677 11.8509Z" fill="url(#paint0_linear_72_782)"/>
<defs>
<linearGradient id="paint0_linear_72_782" x1="0" y1="0.744873" x2="26.5663" y2="29.2551" gradientUnits="userSpaceOnUse">
<stop stop-color="#FF7E42"/>
<stop offset="1" stop-color="#F4B943"/>
</linearGradient>
</defs>
</svg>
