<svg width="44" height="44" viewBox="0 0 44 44" fill="none" xmlns="http://www.w3.org/2000/svg">
<circle cx="22" cy="22" r="20.75" fill="white" stroke="#FF7E42" stroke-width="2.5"/>
<path d="M29.6221 18.3445L28.2444 16.9668C28.1992 16.9214 28.1456 16.8855 28.0865 16.8609C28.0274 16.8364 27.964 16.8237 27.9 16.8237C27.836 16.8237 27.7727 16.8364 27.7136 16.8609C27.6545 16.8855 27.6008 16.9214 27.5557 16.9668L20.5114 24.403L16.4736 20.3637C16.381 20.2711 16.2555 20.2192 16.1246 20.2192C15.9938 20.2192 15.8682 20.2711 15.7757 20.3637L14.3799 21.7605C14.2873 21.8531 14.2354 21.9786 14.2354 22.1094C14.2354 22.2403 14.2873 22.3658 14.3799 22.4584L20.1225 28.334C20.1756 28.386 20.24 28.4249 20.3107 28.4476C20.3814 28.4704 20.4564 28.4763 20.5298 28.465C20.6053 28.4782 20.6829 28.4732 20.7562 28.4504C20.8294 28.4276 20.8962 28.3877 20.951 28.334L29.6221 19.0335C29.7135 18.9421 29.7649 18.8182 29.7649 18.689C29.7649 18.5597 29.7135 18.4358 29.6221 18.3444V18.3445Z" fill="#FF7E42"/>
</svg>
