<svg width="19" height="19" viewBox="0 0 19 19" fill="none" xmlns="http://www.w3.org/2000/svg">
<path d="M4.03797 15.2058V14.0162M4.03797 15.2058C4.25776 15.4168 4.48948 15.6151 4.73198 15.7996M4.03797 15.2058H4.08797V15.1844M4.03797 15.2058L4.07259 15.1697C4.07771 15.1746 4.08284 15.1795 4.08797 15.1844M4.03797 14.0162L13.4466 11.9144C13.8883 12.0611 14.2725 12.3431 14.5445 12.7205C14.8166 13.0978 14.9628 13.5512 14.9622 14.0162V15.2058M4.03797 14.0162C4.03741 13.5511 4.18356 13.0977 4.45565 12.7204C4.72774 12.3431 5.11193 12.0611 5.55362 11.9144L4.03797 14.0162ZM4.73198 15.7996C6.22769 16.9363 8.08091 17.5012 9.95698 17.3923C11.8331 17.2834 13.6083 16.5079 14.9622 15.2058M4.73198 15.7996L4.76225 15.7598M4.73198 15.7996L4.76223 15.7598C4.76224 15.7598 4.76225 15.7598 4.76225 15.7598M14.9622 15.2058L14.9276 15.1697C14.9225 15.1746 14.9173 15.1795 14.9122 15.1844M14.9622 15.2058H14.9122V15.1844M14.9122 15.1844V14.0162V14.0161C14.9128 13.5616 14.7699 13.1185 14.504 12.7497C14.2381 12.3809 13.8625 12.1052 13.4308 11.9618L13.4308 11.9618L10.6981 11.0508M14.9122 15.1844C13.5689 16.4694 11.8112 17.2346 9.95408 17.3424C8.08992 17.4506 6.24847 16.8893 4.76225 15.7598M10.6981 11.0508C9.92053 10.7928 9.08032 10.7927 8.30265 11.0505M10.6981 11.0508L10.6981 11.0507L10.7139 11.0033L10.6981 11.0508ZM4.76225 15.7598C4.52692 15.5807 4.30181 15.3886 4.08797 15.1844M4.08797 15.1844V14.0162V14.0161C4.08742 13.5616 4.23026 13.1185 4.4962 12.7497C4.76214 12.3809 5.13765 12.1052 5.56938 11.9618L5.56944 11.9618L8.30265 11.0505M8.30265 11.0505L8.28692 11.003L8.30273 11.0504L8.30265 11.0505ZM3.38005 14.4186C-0.735924 9.38576 2.94054 1.62829 9.49988 1.65739L9.50032 1.65739C16.0595 1.62869 19.7365 9.38603 15.6201 14.4186L15.6202 14.0162V14.0162L15.5702 14.0162C15.5708 13.4237 15.3846 12.846 15.0379 12.3652C14.6912 11.8845 14.2017 11.5251 13.6389 11.3381L3.38005 14.4186ZM3.38005 14.4186V14.0162V14.0162H3.43005L3.38005 14.4186ZM11.1085 10.4419C14.1 8.7967 13.0121 4.19393 9.50073 4.14735L9.49939 4.14737C5.98771 4.19514 4.90011 8.79571 7.89166 10.4418L5.34551 11.2907L11.1085 10.4419ZM11.1085 10.4419L13.6547 11.2907L11.1085 10.4419ZM9.50035 0.949998L9.49984 0.950001C1.32087 0.993124 -2.16631 11.3724 4.33458 16.3234L4.33481 16.3236C5.82332 17.444 7.63633 18.05 9.49996 18.05C11.3636 18.05 13.1766 17.4441 14.6652 16.3238L14.6654 16.3237C21.1664 11.3741 17.6789 0.991411 9.50035 0.949998ZM7.62642 9.37403C7.12973 8.87778 6.85061 8.20482 6.85035 7.50307C6.99036 3.99269 12.0104 3.99359 12.1498 7.50309C12.1496 8.20484 11.8705 8.8778 11.3738 9.37404C10.8768 9.87052 10.2029 10.1494 9.50009 10.1494C8.79732 10.1494 8.12334 9.87051 7.62642 9.37403Z" fill="#585858" stroke="#585858" stroke-width="0.1"/>
</svg>
